G04 #@! TF.FileFunction,Soldermask,Bot*
%FSLAX46Y46*%
G04 Gerber Fmt 4.6, Leading zero omitted, Abs format (unit mm)*
G04 Created by KiCad (PCBNEW 4.0.6) date 08/23/17 09:08:23*
%MOMM*%
%LPD*%
G01*
G04 APERTURE LIST*
%ADD10C,0.100000*%
%ADD11R,1.700000X1.700000*%
%ADD12O,1.700000X1.700000*%
%ADD13C,3.000000*%
%ADD14O,3.000000X2.300000*%
%ADD15C,2.000000*%
%ADD16O,2.500000X3.600000*%
%ADD17C,5.000000*%
G04 APERTURE END LIST*
D10*
D11*
X116496000Y-94610000D03*
D12*
X116496000Y-92070000D03*
X116496000Y-89530000D03*
X116496000Y-86990000D03*
X116496000Y-84450000D03*
X116496000Y-81910000D03*
X116496000Y-79370000D03*
X116496000Y-76830000D03*
X116496000Y-74290000D03*
X116496000Y-71750000D03*
D11*
X185584000Y-54986000D03*
D12*
X188124000Y-54986000D03*
X185584000Y-57526000D03*
X188124000Y-57526000D03*
X185584000Y-60066000D03*
X188124000Y-60066000D03*
D13*
X103034000Y-123048000D03*
D14*
X103034000Y-129528000D03*
X103034000Y-126428000D03*
X103034000Y-118128000D03*
D13*
X103034000Y-136008000D03*
D14*
X103034000Y-129528000D03*
X103034000Y-132628000D03*
X103034000Y-140928000D03*
D13*
X112559000Y-123048000D03*
D14*
X112559000Y-129528000D03*
X112559000Y-126428000D03*
X112559000Y-118128000D03*
D13*
X112559000Y-135963000D03*
D14*
X112559000Y-129483000D03*
X112559000Y-132583000D03*
X112559000Y-140883000D03*
D13*
X182250000Y-123048000D03*
D14*
X182250000Y-129528000D03*
X182250000Y-126428000D03*
X182250000Y-118128000D03*
D13*
X182282000Y-136012000D03*
D14*
X182282000Y-129532000D03*
X182282000Y-132632000D03*
X182282000Y-140932000D03*
D13*
X192304000Y-123048000D03*
D14*
X192304000Y-129528000D03*
X192304000Y-126428000D03*
X192304000Y-118128000D03*
D13*
X192315000Y-136012000D03*
D14*
X192315000Y-129532000D03*
X192315000Y-132632000D03*
X192315000Y-140932000D03*
D11*
X152310000Y-136520000D03*
D12*
X152310000Y-139060000D03*
X154850000Y-136520000D03*
X154850000Y-139060000D03*
X157390000Y-136520000D03*
X157390000Y-139060000D03*
X159930000Y-136520000D03*
X159930000Y-139060000D03*
X162470000Y-136520000D03*
X162470000Y-139060000D03*
X165010000Y-136520000D03*
X165010000Y-139060000D03*
X167550000Y-136520000D03*
X167550000Y-139060000D03*
X170090000Y-136520000D03*
X170090000Y-139060000D03*
X172630000Y-136520000D03*
X172630000Y-139060000D03*
X175170000Y-136520000D03*
X175170000Y-139060000D03*
D11*
X134495000Y-73676000D03*
D12*
X137035000Y-73676000D03*
X134495000Y-76216000D03*
X137035000Y-76216000D03*
X134495000Y-78756000D03*
X137035000Y-78756000D03*
X134495000Y-81296000D03*
X137035000Y-81296000D03*
X134495000Y-83836000D03*
X137035000Y-83836000D03*
X134495000Y-86376000D03*
X137035000Y-86376000D03*
X134495000Y-88916000D03*
X137035000Y-88916000D03*
X134495000Y-91456000D03*
X137035000Y-91456000D03*
X134495000Y-93996000D03*
X137035000Y-93996000D03*
X134495000Y-96536000D03*
X137035000Y-96536000D03*
X134495000Y-99076000D03*
X137035000Y-99076000D03*
D11*
X170045000Y-73676000D03*
D12*
X172585000Y-73676000D03*
X170045000Y-76216000D03*
X172585000Y-76216000D03*
X170045000Y-78756000D03*
X172585000Y-78756000D03*
X170045000Y-81296000D03*
X172585000Y-81296000D03*
X170045000Y-83836000D03*
X172585000Y-83836000D03*
X170045000Y-86376000D03*
X172585000Y-86376000D03*
X170045000Y-88916000D03*
X172585000Y-88916000D03*
X170045000Y-91456000D03*
X172585000Y-91456000D03*
X170045000Y-93996000D03*
X172585000Y-93996000D03*
X170045000Y-96536000D03*
X172585000Y-96536000D03*
X170045000Y-99076000D03*
X172585000Y-99076000D03*
D15*
X122378000Y-119513000D03*
X124878000Y-119513000D03*
X127378000Y-119513000D03*
X122378000Y-105013000D03*
X127378000Y-105013000D03*
D16*
X119378000Y-112013000D03*
X130378000Y-112013000D03*
D15*
X137279333Y-119513000D03*
X139779333Y-119513000D03*
X142279333Y-119513000D03*
X137279333Y-105013000D03*
X142279333Y-105013000D03*
D16*
X134279333Y-112013000D03*
X145279333Y-112013000D03*
D15*
X102820000Y-90680000D03*
X105320000Y-90680000D03*
X107820000Y-90680000D03*
X102820000Y-76180000D03*
X107820000Y-76180000D03*
D16*
X99820000Y-83180000D03*
X110820000Y-83180000D03*
D15*
X152180666Y-119513000D03*
X154680666Y-119513000D03*
X157180666Y-119513000D03*
X152180666Y-105013000D03*
X157180666Y-105013000D03*
D16*
X149180666Y-112013000D03*
X160180666Y-112013000D03*
D15*
X167081999Y-119513000D03*
X169581999Y-119513000D03*
X172081999Y-119513000D03*
X167081999Y-105013000D03*
X172081999Y-105013000D03*
D16*
X164081999Y-112013000D03*
X175081999Y-112013000D03*
D15*
X186132000Y-90680000D03*
X188632000Y-90680000D03*
X191132000Y-90680000D03*
X186132000Y-76180000D03*
X191132000Y-76180000D03*
D16*
X183132000Y-83180000D03*
X194132000Y-83180000D03*
D15*
X160256000Y-124686000D03*
X160256000Y-131186000D03*
X164756000Y-124686000D03*
X164756000Y-131186000D03*
X129704000Y-124836000D03*
X129704000Y-131336000D03*
X134204000Y-124836000D03*
X134204000Y-131336000D03*
X103106000Y-53716000D03*
X103106000Y-60216000D03*
X107606000Y-53716000D03*
X107606000Y-60216000D03*
X122664000Y-53716000D03*
X122664000Y-60216000D03*
X127164000Y-53716000D03*
X127164000Y-60216000D03*
X137565333Y-53716000D03*
X137565333Y-60216000D03*
X142065333Y-53716000D03*
X142065333Y-60216000D03*
X152466666Y-53716000D03*
X152466666Y-60216000D03*
X156966666Y-53716000D03*
X156966666Y-60216000D03*
X167367999Y-53716000D03*
X167367999Y-60216000D03*
X171867999Y-53716000D03*
X171867999Y-60216000D03*
D17*
X169750000Y-67000000D03*
X105500000Y-67000000D03*
X147000000Y-126000000D03*
M02*
