M48
;DRILL file {KiCad 4.0.6} date 08/23/17 09:08:26
;FORMAT={-:-/ absolute / inch / decimal}
FMAT,2
INCH,TZ
T1C0.020
T2C0.039
T3C0.051
T4C0.059
T5C0.126
T6C0.118
%
G90
G05
M72
T1
X3.9249Y-2.3013
X4.1465Y-4.2248
X4.2307Y-4.5448
X4.3365Y-4.3748
X4.4615Y-3.5698
X4.7199Y-2.3013
X4.7665Y-3.5898
X4.8065Y-4.5448
X4.8115Y-3.2548
X4.8115Y-3.6798
X4.8165Y-3.1498
X4.8165Y-4.2898
X4.8515Y-3.3598
X4.8565Y-3.7598
X4.8615Y-3.9998
X4.8865Y-5.0948
X4.9165Y-5.4448
X4.9215Y-2.7098
X4.9215Y-5.2948
X4.9715Y-4.2898
X4.9715Y-4.5448
X5.0265Y-4.9948
X5.0588Y-4.7556
X5.0765Y-3.1498
X5.0765Y-3.2498
X5.0765Y-3.3548
X5.1215Y-4.065
X5.1465Y-4.2898
X5.1465Y-4.5448
X5.1765Y-5.3398
X5.1765Y-5.4698
X5.2265Y-3.9848
X5.2665Y-2.1842
X5.2665Y-2.4148
X5.3215Y-4.0098
X5.3365Y-2.6548
X5.3515Y-2.3013
X5.3951Y-3.9006
X5.4115Y-2.6148
X5.4815Y-2.7098
X5.5115Y-2.7748
X5.5315Y-3.7498
X5.5365Y-3.4498
X5.5365Y-3.5498
X5.5365Y-3.6448
X5.5365Y-3.9448
X5.5386Y-3.8498
X5.5415Y-3.0498
X5.5415Y-3.1498
X5.5415Y-3.2498
X5.5415Y-3.3498
X5.6315Y-2.5798
X5.6465Y-3.9998
X5.6715Y-3.1498
X5.6765Y-3.0448
X5.6765Y-3.2498
X5.6865Y-2.7848
X5.6915Y-3.6498
X5.7065Y-3.8398
X5.7265Y-3.3448
X5.7265Y-3.4498
X5.7365Y-3.5448
X5.7415Y-3.7498
X5.8165Y-2.5798
X5.8465Y-5.1598
X5.8515Y-2.8548
X5.9115Y-2.3013
X5.9165Y-5.1748
X5.9415Y-2.6348
X5.9815Y-4.9698
X6.1115Y-2.8548
X6.2465Y-4.9698
X6.2465Y-5.0298
X6.2515Y-3.6498
X6.3565Y-3.5448
X6.3615Y-3.4448
X6.3915Y-2.6748
X6.3915Y-3.1448
X6.4015Y-3.3498
X6.4115Y-3.9698
X6.4115Y-4.0148
X6.4165Y-3.9148
X6.4415Y-3.2421
X6.4715Y-2.3013
X6.4965Y-3.1448
X6.4965Y-3.3498
X6.4965Y-3.5448
X6.4965Y-3.6448
X6.5015Y-3.2448
X6.5015Y-3.4448
X6.5915Y-5.0248
X6.6015Y-4.9698
X6.6365Y-5.2098
X6.7415Y-4.89
X6.8466Y-4.8146
X6.8665Y-4.1998
X6.872Y-4.0591
X6.8915Y-4.5398
X6.9065Y-4.1548
X6.9115Y-4.2898
X6.9315Y-2.6898
X6.9565Y-4.6598
X6.9622Y-3.9681
X6.9865Y-3.3998
X6.9865Y-3.4998
X7.0065Y-2.2148
X7.0515Y-2.7848
X7.0515Y-2.9748
X7.0515Y-3.7798
X7.0515Y-4.5748
X7.1065Y-3.7298
X7.2715Y-4.2898
X7.2865Y-4.5148
T2
X4.048Y-2.9992
X4.048Y-3.5701
X4.0593Y-2.1148
X4.0593Y-2.3707
X4.1465Y-3.5701
X4.2365Y-2.1148
X4.2365Y-2.3707
X4.2449Y-2.9992
X4.2449Y-3.5701
X4.5865Y-2.8248
X4.5865Y-2.9248
X4.5865Y-3.0248
X4.5865Y-3.1248
X4.5865Y-3.2248
X4.5865Y-3.3248
X4.5865Y-3.4248
X4.5865Y-3.5248
X4.5865Y-3.6248
X4.5865Y-3.7248
X4.818Y-4.1344
X4.818Y-4.7052
X4.8293Y-2.1148
X4.8293Y-2.3707
X4.9165Y-4.7052
X5.0065Y-2.1148
X5.0065Y-2.3707
X5.0149Y-4.1344
X5.0149Y-4.7052
X5.1065Y-4.9148
X5.1065Y-5.1707
X5.2836Y-4.9148
X5.2836Y-5.1707
X5.2951Y-2.9006
X5.2951Y-3.0006
X5.2951Y-3.1006
X5.2951Y-3.2006
X5.2951Y-3.3006
X5.2951Y-3.4006
X5.2951Y-3.5006
X5.2951Y-3.6006
X5.2951Y-3.7006
X5.2951Y-3.8006
X5.2951Y-3.9006
X5.3951Y-2.9006
X5.3951Y-3.0006
X5.3951Y-3.1006
X5.3951Y-3.2006
X5.3951Y-3.3006
X5.3951Y-3.4006
X5.3951Y-3.5006
X5.3951Y-3.6006
X5.3951Y-3.7006
X5.3951Y-3.8006
X5.3951Y-3.9006
X5.4047Y-4.1344
X5.4047Y-4.7052
X5.416Y-2.1148
X5.416Y-2.3707
X5.5031Y-4.7052
X5.5931Y-2.1148
X5.5931Y-2.3707
X5.6015Y-4.1344
X5.6015Y-4.7052
X5.9914Y-4.1344
X5.9914Y-4.7052
X5.9965Y-5.3748
X5.9965Y-5.4748
X6.0026Y-2.1148
X6.0026Y-2.3707
X6.0898Y-4.7052
X6.0965Y-5.3748
X6.0965Y-5.4748
X6.1798Y-2.1148
X6.1798Y-2.3707
X6.1882Y-4.1344
X6.1882Y-4.7052
X6.1965Y-5.3748
X6.1965Y-5.4748
X6.2965Y-5.3748
X6.2965Y-5.4748
X6.3093Y-4.9089
X6.3093Y-5.1648
X6.3965Y-5.3748
X6.3965Y-5.4748
X6.4865Y-4.9089
X6.4865Y-5.1648
X6.4965Y-5.3748
X6.4965Y-5.4748
X6.578Y-4.1344
X6.578Y-4.7052
X6.5893Y-2.1148
X6.5893Y-2.3707
X6.5965Y-5.3748
X6.5965Y-5.4748
X6.6765Y-4.7052
X6.6947Y-2.9006
X6.6947Y-3.0006
X6.6947Y-3.1006
X6.6947Y-3.2006
X6.6947Y-3.3006
X6.6947Y-3.4006
X6.6947Y-3.5006
X6.6947Y-3.6006
X6.6947Y-3.7006
X6.6947Y-3.8006
X6.6947Y-3.9006
X6.6965Y-5.3748
X6.6965Y-5.4748
X6.7665Y-2.1148
X6.7665Y-2.3707
X6.7749Y-4.1344
X6.7749Y-4.7052
X6.7947Y-2.9006
X6.7947Y-3.0006
X6.7947Y-3.1006
X6.7947Y-3.2006
X6.7947Y-3.3006
X6.7947Y-3.4006
X6.7947Y-3.5006
X6.7947Y-3.6006
X6.7947Y-3.7006
X6.7947Y-3.8006
X6.7947Y-3.9006
X6.7965Y-5.3748
X6.7965Y-5.4748
X6.8965Y-5.3748
X6.8965Y-5.4748
X7.3065Y-2.1648
X7.3065Y-2.2648
X7.3065Y-2.3648
X7.328Y-2.9992
X7.328Y-3.5701
X7.4065Y-2.1648
X7.4065Y-2.2648
X7.4065Y-2.3648
X7.4265Y-3.5701
X7.5249Y-2.9992
X7.5249Y-3.5701
T3
X4.0565Y-5.0995
X4.0565Y-5.0995
X4.4315Y-5.0978
X4.4315Y-5.0995
X7.1752Y-5.0995
X7.1765Y-5.0997
X7.571Y-5.0995
X7.5715Y-5.0997
T4
X4.0565Y-4.6507
X4.0565Y-4.9775
X4.0565Y-5.2216
X4.0565Y-5.5483
X4.4315Y-4.6507
X4.4315Y-4.9775
X4.4315Y-5.2198
X4.4315Y-5.5466
X7.1752Y-4.6507
X7.1752Y-4.9775
X7.1765Y-5.2217
X7.1765Y-5.5485
X7.571Y-4.6507
X7.571Y-4.9775
X7.5715Y-5.2217
X7.5715Y-5.5485
T5
X4.1535Y-2.6378
X5.7874Y-4.9606
X6.6831Y-2.6378
T6
X4.0565Y-4.8444
X4.0565Y-5.3546
X4.4315Y-4.8444
X4.4315Y-5.3529
X7.1752Y-4.8444
X7.1765Y-5.3548
X7.571Y-4.8444
X7.5715Y-5.3548
T4
X3.9299Y-3.2531G85X3.9299Y-3.2965
G05
X4.363Y-3.2531G85X4.363Y-3.2965
G05
X4.6999Y-4.3883G85X4.6999Y-4.4316
G05
X5.133Y-4.3883G85X5.133Y-4.4316
G05
X5.2866Y-4.3883G85X5.2866Y-4.4316
G05
X5.7197Y-4.3883G85X5.7197Y-4.4316
G05
X5.8733Y-4.3883G85X5.8733Y-4.4316
G05
X6.3063Y-4.3883G85X6.3063Y-4.4316
G05
X6.4599Y-4.3883G85X6.4599Y-4.4316
G05
X6.893Y-4.3883G85X6.893Y-4.4316
G05
X7.2099Y-3.2531G85X7.2099Y-3.2965
G05
X7.643Y-3.2531G85X7.643Y-3.2965
G05
T0
M30
