G04 #@! TF.FileFunction,Legend,Top*
%FSLAX46Y46*%
G04 Gerber Fmt 4.6, Leading zero omitted, Abs format (unit mm)*
G04 Created by KiCad (PCBNEW 4.0.6) date 08/23/17 08:58:04*
%MOMM*%
%LPD*%
G01*
G04 APERTURE LIST*
%ADD10C,0.100000*%
%ADD11C,0.150000*%
%ADD12C,0.120000*%
G04 APERTURE END LIST*
D10*
D11*
X218088100Y-100556400D02*
X218088100Y-42136400D01*
X213008100Y-100556400D02*
X213008100Y-44676400D01*
X218088100Y-100556400D02*
X213008100Y-100556400D01*
X218088100Y-42136400D02*
X215548100Y-42136400D01*
X214278100Y-41856400D02*
X212728100Y-41856400D01*
X215548100Y-42136400D02*
X215548100Y-44676400D01*
X215548100Y-44676400D02*
X213008100Y-44676400D01*
X212728100Y-41856400D02*
X212728100Y-43406400D01*
X169828100Y-100556400D02*
X169828100Y-42136400D01*
X164748100Y-100556400D02*
X164748100Y-44676400D01*
X169828100Y-100556400D02*
X164748100Y-100556400D01*
X169828100Y-42136400D02*
X167288100Y-42136400D01*
X166018100Y-41856400D02*
X164468100Y-41856400D01*
X167288100Y-42136400D02*
X167288100Y-44676400D01*
X167288100Y-44676400D02*
X164748100Y-44676400D01*
X164468100Y-41856400D02*
X164468100Y-43406400D01*
D12*
X233510100Y-83647105D02*
X234210100Y-83647105D01*
X234210100Y-84847105D02*
X233510100Y-84847105D01*
X233510100Y-79482400D02*
X234210100Y-79482400D01*
X234210100Y-80682400D02*
X233510100Y-80682400D01*
X233510100Y-90404398D02*
X234210100Y-90404398D01*
X234210100Y-91604398D02*
X233510100Y-91604398D01*
X227479100Y-102145400D02*
X226779100Y-102145400D01*
X226779100Y-100945400D02*
X227479100Y-100945400D01*
X196664100Y-90414400D02*
X195964100Y-90414400D01*
X195964100Y-89214400D02*
X196664100Y-89214400D01*
X201855100Y-87703400D02*
X201855100Y-85833400D01*
X201855100Y-80843400D02*
X201855100Y-82713400D01*
X193475100Y-80083400D02*
X193475100Y-82713400D01*
X193475100Y-88463400D02*
X193475100Y-85833400D01*
X193475100Y-80083400D02*
X201095100Y-80083400D01*
X201095100Y-80083400D02*
X201855100Y-80843400D01*
X201855100Y-87703400D02*
X201095100Y-88463400D01*
X201095100Y-88463400D02*
X193475100Y-88463400D01*
X192220100Y-78292400D02*
X192920100Y-78292400D01*
X192920100Y-79492400D02*
X192220100Y-79492400D01*
X194982100Y-99340400D02*
X194982100Y-97470400D01*
X194982100Y-92480400D02*
X194982100Y-94350400D01*
X186602100Y-91720400D02*
X186602100Y-94350400D01*
X186602100Y-100100400D02*
X186602100Y-97470400D01*
X186602100Y-91720400D02*
X194222100Y-91720400D01*
X194222100Y-91720400D02*
X194982100Y-92480400D01*
X194982100Y-99340400D02*
X194222100Y-100100400D01*
X194222100Y-100100400D02*
X186602100Y-100100400D01*
X198984100Y-91830400D02*
X197284100Y-91830400D01*
X197284100Y-91830400D02*
X197284100Y-94980400D01*
X198984100Y-91830400D02*
X198984100Y-94980400D01*
X199008100Y-98696400D02*
X199008100Y-97696400D01*
X197308100Y-97696400D02*
X197308100Y-98696400D01*
X187752100Y-78726400D02*
X188752100Y-78726400D01*
X188752100Y-77026400D02*
X187752100Y-77026400D01*
D11*
X169378595Y-36132400D02*
G75*
G03X169378595Y-36132400I-2358495J0D01*
G01*
X162770100Y-39882400D02*
X162770100Y-32382400D01*
X162770100Y-32382400D02*
X171270100Y-32382400D01*
X171270100Y-32382400D02*
X171270100Y-39882400D01*
X171270100Y-39882400D02*
X162770100Y-39882400D01*
D12*
X236147910Y-55733400D02*
X236847910Y-55733400D01*
X236847910Y-56933400D02*
X236147910Y-56933400D01*
X236050100Y-65766400D02*
X236750100Y-65766400D01*
X236750100Y-66966400D02*
X236050100Y-66966400D01*
X236050100Y-58400400D02*
X236750100Y-58400400D01*
X236750100Y-59600400D02*
X236050100Y-59600400D01*
X236050100Y-68306400D02*
X236750100Y-68306400D01*
X236750100Y-69506400D02*
X236050100Y-69506400D01*
D11*
X229494100Y-80551400D02*
X229369100Y-80551400D01*
X229494100Y-85201400D02*
X229269100Y-85201400D01*
X224244100Y-85201400D02*
X224469100Y-85201400D01*
X224244100Y-80551400D02*
X224469100Y-80551400D01*
X229494100Y-80551400D02*
X229494100Y-85201400D01*
X224244100Y-80551400D02*
X224244100Y-85201400D01*
X229369100Y-80551400D02*
X229369100Y-79201400D01*
X229854100Y-98792400D02*
X229854100Y-94392400D01*
X224329100Y-100367400D02*
X224329100Y-94392400D01*
D12*
X182278100Y-78770400D02*
X182278100Y-80030400D01*
X182278100Y-85590400D02*
X182278100Y-84330400D01*
X186038100Y-78770400D02*
X182278100Y-78770400D01*
X188288100Y-85590400D02*
X182278100Y-85590400D01*
X193018100Y-70316400D02*
X198218100Y-70316400D01*
X193018100Y-44856400D02*
X193018100Y-70316400D01*
X198218100Y-42256400D02*
X198218100Y-70316400D01*
X193018100Y-44856400D02*
X195618100Y-44856400D01*
X195618100Y-44856400D02*
X195618100Y-42256400D01*
X195618100Y-42256400D02*
X198218100Y-42256400D01*
X193018100Y-43586400D02*
X193018100Y-42256400D01*
X193018100Y-42256400D02*
X194348100Y-42256400D01*
X228578100Y-70316400D02*
X233778100Y-70316400D01*
X228578100Y-44856400D02*
X228578100Y-70316400D01*
X233778100Y-42256400D02*
X233778100Y-70316400D01*
X228578100Y-44856400D02*
X231178100Y-44856400D01*
X231178100Y-44856400D02*
X231178100Y-42256400D01*
X231178100Y-42256400D02*
X233778100Y-42256400D01*
X228578100Y-43586400D02*
X228578100Y-42256400D01*
X228578100Y-42256400D02*
X229908100Y-42256400D01*
D11*
X179978595Y-36132400D02*
G75*
G03X179978595Y-36132400I-2358495J0D01*
G01*
X173370100Y-39882400D02*
X173370100Y-32382400D01*
X173370100Y-32382400D02*
X181870100Y-32382400D01*
X181870100Y-32382400D02*
X181870100Y-39882400D01*
X181870100Y-39882400D02*
X173370100Y-39882400D01*
X214692005Y-40990781D02*
X214692005Y-39990781D01*
X215072958Y-39990781D01*
X215168196Y-40038400D01*
X215215815Y-40086019D01*
X215263434Y-40181257D01*
X215263434Y-40324114D01*
X215215815Y-40419352D01*
X215168196Y-40466971D01*
X215072958Y-40514590D01*
X214692005Y-40514590D01*
X215834862Y-40419352D02*
X215739624Y-40371733D01*
X215692005Y-40324114D01*
X215644386Y-40228876D01*
X215644386Y-40181257D01*
X215692005Y-40086019D01*
X215739624Y-40038400D01*
X215834862Y-39990781D01*
X216025339Y-39990781D01*
X216120577Y-40038400D01*
X216168196Y-40086019D01*
X216215815Y-40181257D01*
X216215815Y-40228876D01*
X216168196Y-40324114D01*
X216120577Y-40371733D01*
X216025339Y-40419352D01*
X215834862Y-40419352D01*
X215739624Y-40466971D01*
X215692005Y-40514590D01*
X215644386Y-40609829D01*
X215644386Y-40800305D01*
X215692005Y-40895543D01*
X215739624Y-40943162D01*
X215834862Y-40990781D01*
X216025339Y-40990781D01*
X216120577Y-40943162D01*
X216168196Y-40895543D01*
X216215815Y-40800305D01*
X216215815Y-40609829D01*
X216168196Y-40514590D01*
X216120577Y-40466971D01*
X216025339Y-40419352D01*
X165280005Y-38758781D02*
X165280005Y-37758781D01*
X165660958Y-37758781D01*
X165756196Y-37806400D01*
X165803815Y-37854019D01*
X165851434Y-37949257D01*
X165851434Y-38092114D01*
X165803815Y-38187352D01*
X165756196Y-38234971D01*
X165660958Y-38282590D01*
X165280005Y-38282590D01*
X166327624Y-38758781D02*
X166518100Y-38758781D01*
X166613339Y-38711162D01*
X166660958Y-38663543D01*
X166756196Y-38520686D01*
X166803815Y-38330210D01*
X166803815Y-37949257D01*
X166756196Y-37854019D01*
X166708577Y-37806400D01*
X166613339Y-37758781D01*
X166422862Y-37758781D01*
X166327624Y-37806400D01*
X166280005Y-37854019D01*
X166232386Y-37949257D01*
X166232386Y-38187352D01*
X166280005Y-38282590D01*
X166327624Y-38330210D01*
X166422862Y-38377829D01*
X166613339Y-38377829D01*
X166708577Y-38330210D01*
X166756196Y-38282590D01*
X166803815Y-38187352D01*
X233217243Y-86027543D02*
X233169624Y-86075162D01*
X233026767Y-86122781D01*
X232931529Y-86122781D01*
X232788671Y-86075162D01*
X232693433Y-85979924D01*
X232645814Y-85884686D01*
X232598195Y-85694210D01*
X232598195Y-85551352D01*
X232645814Y-85360876D01*
X232693433Y-85265638D01*
X232788671Y-85170400D01*
X232931529Y-85122781D01*
X233026767Y-85122781D01*
X233169624Y-85170400D01*
X233217243Y-85218019D01*
X233598195Y-85218019D02*
X233645814Y-85170400D01*
X233741052Y-85122781D01*
X233979148Y-85122781D01*
X234074386Y-85170400D01*
X234122005Y-85218019D01*
X234169624Y-85313257D01*
X234169624Y-85408495D01*
X234122005Y-85551352D01*
X233550576Y-86122781D01*
X234169624Y-86122781D01*
X235026767Y-85122781D02*
X234836290Y-85122781D01*
X234741052Y-85170400D01*
X234693433Y-85218019D01*
X234598195Y-85360876D01*
X234550576Y-85551352D01*
X234550576Y-85932305D01*
X234598195Y-86027543D01*
X234645814Y-86075162D01*
X234741052Y-86122781D01*
X234931529Y-86122781D01*
X235026767Y-86075162D01*
X235074386Y-86027543D01*
X235122005Y-85932305D01*
X235122005Y-85694210D01*
X235074386Y-85598971D01*
X235026767Y-85551352D01*
X234931529Y-85503733D01*
X234741052Y-85503733D01*
X234645814Y-85551352D01*
X234598195Y-85598971D01*
X234550576Y-85694210D01*
X233217243Y-81963543D02*
X233169624Y-82011162D01*
X233026767Y-82058781D01*
X232931529Y-82058781D01*
X232788671Y-82011162D01*
X232693433Y-81915924D01*
X232645814Y-81820686D01*
X232598195Y-81630210D01*
X232598195Y-81487352D01*
X232645814Y-81296876D01*
X232693433Y-81201638D01*
X232788671Y-81106400D01*
X232931529Y-81058781D01*
X233026767Y-81058781D01*
X233169624Y-81106400D01*
X233217243Y-81154019D01*
X233598195Y-81154019D02*
X233645814Y-81106400D01*
X233741052Y-81058781D01*
X233979148Y-81058781D01*
X234074386Y-81106400D01*
X234122005Y-81154019D01*
X234169624Y-81249257D01*
X234169624Y-81344495D01*
X234122005Y-81487352D01*
X233550576Y-82058781D01*
X234169624Y-82058781D01*
X234502957Y-81058781D02*
X235169624Y-81058781D01*
X234741052Y-82058781D01*
X233217243Y-93393541D02*
X233169624Y-93441160D01*
X233026767Y-93488779D01*
X232931529Y-93488779D01*
X232788671Y-93441160D01*
X232693433Y-93345922D01*
X232645814Y-93250684D01*
X232598195Y-93060208D01*
X232598195Y-92917350D01*
X232645814Y-92726874D01*
X232693433Y-92631636D01*
X232788671Y-92536398D01*
X232931529Y-92488779D01*
X233026767Y-92488779D01*
X233169624Y-92536398D01*
X233217243Y-92584017D01*
X233598195Y-92584017D02*
X233645814Y-92536398D01*
X233741052Y-92488779D01*
X233979148Y-92488779D01*
X234074386Y-92536398D01*
X234122005Y-92584017D01*
X234169624Y-92679255D01*
X234169624Y-92774493D01*
X234122005Y-92917350D01*
X233550576Y-93488779D01*
X234169624Y-93488779D01*
X234741052Y-92917350D02*
X234645814Y-92869731D01*
X234598195Y-92822112D01*
X234550576Y-92726874D01*
X234550576Y-92679255D01*
X234598195Y-92584017D01*
X234645814Y-92536398D01*
X234741052Y-92488779D01*
X234931529Y-92488779D01*
X235026767Y-92536398D01*
X235074386Y-92584017D01*
X235122005Y-92679255D01*
X235122005Y-92726874D01*
X235074386Y-92822112D01*
X235026767Y-92869731D01*
X234931529Y-92917350D01*
X234741052Y-92917350D01*
X234645814Y-92964969D01*
X234598195Y-93012588D01*
X234550576Y-93107827D01*
X234550576Y-93298303D01*
X234598195Y-93393541D01*
X234645814Y-93441160D01*
X234741052Y-93488779D01*
X234931529Y-93488779D01*
X235026767Y-93441160D01*
X235074386Y-93393541D01*
X235122005Y-93298303D01*
X235122005Y-93107827D01*
X235074386Y-93012588D01*
X235026767Y-92964969D01*
X234931529Y-92917350D01*
X226486243Y-103299543D02*
X226438624Y-103347162D01*
X226295767Y-103394781D01*
X226200529Y-103394781D01*
X226057671Y-103347162D01*
X225962433Y-103251924D01*
X225914814Y-103156686D01*
X225867195Y-102966210D01*
X225867195Y-102823352D01*
X225914814Y-102632876D01*
X225962433Y-102537638D01*
X226057671Y-102442400D01*
X226200529Y-102394781D01*
X226295767Y-102394781D01*
X226438624Y-102442400D01*
X226486243Y-102490019D01*
X226867195Y-102490019D02*
X226914814Y-102442400D01*
X227010052Y-102394781D01*
X227248148Y-102394781D01*
X227343386Y-102442400D01*
X227391005Y-102490019D01*
X227438624Y-102585257D01*
X227438624Y-102680495D01*
X227391005Y-102823352D01*
X226819576Y-103394781D01*
X227438624Y-103394781D01*
X227914814Y-103394781D02*
X228105290Y-103394781D01*
X228200529Y-103347162D01*
X228248148Y-103299543D01*
X228343386Y-103156686D01*
X228391005Y-102966210D01*
X228391005Y-102585257D01*
X228343386Y-102490019D01*
X228295767Y-102442400D01*
X228200529Y-102394781D01*
X228010052Y-102394781D01*
X227914814Y-102442400D01*
X227867195Y-102490019D01*
X227819576Y-102585257D01*
X227819576Y-102823352D01*
X227867195Y-102918590D01*
X227914814Y-102966210D01*
X228010052Y-103013829D01*
X228200529Y-103013829D01*
X228295767Y-102966210D01*
X228343386Y-102918590D01*
X228391005Y-102823352D01*
X196737243Y-92743257D02*
X196784862Y-92790876D01*
X196832481Y-92933733D01*
X196832481Y-93028971D01*
X196784862Y-93171829D01*
X196689624Y-93267067D01*
X196594386Y-93314686D01*
X196403910Y-93362305D01*
X196261052Y-93362305D01*
X196070576Y-93314686D01*
X195975338Y-93267067D01*
X195880100Y-93171829D01*
X195832481Y-93028971D01*
X195832481Y-92933733D01*
X195880100Y-92790876D01*
X195927719Y-92743257D01*
X195832481Y-92409924D02*
X195832481Y-91790876D01*
X196213433Y-92124210D01*
X196213433Y-91981352D01*
X196261052Y-91886114D01*
X196308671Y-91838495D01*
X196403910Y-91790876D01*
X196642005Y-91790876D01*
X196737243Y-91838495D01*
X196784862Y-91886114D01*
X196832481Y-91981352D01*
X196832481Y-92267067D01*
X196784862Y-92362305D01*
X196737243Y-92409924D01*
X195832481Y-91171829D02*
X195832481Y-91076590D01*
X195880100Y-90981352D01*
X195927719Y-90933733D01*
X196022957Y-90886114D01*
X196213433Y-90838495D01*
X196451529Y-90838495D01*
X196642005Y-90886114D01*
X196737243Y-90933733D01*
X196784862Y-90981352D01*
X196832481Y-91076590D01*
X196832481Y-91171829D01*
X196784862Y-91267067D01*
X196737243Y-91314686D01*
X196642005Y-91362305D01*
X196451529Y-91409924D01*
X196213433Y-91409924D01*
X196022957Y-91362305D01*
X195927719Y-91314686D01*
X195880100Y-91267067D01*
X195832481Y-91171829D01*
X197022243Y-79180543D02*
X196974624Y-79228162D01*
X196831767Y-79275781D01*
X196736529Y-79275781D01*
X196593671Y-79228162D01*
X196498433Y-79132924D01*
X196450814Y-79037686D01*
X196403195Y-78847210D01*
X196403195Y-78704352D01*
X196450814Y-78513876D01*
X196498433Y-78418638D01*
X196593671Y-78323400D01*
X196736529Y-78275781D01*
X196831767Y-78275781D01*
X196974624Y-78323400D01*
X197022243Y-78371019D01*
X197355576Y-78275781D02*
X197974624Y-78275781D01*
X197641290Y-78656733D01*
X197784148Y-78656733D01*
X197879386Y-78704352D01*
X197927005Y-78751971D01*
X197974624Y-78847210D01*
X197974624Y-79085305D01*
X197927005Y-79180543D01*
X197879386Y-79228162D01*
X197784148Y-79275781D01*
X197498433Y-79275781D01*
X197403195Y-79228162D01*
X197355576Y-79180543D01*
X198927005Y-79275781D02*
X198355576Y-79275781D01*
X198641290Y-79275781D02*
X198641290Y-78275781D01*
X198546052Y-78418638D01*
X198450814Y-78513876D01*
X198355576Y-78561495D01*
X202004148Y-80494829D02*
X202766053Y-80494829D01*
X202385101Y-80875781D02*
X202385101Y-80113876D01*
X191927243Y-77999543D02*
X191879624Y-78047162D01*
X191736767Y-78094781D01*
X191641529Y-78094781D01*
X191498671Y-78047162D01*
X191403433Y-77951924D01*
X191355814Y-77856686D01*
X191308195Y-77666210D01*
X191308195Y-77523352D01*
X191355814Y-77332876D01*
X191403433Y-77237638D01*
X191498671Y-77142400D01*
X191641529Y-77094781D01*
X191736767Y-77094781D01*
X191879624Y-77142400D01*
X191927243Y-77190019D01*
X192260576Y-77094781D02*
X192879624Y-77094781D01*
X192546290Y-77475733D01*
X192689148Y-77475733D01*
X192784386Y-77523352D01*
X192832005Y-77570971D01*
X192879624Y-77666210D01*
X192879624Y-77904305D01*
X192832005Y-77999543D01*
X192784386Y-78047162D01*
X192689148Y-78094781D01*
X192403433Y-78094781D01*
X192308195Y-78047162D01*
X192260576Y-77999543D01*
X193260576Y-77190019D02*
X193308195Y-77142400D01*
X193403433Y-77094781D01*
X193641529Y-77094781D01*
X193736767Y-77142400D01*
X193784386Y-77190019D01*
X193832005Y-77285257D01*
X193832005Y-77380495D01*
X193784386Y-77523352D01*
X193212957Y-78094781D01*
X193832005Y-78094781D01*
X188879243Y-91441543D02*
X188831624Y-91489162D01*
X188688767Y-91536781D01*
X188593529Y-91536781D01*
X188450671Y-91489162D01*
X188355433Y-91393924D01*
X188307814Y-91298686D01*
X188260195Y-91108210D01*
X188260195Y-90965352D01*
X188307814Y-90774876D01*
X188355433Y-90679638D01*
X188450671Y-90584400D01*
X188593529Y-90536781D01*
X188688767Y-90536781D01*
X188831624Y-90584400D01*
X188879243Y-90632019D01*
X189212576Y-90536781D02*
X189831624Y-90536781D01*
X189498290Y-90917733D01*
X189641148Y-90917733D01*
X189736386Y-90965352D01*
X189784005Y-91012971D01*
X189831624Y-91108210D01*
X189831624Y-91346305D01*
X189784005Y-91441543D01*
X189736386Y-91489162D01*
X189641148Y-91536781D01*
X189355433Y-91536781D01*
X189260195Y-91489162D01*
X189212576Y-91441543D01*
X190164957Y-90536781D02*
X190784005Y-90536781D01*
X190450671Y-90917733D01*
X190593529Y-90917733D01*
X190688767Y-90965352D01*
X190736386Y-91012971D01*
X190784005Y-91108210D01*
X190784005Y-91346305D01*
X190736386Y-91441543D01*
X190688767Y-91489162D01*
X190593529Y-91536781D01*
X190307814Y-91536781D01*
X190212576Y-91489162D01*
X190164957Y-91441543D01*
X195131148Y-92131829D02*
X195893053Y-92131829D01*
X195512101Y-92512781D02*
X195512101Y-91750876D01*
X200896481Y-94362495D02*
X199896481Y-94362495D01*
X199896481Y-94124400D01*
X199944100Y-93981542D01*
X200039338Y-93886304D01*
X200134576Y-93838685D01*
X200325052Y-93791066D01*
X200467910Y-93791066D01*
X200658386Y-93838685D01*
X200753624Y-93886304D01*
X200848862Y-93981542D01*
X200896481Y-94124400D01*
X200896481Y-94362495D01*
X199896481Y-92886304D02*
X199896481Y-93362495D01*
X200372671Y-93410114D01*
X200325052Y-93362495D01*
X200277433Y-93267257D01*
X200277433Y-93029161D01*
X200325052Y-92933923D01*
X200372671Y-92886304D01*
X200467910Y-92838685D01*
X200706005Y-92838685D01*
X200801243Y-92886304D01*
X200848862Y-92933923D01*
X200896481Y-93029161D01*
X200896481Y-93267257D01*
X200848862Y-93362495D01*
X200801243Y-93410114D01*
X200360481Y-98363066D02*
X200360481Y-98839257D01*
X199360481Y-98839257D01*
X200360481Y-97505923D02*
X200360481Y-98077352D01*
X200360481Y-97791638D02*
X199360481Y-97791638D01*
X199503338Y-97886876D01*
X199598576Y-97982114D01*
X199646195Y-98077352D01*
X186815434Y-76804781D02*
X186339243Y-76804781D01*
X186339243Y-75804781D01*
X187101148Y-75900019D02*
X187148767Y-75852400D01*
X187244005Y-75804781D01*
X187482101Y-75804781D01*
X187577339Y-75852400D01*
X187624958Y-75900019D01*
X187672577Y-75995257D01*
X187672577Y-76090495D01*
X187624958Y-76233352D01*
X187053529Y-76804781D01*
X187672577Y-76804781D01*
X162222481Y-42906210D02*
X161222481Y-42906210D01*
X161222481Y-42525257D01*
X161270100Y-42430019D01*
X161317719Y-42382400D01*
X161412957Y-42334781D01*
X161555814Y-42334781D01*
X161651052Y-42382400D01*
X161698671Y-42430019D01*
X161746290Y-42525257D01*
X161746290Y-42906210D01*
X161222481Y-42001448D02*
X162222481Y-41763353D01*
X161508195Y-41572876D01*
X162222481Y-41382400D01*
X161222481Y-41144305D01*
X162222481Y-40191924D02*
X161746290Y-40525258D01*
X162222481Y-40763353D02*
X161222481Y-40763353D01*
X161222481Y-40382400D01*
X161270100Y-40287162D01*
X161317719Y-40239543D01*
X161412957Y-40191924D01*
X161555814Y-40191924D01*
X161651052Y-40239543D01*
X161698671Y-40287162D01*
X161746290Y-40382400D01*
X161746290Y-40763353D01*
X162317719Y-40001448D02*
X162317719Y-39239543D01*
X161698671Y-38668114D02*
X161746290Y-38525257D01*
X161793910Y-38477638D01*
X161889148Y-38430019D01*
X162032005Y-38430019D01*
X162127243Y-38477638D01*
X162174862Y-38525257D01*
X162222481Y-38620495D01*
X162222481Y-39001448D01*
X161222481Y-39001448D01*
X161222481Y-38668114D01*
X161270100Y-38572876D01*
X161317719Y-38525257D01*
X161412957Y-38477638D01*
X161508195Y-38477638D01*
X161603433Y-38525257D01*
X161651052Y-38572876D01*
X161698671Y-38668114D01*
X161698671Y-39001448D01*
X161222481Y-38001448D02*
X162032005Y-38001448D01*
X162127243Y-37953829D01*
X162174862Y-37906210D01*
X162222481Y-37810972D01*
X162222481Y-37620495D01*
X162174862Y-37525257D01*
X162127243Y-37477638D01*
X162032005Y-37430019D01*
X161222481Y-37430019D01*
X161222481Y-37096686D02*
X161222481Y-36525257D01*
X162222481Y-36810972D02*
X161222481Y-36810972D01*
X161222481Y-36334781D02*
X161222481Y-35763352D01*
X162222481Y-36049067D02*
X161222481Y-36049067D01*
X161222481Y-35239543D02*
X161222481Y-35049066D01*
X161270100Y-34953828D01*
X161365338Y-34858590D01*
X161555814Y-34810971D01*
X161889148Y-34810971D01*
X162079624Y-34858590D01*
X162174862Y-34953828D01*
X162222481Y-35049066D01*
X162222481Y-35239543D01*
X162174862Y-35334781D01*
X162079624Y-35430019D01*
X161889148Y-35477638D01*
X161555814Y-35477638D01*
X161365338Y-35430019D01*
X161270100Y-35334781D01*
X161222481Y-35239543D01*
X162222481Y-34382400D02*
X161222481Y-34382400D01*
X162222481Y-33810971D01*
X161222481Y-33810971D01*
X162222481Y-32810971D02*
X162222481Y-33382400D01*
X162222481Y-33096686D02*
X161222481Y-33096686D01*
X161365338Y-33191924D01*
X161460576Y-33287162D01*
X161508195Y-33382400D01*
X235884243Y-55515781D02*
X235550909Y-55039590D01*
X235312814Y-55515781D02*
X235312814Y-54515781D01*
X235693767Y-54515781D01*
X235789005Y-54563400D01*
X235836624Y-54611019D01*
X235884243Y-54706257D01*
X235884243Y-54849114D01*
X235836624Y-54944352D01*
X235789005Y-54991971D01*
X235693767Y-55039590D01*
X235312814Y-55039590D01*
X236789005Y-54515781D02*
X236312814Y-54515781D01*
X236265195Y-54991971D01*
X236312814Y-54944352D01*
X236408052Y-54896733D01*
X236646148Y-54896733D01*
X236741386Y-54944352D01*
X236789005Y-54991971D01*
X236836624Y-55087210D01*
X236836624Y-55325305D01*
X236789005Y-55420543D01*
X236741386Y-55468162D01*
X236646148Y-55515781D01*
X236408052Y-55515781D01*
X236312814Y-55468162D01*
X236265195Y-55420543D01*
X237789005Y-55515781D02*
X237217576Y-55515781D01*
X237503290Y-55515781D02*
X237503290Y-54515781D01*
X237408052Y-54658638D01*
X237312814Y-54753876D01*
X237217576Y-54801495D01*
X235757243Y-65568781D02*
X235423909Y-65092590D01*
X235185814Y-65568781D02*
X235185814Y-64568781D01*
X235566767Y-64568781D01*
X235662005Y-64616400D01*
X235709624Y-64664019D01*
X235757243Y-64759257D01*
X235757243Y-64902114D01*
X235709624Y-64997352D01*
X235662005Y-65044971D01*
X235566767Y-65092590D01*
X235185814Y-65092590D01*
X236662005Y-64568781D02*
X236185814Y-64568781D01*
X236138195Y-65044971D01*
X236185814Y-64997352D01*
X236281052Y-64949733D01*
X236519148Y-64949733D01*
X236614386Y-64997352D01*
X236662005Y-65044971D01*
X236709624Y-65140210D01*
X236709624Y-65378305D01*
X236662005Y-65473543D01*
X236614386Y-65521162D01*
X236519148Y-65568781D01*
X236281052Y-65568781D01*
X236185814Y-65521162D01*
X236138195Y-65473543D01*
X237090576Y-64664019D02*
X237138195Y-64616400D01*
X237233433Y-64568781D01*
X237471529Y-64568781D01*
X237566767Y-64616400D01*
X237614386Y-64664019D01*
X237662005Y-64759257D01*
X237662005Y-64854495D01*
X237614386Y-64997352D01*
X237042957Y-65568781D01*
X237662005Y-65568781D01*
X235757243Y-58182781D02*
X235423909Y-57706590D01*
X235185814Y-58182781D02*
X235185814Y-57182781D01*
X235566767Y-57182781D01*
X235662005Y-57230400D01*
X235709624Y-57278019D01*
X235757243Y-57373257D01*
X235757243Y-57516114D01*
X235709624Y-57611352D01*
X235662005Y-57658971D01*
X235566767Y-57706590D01*
X235185814Y-57706590D01*
X236662005Y-57182781D02*
X236185814Y-57182781D01*
X236138195Y-57658971D01*
X236185814Y-57611352D01*
X236281052Y-57563733D01*
X236519148Y-57563733D01*
X236614386Y-57611352D01*
X236662005Y-57658971D01*
X236709624Y-57754210D01*
X236709624Y-57992305D01*
X236662005Y-58087543D01*
X236614386Y-58135162D01*
X236519148Y-58182781D01*
X236281052Y-58182781D01*
X236185814Y-58135162D01*
X236138195Y-58087543D01*
X237042957Y-57182781D02*
X237662005Y-57182781D01*
X237328671Y-57563733D01*
X237471529Y-57563733D01*
X237566767Y-57611352D01*
X237614386Y-57658971D01*
X237662005Y-57754210D01*
X237662005Y-57992305D01*
X237614386Y-58087543D01*
X237566767Y-58135162D01*
X237471529Y-58182781D01*
X237185814Y-58182781D01*
X237090576Y-58135162D01*
X237042957Y-58087543D01*
X235757243Y-68108781D02*
X235423909Y-67632590D01*
X235185814Y-68108781D02*
X235185814Y-67108781D01*
X235566767Y-67108781D01*
X235662005Y-67156400D01*
X235709624Y-67204019D01*
X235757243Y-67299257D01*
X235757243Y-67442114D01*
X235709624Y-67537352D01*
X235662005Y-67584971D01*
X235566767Y-67632590D01*
X235185814Y-67632590D01*
X236662005Y-67108781D02*
X236185814Y-67108781D01*
X236138195Y-67584971D01*
X236185814Y-67537352D01*
X236281052Y-67489733D01*
X236519148Y-67489733D01*
X236614386Y-67537352D01*
X236662005Y-67584971D01*
X236709624Y-67680210D01*
X236709624Y-67918305D01*
X236662005Y-68013543D01*
X236614386Y-68061162D01*
X236519148Y-68108781D01*
X236281052Y-68108781D01*
X236185814Y-68061162D01*
X236138195Y-68013543D01*
X237566767Y-67442114D02*
X237566767Y-68108781D01*
X237328671Y-67061162D02*
X237090576Y-67775448D01*
X237709624Y-67775448D01*
X229623481Y-86686305D02*
X230433005Y-86686305D01*
X230528243Y-86638686D01*
X230575862Y-86591067D01*
X230623481Y-86495829D01*
X230623481Y-86305352D01*
X230575862Y-86210114D01*
X230528243Y-86162495D01*
X230433005Y-86114876D01*
X229623481Y-86114876D01*
X230623481Y-85114876D02*
X230623481Y-85686305D01*
X230623481Y-85400591D02*
X229623481Y-85400591D01*
X229766338Y-85495829D01*
X229861576Y-85591067D01*
X229909195Y-85686305D01*
X222771481Y-100656305D02*
X223581005Y-100656305D01*
X223676243Y-100608686D01*
X223723862Y-100561067D01*
X223771481Y-100465829D01*
X223771481Y-100275352D01*
X223723862Y-100180114D01*
X223676243Y-100132495D01*
X223581005Y-100084876D01*
X222771481Y-100084876D01*
X222866719Y-99656305D02*
X222819100Y-99608686D01*
X222771481Y-99513448D01*
X222771481Y-99275352D01*
X222819100Y-99180114D01*
X222866719Y-99132495D01*
X222961957Y-99084876D01*
X223057195Y-99084876D01*
X223200052Y-99132495D01*
X223771481Y-99703924D01*
X223771481Y-99084876D01*
X183426195Y-86132781D02*
X183426195Y-86942305D01*
X183473814Y-87037543D01*
X183521433Y-87085162D01*
X183616671Y-87132781D01*
X183807148Y-87132781D01*
X183902386Y-87085162D01*
X183950005Y-87037543D01*
X183997624Y-86942305D01*
X183997624Y-86132781D01*
X184378576Y-86132781D02*
X184997624Y-86132781D01*
X184664290Y-86513733D01*
X184807148Y-86513733D01*
X184902386Y-86561352D01*
X184950005Y-86608971D01*
X184997624Y-86704210D01*
X184997624Y-86942305D01*
X184950005Y-87037543D01*
X184902386Y-87085162D01*
X184807148Y-87132781D01*
X184521433Y-87132781D01*
X184426195Y-87085162D01*
X184378576Y-87037543D01*
X195062577Y-70978781D02*
X195062577Y-71693067D01*
X195014957Y-71835924D01*
X194919719Y-71931162D01*
X194776862Y-71978781D01*
X194681624Y-71978781D01*
X195491148Y-71074019D02*
X195538767Y-71026400D01*
X195634005Y-70978781D01*
X195872101Y-70978781D01*
X195967339Y-71026400D01*
X196014958Y-71074019D01*
X196062577Y-71169257D01*
X196062577Y-71264495D01*
X196014958Y-71407352D01*
X195443529Y-71978781D01*
X196062577Y-71978781D01*
X196681624Y-70978781D02*
X196776863Y-70978781D01*
X196872101Y-71026400D01*
X196919720Y-71074019D01*
X196967339Y-71169257D01*
X197014958Y-71359733D01*
X197014958Y-71597829D01*
X196967339Y-71788305D01*
X196919720Y-71883543D01*
X196872101Y-71931162D01*
X196776863Y-71978781D01*
X196681624Y-71978781D01*
X196586386Y-71931162D01*
X196538767Y-71883543D01*
X196491148Y-71788305D01*
X196443529Y-71597829D01*
X196443529Y-71359733D01*
X196491148Y-71169257D01*
X196538767Y-71074019D01*
X196586386Y-71026400D01*
X196681624Y-70978781D01*
X230368577Y-40708781D02*
X230368577Y-41423067D01*
X230320957Y-41565924D01*
X230225719Y-41661162D01*
X230082862Y-41708781D01*
X229987624Y-41708781D01*
X230797148Y-40804019D02*
X230844767Y-40756400D01*
X230940005Y-40708781D01*
X231178101Y-40708781D01*
X231273339Y-40756400D01*
X231320958Y-40804019D01*
X231368577Y-40899257D01*
X231368577Y-40994495D01*
X231320958Y-41137352D01*
X230749529Y-41708781D01*
X231368577Y-41708781D01*
X232320958Y-41708781D02*
X231749529Y-41708781D01*
X232035243Y-41708781D02*
X232035243Y-40708781D01*
X231940005Y-40851638D01*
X231844767Y-40946876D01*
X231749529Y-40994495D01*
X172774862Y-47506210D02*
X172822481Y-47363353D01*
X172822481Y-47125257D01*
X172774862Y-47030019D01*
X172727243Y-46982400D01*
X172632005Y-46934781D01*
X172536767Y-46934781D01*
X172441529Y-46982400D01*
X172393910Y-47030019D01*
X172346290Y-47125257D01*
X172298671Y-47315734D01*
X172251052Y-47410972D01*
X172203433Y-47458591D01*
X172108195Y-47506210D01*
X172012957Y-47506210D01*
X171917719Y-47458591D01*
X171870100Y-47410972D01*
X171822481Y-47315734D01*
X171822481Y-47077638D01*
X171870100Y-46934781D01*
X172346290Y-46315734D02*
X172822481Y-46315734D01*
X171822481Y-46649067D02*
X172346290Y-46315734D01*
X171822481Y-45982400D01*
X172774862Y-45696686D02*
X172822481Y-45553829D01*
X172822481Y-45315733D01*
X172774862Y-45220495D01*
X172727243Y-45172876D01*
X172632005Y-45125257D01*
X172536767Y-45125257D01*
X172441529Y-45172876D01*
X172393910Y-45220495D01*
X172346290Y-45315733D01*
X172298671Y-45506210D01*
X172251052Y-45601448D01*
X172203433Y-45649067D01*
X172108195Y-45696686D01*
X172012957Y-45696686D01*
X171917719Y-45649067D01*
X171870100Y-45601448D01*
X171822481Y-45506210D01*
X171822481Y-45268114D01*
X171870100Y-45125257D01*
X172917719Y-44934781D02*
X172917719Y-44172876D01*
X172822481Y-43363352D02*
X172346290Y-43696686D01*
X172822481Y-43934781D02*
X171822481Y-43934781D01*
X171822481Y-43553828D01*
X171870100Y-43458590D01*
X171917719Y-43410971D01*
X172012957Y-43363352D01*
X172155814Y-43363352D01*
X172251052Y-43410971D01*
X172298671Y-43458590D01*
X172346290Y-43553828D01*
X172346290Y-43934781D01*
X172298671Y-42934781D02*
X172298671Y-42601447D01*
X172822481Y-42458590D02*
X172822481Y-42934781D01*
X171822481Y-42934781D01*
X171822481Y-42458590D01*
X172774862Y-42077638D02*
X172822481Y-41934781D01*
X172822481Y-41696685D01*
X172774862Y-41601447D01*
X172727243Y-41553828D01*
X172632005Y-41506209D01*
X172536767Y-41506209D01*
X172441529Y-41553828D01*
X172393910Y-41601447D01*
X172346290Y-41696685D01*
X172298671Y-41887162D01*
X172251052Y-41982400D01*
X172203433Y-42030019D01*
X172108195Y-42077638D01*
X172012957Y-42077638D01*
X171917719Y-42030019D01*
X171870100Y-41982400D01*
X171822481Y-41887162D01*
X171822481Y-41649066D01*
X171870100Y-41506209D01*
X172298671Y-41077638D02*
X172298671Y-40744304D01*
X172822481Y-40601447D02*
X172822481Y-41077638D01*
X171822481Y-41077638D01*
X171822481Y-40601447D01*
X171822481Y-40315733D02*
X171822481Y-39744304D01*
X172822481Y-40030019D02*
X171822481Y-40030019D01*
X172917719Y-39649066D02*
X172917719Y-38887161D01*
X172298671Y-38315732D02*
X172346290Y-38172875D01*
X172393910Y-38125256D01*
X172489148Y-38077637D01*
X172632005Y-38077637D01*
X172727243Y-38125256D01*
X172774862Y-38172875D01*
X172822481Y-38268113D01*
X172822481Y-38649066D01*
X171822481Y-38649066D01*
X171822481Y-38315732D01*
X171870100Y-38220494D01*
X171917719Y-38172875D01*
X172012957Y-38125256D01*
X172108195Y-38125256D01*
X172203433Y-38172875D01*
X172251052Y-38220494D01*
X172298671Y-38315732D01*
X172298671Y-38649066D01*
X171822481Y-37649066D02*
X172632005Y-37649066D01*
X172727243Y-37601447D01*
X172774862Y-37553828D01*
X172822481Y-37458590D01*
X172822481Y-37268113D01*
X172774862Y-37172875D01*
X172727243Y-37125256D01*
X172632005Y-37077637D01*
X171822481Y-37077637D01*
X171822481Y-36744304D02*
X171822481Y-36172875D01*
X172822481Y-36458590D02*
X171822481Y-36458590D01*
X171822481Y-35982399D02*
X171822481Y-35410970D01*
X172822481Y-35696685D02*
X171822481Y-35696685D01*
X171822481Y-34887161D02*
X171822481Y-34696684D01*
X171870100Y-34601446D01*
X171965338Y-34506208D01*
X172155814Y-34458589D01*
X172489148Y-34458589D01*
X172679624Y-34506208D01*
X172774862Y-34601446D01*
X172822481Y-34696684D01*
X172822481Y-34887161D01*
X172774862Y-34982399D01*
X172679624Y-35077637D01*
X172489148Y-35125256D01*
X172155814Y-35125256D01*
X171965338Y-35077637D01*
X171870100Y-34982399D01*
X171822481Y-34887161D01*
X172822481Y-34030018D02*
X171822481Y-34030018D01*
X172822481Y-33458589D01*
X171822481Y-33458589D01*
X172822481Y-32458589D02*
X172822481Y-33030018D01*
X172822481Y-32744304D02*
X171822481Y-32744304D01*
X171965338Y-32839542D01*
X172060576Y-32934780D01*
X172108195Y-33030018D01*
X162748672Y-109360971D02*
X162415338Y-109360971D01*
X162415338Y-109884781D02*
X162415338Y-108884781D01*
X162891529Y-108884781D01*
X163272481Y-109884781D02*
X163272481Y-108884781D01*
X163748671Y-109884781D02*
X163748671Y-108884781D01*
X163986766Y-108884781D01*
X164129624Y-108932400D01*
X164224862Y-109027638D01*
X164272481Y-109122876D01*
X164320100Y-109313352D01*
X164320100Y-109456210D01*
X164272481Y-109646686D01*
X164224862Y-109741924D01*
X164129624Y-109837162D01*
X163986766Y-109884781D01*
X163748671Y-109884781D01*
X165272481Y-109884781D02*
X164701052Y-109884781D01*
X164986766Y-109884781D02*
X164986766Y-108884781D01*
X164891528Y-109027638D01*
X164796290Y-109122876D01*
X164701052Y-109170495D01*
X242748672Y-34610971D02*
X242415338Y-34610971D01*
X242415338Y-35134781D02*
X242415338Y-34134781D01*
X242891529Y-34134781D01*
X243272481Y-35134781D02*
X243272481Y-34134781D01*
X243748671Y-35134781D02*
X243748671Y-34134781D01*
X243986766Y-34134781D01*
X244129624Y-34182400D01*
X244224862Y-34277638D01*
X244272481Y-34372876D01*
X244320100Y-34563352D01*
X244320100Y-34706210D01*
X244272481Y-34896686D01*
X244224862Y-34991924D01*
X244129624Y-35087162D01*
X243986766Y-35134781D01*
X243748671Y-35134781D01*
X244701052Y-34230019D02*
X244748671Y-34182400D01*
X244843909Y-34134781D01*
X245082005Y-34134781D01*
X245177243Y-34182400D01*
X245224862Y-34230019D01*
X245272481Y-34325257D01*
X245272481Y-34420495D01*
X245224862Y-34563352D01*
X244653433Y-35134781D01*
X245272481Y-35134781D01*
X243498672Y-110110971D02*
X243165338Y-110110971D01*
X243165338Y-110634781D02*
X243165338Y-109634781D01*
X243641529Y-109634781D01*
X244022481Y-110634781D02*
X244022481Y-109634781D01*
X244498671Y-110634781D02*
X244498671Y-109634781D01*
X244736766Y-109634781D01*
X244879624Y-109682400D01*
X244974862Y-109777638D01*
X245022481Y-109872876D01*
X245070100Y-110063352D01*
X245070100Y-110206210D01*
X245022481Y-110396686D01*
X244974862Y-110491924D01*
X244879624Y-110587162D01*
X244736766Y-110634781D01*
X244498671Y-110634781D01*
X245403433Y-109634781D02*
X246022481Y-109634781D01*
X245689147Y-110015733D01*
X245832005Y-110015733D01*
X245927243Y-110063352D01*
X245974862Y-110110971D01*
X246022481Y-110206210D01*
X246022481Y-110444305D01*
X245974862Y-110539543D01*
X245927243Y-110587162D01*
X245832005Y-110634781D01*
X245546290Y-110634781D01*
X245451052Y-110587162D01*
X245403433Y-110539543D01*
M02*
