G04 #@! TF.FileFunction,Copper,L1,Top,Signal*
%FSLAX46Y46*%
G04 Gerber Fmt 4.6, Leading zero omitted, Abs format (unit mm)*
G04 Created by KiCad (PCBNEW 4.0.6) date 08/23/17 08:58:04*
%MOMM*%
%LPD*%
G01*
G04 APERTURE LIST*
%ADD10C,0.100000*%
%ADD11R,1.727200X1.727200*%
%ADD12O,1.727200X1.727200*%
%ADD13R,1.200000X0.750000*%
%ADD14R,4.000000X2.500000*%
%ADD15R,1.000000X1.000000*%
%ADD16R,1.700000X1.700000*%
%ADD17O,1.700000X1.700000*%
%ADD18R,1.250000X1.500000*%
%ADD19R,1.500000X1.250000*%
%ADD20C,2.000000*%
%ADD21R,0.450000X1.450000*%
%ADD22R,0.450000X1.500000*%
%ADD23R,2.000000X3.800000*%
%ADD24R,2.000000X1.500000*%
%ADD25C,1.000000*%
%ADD26C,0.889000*%
%ADD27C,0.254000*%
%ADD28C,1.016000*%
%ADD29C,1.500000*%
G04 APERTURE END LIST*
D10*
D11*
X214278100Y-43406400D03*
D12*
X216818100Y-43406400D03*
X214278100Y-45946400D03*
X216818100Y-45946400D03*
X214278100Y-48486400D03*
X216818100Y-48486400D03*
X214278100Y-51026400D03*
X216818100Y-51026400D03*
X214278100Y-53566400D03*
X216818100Y-53566400D03*
X214278100Y-56106400D03*
X216818100Y-56106400D03*
X214278100Y-58646400D03*
X216818100Y-58646400D03*
X214278100Y-61186400D03*
X216818100Y-61186400D03*
X214278100Y-63726400D03*
X216818100Y-63726400D03*
X214278100Y-66266400D03*
X216818100Y-66266400D03*
X214278100Y-68806400D03*
X216818100Y-68806400D03*
X214278100Y-71346400D03*
X216818100Y-71346400D03*
X214278100Y-73886400D03*
X216818100Y-73886400D03*
X214278100Y-76426400D03*
X216818100Y-76426400D03*
X214278100Y-78966400D03*
X216818100Y-78966400D03*
X214278100Y-81506400D03*
X216818100Y-81506400D03*
X214278100Y-84046400D03*
X216818100Y-84046400D03*
X214278100Y-86586400D03*
X216818100Y-86586400D03*
X214278100Y-89126400D03*
X216818100Y-89126400D03*
X214278100Y-91666400D03*
X216818100Y-91666400D03*
X214278100Y-94206400D03*
X216818100Y-94206400D03*
X214278100Y-96746400D03*
X216818100Y-96746400D03*
X214278100Y-99286400D03*
X216818100Y-99286400D03*
D11*
X166018100Y-43406400D03*
D12*
X168558100Y-43406400D03*
X166018100Y-45946400D03*
X168558100Y-45946400D03*
X166018100Y-48486400D03*
X168558100Y-48486400D03*
X166018100Y-51026400D03*
X168558100Y-51026400D03*
X166018100Y-53566400D03*
X168558100Y-53566400D03*
X166018100Y-56106400D03*
X168558100Y-56106400D03*
X166018100Y-58646400D03*
X168558100Y-58646400D03*
X166018100Y-61186400D03*
X168558100Y-61186400D03*
X166018100Y-63726400D03*
X168558100Y-63726400D03*
X166018100Y-66266400D03*
X168558100Y-66266400D03*
X166018100Y-68806400D03*
X168558100Y-68806400D03*
X166018100Y-71346400D03*
X168558100Y-71346400D03*
X166018100Y-73886400D03*
X168558100Y-73886400D03*
X166018100Y-76426400D03*
X168558100Y-76426400D03*
X166018100Y-78966400D03*
X168558100Y-78966400D03*
X166018100Y-81506400D03*
X168558100Y-81506400D03*
X166018100Y-84046400D03*
X168558100Y-84046400D03*
X166018100Y-86586400D03*
X168558100Y-86586400D03*
X166018100Y-89126400D03*
X168558100Y-89126400D03*
X166018100Y-91666400D03*
X168558100Y-91666400D03*
X166018100Y-94206400D03*
X168558100Y-94206400D03*
X166018100Y-96746400D03*
X168558100Y-96746400D03*
X166018100Y-99286400D03*
X168558100Y-99286400D03*
D13*
X232910100Y-84247105D03*
X234810100Y-84247105D03*
X232910100Y-80082400D03*
X234810100Y-80082400D03*
X232910100Y-91004398D03*
X234810100Y-91004398D03*
X228079100Y-101545400D03*
X226179100Y-101545400D03*
X197264100Y-89814400D03*
X195364100Y-89814400D03*
D14*
X200715100Y-84273400D03*
X194615100Y-84273400D03*
D13*
X191620100Y-78892400D03*
X193520100Y-78892400D03*
D14*
X193842100Y-95910400D03*
X187742100Y-95910400D03*
D15*
X198134100Y-92480400D03*
X198134100Y-94980400D03*
D16*
X187886100Y-102434400D03*
D17*
X187886100Y-104974400D03*
X190426100Y-102434400D03*
X190426100Y-104974400D03*
X192966100Y-102434400D03*
X192966100Y-104974400D03*
X195506100Y-102434400D03*
X195506100Y-104974400D03*
X198046100Y-102434400D03*
X198046100Y-104974400D03*
D18*
X198158100Y-96946400D03*
X198158100Y-99446400D03*
D19*
X189502100Y-77876400D03*
X187002100Y-77876400D03*
D20*
X163770100Y-38382400D03*
X170270100Y-38382400D03*
X163770100Y-33882400D03*
X170270100Y-33882400D03*
D13*
X235547910Y-56333400D03*
X237447910Y-56333400D03*
X235450100Y-66366400D03*
X237350100Y-66366400D03*
X235450100Y-59000400D03*
X237350100Y-59000400D03*
X235450100Y-68906400D03*
X237350100Y-68906400D03*
D21*
X228819100Y-79926400D03*
X228169100Y-79926400D03*
X227519100Y-79926400D03*
X226869100Y-79926400D03*
X226219100Y-79926400D03*
X225569100Y-79926400D03*
X224919100Y-79926400D03*
X224919100Y-85826400D03*
X225569100Y-85826400D03*
X226219100Y-85826400D03*
X226869100Y-85826400D03*
X227519100Y-85826400D03*
X228169100Y-85826400D03*
X228819100Y-85826400D03*
D22*
X224854100Y-99542400D03*
X225504100Y-99542400D03*
X226154100Y-99542400D03*
X226804100Y-99542400D03*
X227454100Y-99542400D03*
X228104100Y-99542400D03*
X228754100Y-99542400D03*
X229404100Y-99542400D03*
X229404100Y-93642400D03*
X228754100Y-93642400D03*
X228104100Y-93642400D03*
X227454100Y-93642400D03*
X226804100Y-93642400D03*
X226154100Y-93642400D03*
X225504100Y-93642400D03*
X224854100Y-93642400D03*
D23*
X181038100Y-82180400D03*
D24*
X187338100Y-82180400D03*
X187338100Y-79880400D03*
X187338100Y-84480400D03*
D16*
X194348100Y-43586400D03*
D17*
X196888100Y-43586400D03*
X194348100Y-46126400D03*
X196888100Y-46126400D03*
X194348100Y-48666400D03*
X196888100Y-48666400D03*
X194348100Y-51206400D03*
X196888100Y-51206400D03*
X194348100Y-53746400D03*
X196888100Y-53746400D03*
X194348100Y-56286400D03*
X196888100Y-56286400D03*
X194348100Y-58826400D03*
X196888100Y-58826400D03*
X194348100Y-61366400D03*
X196888100Y-61366400D03*
X194348100Y-63906400D03*
X196888100Y-63906400D03*
X194348100Y-66446400D03*
X196888100Y-66446400D03*
X194348100Y-68986400D03*
X196888100Y-68986400D03*
D16*
X229908100Y-43586400D03*
D17*
X232448100Y-43586400D03*
X229908100Y-46126400D03*
X232448100Y-46126400D03*
X229908100Y-48666400D03*
X232448100Y-48666400D03*
X229908100Y-51206400D03*
X232448100Y-51206400D03*
X229908100Y-53746400D03*
X232448100Y-53746400D03*
X229908100Y-56286400D03*
X232448100Y-56286400D03*
X229908100Y-58826400D03*
X232448100Y-58826400D03*
X229908100Y-61366400D03*
X232448100Y-61366400D03*
X229908100Y-63906400D03*
X232448100Y-63906400D03*
X229908100Y-66446400D03*
X232448100Y-66446400D03*
X229908100Y-68986400D03*
X232448100Y-68986400D03*
D20*
X174370100Y-38382400D03*
X180870100Y-38382400D03*
X174370100Y-33882400D03*
X180870100Y-33882400D03*
D25*
X160420100Y-108732400D03*
X240420100Y-33982400D03*
X241170100Y-109482400D03*
D26*
X227570100Y-41182400D03*
X188570100Y-43782400D03*
X173170100Y-44782400D03*
X186997100Y-73224400D03*
X188570100Y-46126400D03*
X172170100Y-48582400D03*
X225844100Y-43332400D03*
X239677300Y-105261400D03*
X242674500Y-103966000D03*
X245163700Y-94974400D03*
X245163700Y-85576400D03*
X245265300Y-76330800D03*
X245392300Y-59795400D03*
X244757300Y-43412400D03*
X239753500Y-38865800D03*
X233454300Y-33862000D03*
X221414700Y-33531800D03*
X209248100Y-33531800D03*
X195913100Y-33379400D03*
X186413500Y-33531800D03*
X235181500Y-110544600D03*
X229491900Y-110671600D03*
X216766500Y-110214400D03*
X207190700Y-109884200D03*
X198783300Y-109935000D03*
X191366500Y-109884200D03*
X180622300Y-109884200D03*
X173078500Y-109833400D03*
X166372900Y-107268000D03*
X219382100Y-95195400D03*
X236400100Y-88210400D03*
X225224100Y-96465400D03*
X222303100Y-94941400D03*
X193370100Y-38382400D03*
X183170100Y-38382400D03*
X160820100Y-51968400D03*
X163106100Y-43332400D03*
X183426100Y-76352400D03*
X199428100Y-77622400D03*
X226113100Y-75383400D03*
X223192100Y-82749400D03*
X228272100Y-83765400D03*
X227098338Y-70703782D03*
X226494100Y-73859400D03*
X221922100Y-75256400D03*
X231447100Y-91004400D03*
X231193100Y-99513400D03*
X181140100Y-91338400D03*
X181140100Y-91338400D03*
X193842100Y-92610400D03*
X234107636Y-101826343D03*
X230939100Y-102307400D03*
X236460012Y-94991925D03*
X233435016Y-96958047D03*
X209349100Y-46173400D03*
X207063100Y-48713400D03*
X205031100Y-51253400D03*
X204269100Y-53793400D03*
X173916100Y-66366400D03*
X177345100Y-61159400D03*
X175567100Y-62429400D03*
X236019100Y-49856400D03*
X239236811Y-51138920D03*
X234754387Y-99627391D03*
X240111465Y-53850345D03*
X234107636Y-100683330D03*
X236781100Y-92909400D03*
X234495100Y-94179400D03*
D27*
X228819100Y-79926400D02*
X231066100Y-79926400D01*
X231066100Y-79926400D02*
X232754100Y-79926400D01*
X229908100Y-43586400D02*
X229908100Y-44304518D01*
X229908100Y-44304518D02*
X231139101Y-45535519D01*
X231139101Y-45535519D02*
X231139101Y-79853399D01*
X231139101Y-79853399D02*
X231066100Y-79926400D01*
X232754100Y-79926400D02*
X232910100Y-80082400D01*
D28*
X194348100Y-43586400D02*
X194348100Y-41720400D01*
X194348100Y-41720400D02*
X192100091Y-39472391D01*
X192100091Y-39472391D02*
X192100091Y-37856345D01*
X192100091Y-37856345D02*
X192844045Y-37112391D01*
X192844045Y-37112391D02*
X223500091Y-37112391D01*
X223500091Y-37112391D02*
X227570100Y-41182400D01*
X166018100Y-45946400D02*
X168558100Y-45946400D01*
X188570100Y-43782400D02*
X194152100Y-43782400D01*
X194152100Y-43782400D02*
X194348100Y-43586400D01*
X168558100Y-45946400D02*
X172006100Y-45946400D01*
X172006100Y-45946400D02*
X173170100Y-44782400D01*
D27*
X226179100Y-101545400D02*
X226179100Y-100916400D01*
X226179100Y-100916400D02*
X226033901Y-100771201D01*
X226033901Y-100771201D02*
X226033901Y-100673401D01*
X232425100Y-85826400D02*
X232910100Y-85341400D01*
X232910100Y-85341400D02*
X232910100Y-84247105D01*
X228819100Y-85826400D02*
X232425100Y-85826400D01*
D28*
X186997100Y-73224400D02*
X187441599Y-72779901D01*
X187441599Y-72779901D02*
X196723905Y-72779901D01*
X196723905Y-72779901D02*
X209222100Y-85278096D01*
X209222100Y-102180400D02*
X220467078Y-102180400D01*
X209222100Y-85278096D02*
X209222100Y-102180400D01*
X220467078Y-102180400D02*
X223740089Y-98907389D01*
D27*
X224854100Y-99542400D02*
X224375100Y-99542400D01*
X224375100Y-99542400D02*
X223740089Y-98907389D01*
X223740089Y-98907389D02*
X223740089Y-87984411D01*
X223740089Y-87984411D02*
X224919100Y-86805400D01*
X224919100Y-86805400D02*
X224919100Y-85826400D01*
X224854100Y-99542400D02*
X224854100Y-100553202D01*
X224854100Y-100553202D02*
X224974299Y-100673401D01*
X224974299Y-100673401D02*
X226033901Y-100673401D01*
X226033901Y-100673401D02*
X226154100Y-100553202D01*
X226154100Y-100553202D02*
X226154100Y-100546400D01*
X226154100Y-100546400D02*
X226154100Y-99542400D01*
X224919100Y-85826400D02*
X224919100Y-84847400D01*
X228698901Y-84720399D02*
X228819100Y-84840598D01*
X224919100Y-84847400D02*
X225046101Y-84720399D01*
X225046101Y-84720399D02*
X228698901Y-84720399D01*
X228819100Y-84840598D02*
X228819100Y-84847400D01*
X228819100Y-84847400D02*
X228819100Y-85826400D01*
D28*
X186997100Y-73224400D02*
X186997100Y-77871400D01*
X186997100Y-77871400D02*
X187002100Y-77876400D01*
X225844100Y-43332400D02*
X228638100Y-46126400D01*
X228638100Y-46126400D02*
X229908100Y-46126400D01*
X166018100Y-48486400D02*
X168558100Y-48486400D01*
X188570100Y-46126400D02*
X194348100Y-46126400D01*
X168558100Y-48486400D02*
X172074100Y-48486400D01*
X172074100Y-48486400D02*
X172170100Y-48582400D01*
D27*
X187002100Y-77876400D02*
X187279982Y-77876400D01*
X195110100Y-46126400D02*
X194348100Y-46126400D01*
X166018100Y-51026400D02*
X167239414Y-51026400D01*
X167239414Y-51026400D02*
X168558100Y-51026400D01*
X158778311Y-38874189D02*
X162770101Y-34882399D01*
X158778311Y-46326611D02*
X158778311Y-38874189D01*
X166018100Y-53566400D02*
X158778311Y-46326611D01*
X162770101Y-34882399D02*
X163770100Y-33882400D01*
X163770100Y-33882400D02*
X170270100Y-33882400D01*
X180870100Y-33882400D02*
X182284313Y-33882400D01*
X182284313Y-33882400D02*
X184059110Y-35657197D01*
X184059110Y-35657197D02*
X184059110Y-39286704D01*
X184059110Y-39286704D02*
X169779414Y-53566400D01*
X169779414Y-53566400D02*
X168558100Y-53566400D01*
X174370100Y-33882400D02*
X180870100Y-33882400D01*
X239677300Y-105261400D02*
X239677300Y-106048800D01*
X239677300Y-106048800D02*
X235181500Y-110544600D01*
X245163700Y-94974400D02*
X245163700Y-101476800D01*
X245163700Y-101476800D02*
X242674500Y-103966000D01*
X245265300Y-76330800D02*
X245265300Y-85474800D01*
X245265300Y-85474800D02*
X245163700Y-85576400D01*
X244757300Y-43412400D02*
X244757300Y-59160400D01*
X244757300Y-59160400D02*
X245392300Y-59795400D01*
X233454300Y-33862000D02*
X238458100Y-38865800D01*
X238458100Y-38865800D02*
X239753500Y-38865800D01*
X209248100Y-33531800D02*
X221414700Y-33531800D01*
X186413500Y-33531800D02*
X195760700Y-33531800D01*
X195760700Y-33531800D02*
X195913100Y-33379400D01*
X229491900Y-110671600D02*
X235054500Y-110671600D01*
X235054500Y-110671600D02*
X235181500Y-110544600D01*
X207190700Y-109884200D02*
X216436300Y-109884200D01*
X216436300Y-109884200D02*
X216766500Y-110214400D01*
X191366500Y-109884200D02*
X198732500Y-109884200D01*
X198732500Y-109884200D02*
X198783300Y-109935000D01*
X173078500Y-109833400D02*
X180571500Y-109833400D01*
X180571500Y-109833400D02*
X180622300Y-109884200D01*
X166018100Y-99286400D02*
X166018100Y-106913200D01*
X166018100Y-106913200D02*
X166372900Y-107268000D01*
D28*
X195364100Y-89814400D02*
X195364100Y-85022400D01*
X195364100Y-85022400D02*
X194615100Y-84273400D01*
X193520100Y-78892400D02*
X193520100Y-83178400D01*
X193520100Y-83178400D02*
X194615100Y-84273400D01*
X192966100Y-102434400D02*
X195506100Y-102434400D01*
X190426100Y-102434400D02*
X192966100Y-102434400D01*
X195506100Y-102434400D02*
X195506100Y-104974400D01*
X192966100Y-104974400D02*
X195506100Y-104974400D01*
X190426100Y-104974400D02*
X192966100Y-104974400D01*
X190426100Y-102434400D02*
X190426100Y-104974400D01*
X190424100Y-98592400D02*
X190426100Y-98594400D01*
X190426100Y-98594400D02*
X190426100Y-102434400D01*
D27*
X222303100Y-94941400D02*
X219636100Y-94941400D01*
X219636100Y-94941400D02*
X219382100Y-95195400D01*
X236400100Y-87575400D02*
X235765100Y-86940400D01*
X235765100Y-86940400D02*
X234810100Y-86940400D01*
X236400100Y-88210400D02*
X236400100Y-87575400D01*
X234810100Y-80082400D02*
X234810100Y-84247105D01*
X234810100Y-91004398D02*
X234810100Y-90375398D01*
X234810100Y-90375398D02*
X234810100Y-86940400D01*
X234810100Y-84247105D02*
X234810100Y-84876105D01*
X234810100Y-84876105D02*
X234810100Y-86940400D01*
X222303100Y-94941400D02*
X222303100Y-80688400D01*
X222303100Y-80688400D02*
X223065100Y-79926400D01*
X223065100Y-79926400D02*
X224919100Y-79926400D01*
X225224100Y-96465400D02*
X225668599Y-96020901D01*
X225668599Y-96020901D02*
X225668599Y-95131901D01*
X225668599Y-95131901D02*
X226154100Y-94646400D01*
X226154100Y-94646400D02*
X226154100Y-93642400D01*
D28*
X193370100Y-38382400D02*
X196888100Y-41900400D01*
X196888100Y-41900400D02*
X196888100Y-43586400D01*
X180870100Y-38382400D02*
X183170100Y-38382400D01*
X174370100Y-38382400D02*
X180870100Y-38382400D01*
X170270100Y-38382400D02*
X174370100Y-38382400D01*
X163770100Y-38382400D02*
X170270100Y-38382400D01*
X163106100Y-43332400D02*
X163106100Y-39046400D01*
X163106100Y-39046400D02*
X163770100Y-38382400D01*
X196888100Y-43586400D02*
X214098100Y-43586400D01*
X214098100Y-43586400D02*
X214278100Y-43406400D01*
D29*
X161402100Y-99286400D02*
X160820100Y-98704400D01*
X160820100Y-98704400D02*
X160820100Y-51968400D01*
X166018100Y-99286400D02*
X161402100Y-99286400D01*
X166018100Y-43406400D02*
X163180100Y-43406400D01*
X163180100Y-43406400D02*
X163106100Y-43332400D01*
D27*
X216818100Y-43406400D02*
X217869101Y-42355399D01*
X217869101Y-42355399D02*
X231217099Y-42355399D01*
X231217099Y-42355399D02*
X232448100Y-43586400D01*
X216818100Y-43406400D02*
X214278100Y-43406400D01*
D28*
X166018100Y-43406400D02*
X168558100Y-43406400D01*
D29*
X168558100Y-96746400D02*
X186906100Y-96746400D01*
X186906100Y-96746400D02*
X187742100Y-95910400D01*
X187742100Y-95910400D02*
X190424100Y-98592400D01*
X187338100Y-84480400D02*
X187338100Y-95506400D01*
X187338100Y-95506400D02*
X187742100Y-95910400D01*
X195364100Y-89814400D02*
X193838100Y-89814400D01*
X193838100Y-89814400D02*
X187742100Y-95910400D01*
X168558100Y-99286400D02*
X166018100Y-99286400D01*
X168558100Y-96746400D02*
X168558100Y-99286400D01*
X168558100Y-96746400D02*
X166018100Y-96746400D01*
X166018100Y-99286400D02*
X166018100Y-96746400D01*
D27*
X166018100Y-42706400D02*
X166018100Y-43406400D01*
D28*
X197264100Y-89814400D02*
X197264100Y-87724400D01*
X197264100Y-87724400D02*
X200715100Y-84273400D01*
X199428100Y-77622400D02*
X199428100Y-82986400D01*
X199428100Y-82986400D02*
X200715100Y-84273400D01*
D29*
X183426100Y-76352400D02*
X183426100Y-78468400D01*
X183426100Y-78468400D02*
X184838100Y-79880400D01*
X199430100Y-77624400D02*
X199428100Y-77622400D01*
X187338100Y-79880400D02*
X184838100Y-79880400D01*
X198134100Y-92480400D02*
X198134100Y-90684400D01*
X198134100Y-90684400D02*
X197264100Y-89814400D01*
D27*
X198134100Y-92480400D02*
X197684100Y-92030400D01*
D29*
X198158100Y-96946400D02*
X198158100Y-95004400D01*
X198158100Y-95004400D02*
X198134100Y-94980400D01*
D28*
X198046100Y-102434400D02*
X198046100Y-99558400D01*
X198046100Y-99558400D02*
X198158100Y-99446400D01*
X198046100Y-104974400D02*
X198046100Y-102434400D01*
D29*
X198044100Y-99560400D02*
X198158100Y-99446400D01*
D27*
X226113100Y-75383400D02*
X226113100Y-78834598D01*
X226113100Y-78834598D02*
X226219100Y-78940598D01*
X226219100Y-78940598D02*
X226219100Y-78947400D01*
X226219100Y-78947400D02*
X226219100Y-79926400D01*
X226875100Y-82749400D02*
X227519100Y-82105400D01*
X227519100Y-82105400D02*
X227519100Y-79926400D01*
X223192100Y-82749400D02*
X226875100Y-82749400D01*
X228272100Y-83765400D02*
X228272100Y-81015202D01*
X228272100Y-81015202D02*
X228169100Y-80912202D01*
X228169100Y-80912202D02*
X228169100Y-80905400D01*
X228169100Y-80905400D02*
X228169100Y-79926400D01*
X213980100Y-76426400D02*
X214278100Y-76426400D01*
X221922100Y-75256400D02*
X226474718Y-70703782D01*
X226474718Y-70703782D02*
X227098338Y-70703782D01*
X226494100Y-73859400D02*
X226494100Y-74488017D01*
X226494100Y-74488017D02*
X226938601Y-74932518D01*
X226938601Y-74932518D02*
X226938601Y-78875899D01*
X226938601Y-78875899D02*
X226869100Y-78945400D01*
X226869100Y-78945400D02*
X226869100Y-78947400D01*
X226869100Y-78947400D02*
X226869100Y-79926400D01*
X226219100Y-85826400D02*
X226219100Y-90479730D01*
X225504100Y-98531598D02*
X225504100Y-98538400D01*
X226219100Y-90479730D02*
X224248099Y-92450731D01*
X224248099Y-92450731D02*
X224248099Y-97275597D01*
X224248099Y-97275597D02*
X225504100Y-98531598D01*
X225504100Y-98538400D02*
X225504100Y-99542400D01*
X226869100Y-85826400D02*
X226869100Y-90548164D01*
X226869100Y-90548164D02*
X224854100Y-92563164D01*
X224854100Y-92563164D02*
X224854100Y-92638400D01*
X224854100Y-92638400D02*
X224854100Y-93642400D01*
X227519100Y-85826400D02*
X227519100Y-90616598D01*
X227519100Y-90616598D02*
X225504100Y-92631598D01*
X225504100Y-92631598D02*
X225504100Y-92638400D01*
X225504100Y-92638400D02*
X225504100Y-93642400D01*
X228169100Y-85826400D02*
X228169100Y-91396598D01*
X228169100Y-91396598D02*
X229404100Y-92631598D01*
X229404100Y-92631598D02*
X229404100Y-92638400D01*
X229404100Y-92638400D02*
X229404100Y-93642400D01*
X231447100Y-91004400D02*
X232910100Y-91004400D01*
X229883100Y-99542400D02*
X231164100Y-99542400D01*
X231164100Y-99542400D02*
X231193100Y-99513400D01*
X229404100Y-99542400D02*
X229883100Y-99542400D01*
D29*
X181140100Y-91338400D02*
X181140100Y-82282400D01*
X181140100Y-82282400D02*
X181038100Y-82180400D01*
X193842100Y-95910400D02*
X193842100Y-92610400D01*
X187338100Y-82180400D02*
X181038100Y-82180400D01*
X187338100Y-82180400D02*
X188595302Y-82180400D01*
X188595302Y-82180400D02*
X190518100Y-80257602D01*
X190518100Y-80257602D02*
X190518100Y-78892400D01*
X191620100Y-78892400D02*
X190518100Y-78892400D01*
X190518100Y-78892400D02*
X189502100Y-77876400D01*
D27*
X233582044Y-102905813D02*
X233733100Y-102905813D01*
X237447910Y-56333400D02*
X237447910Y-56962400D01*
X237447910Y-56962400D02*
X240291823Y-59806313D01*
X236093834Y-102905813D02*
X233733100Y-102905813D01*
X240291823Y-59806313D02*
X240291822Y-98707825D01*
X240291822Y-98707825D02*
X236093834Y-102905813D01*
X228104100Y-99542400D02*
X228104100Y-98538400D01*
X231643381Y-98057856D02*
X233075174Y-99489649D01*
X228104100Y-98538400D02*
X228584644Y-98057856D01*
X228584644Y-98057856D02*
X231643381Y-98057856D01*
X233075174Y-99489649D02*
X233075174Y-102398943D01*
X233075174Y-102398943D02*
X233582044Y-102905813D01*
X236810595Y-95957390D02*
X238588585Y-94179400D01*
X238810099Y-83476497D02*
X238810099Y-93957886D01*
X238810099Y-93957886D02*
X238588585Y-94179400D01*
X237350100Y-66366400D02*
X238204100Y-66366400D01*
X238204100Y-66366400D02*
X238204100Y-67970944D01*
X238204100Y-67970944D02*
X238810099Y-68576943D01*
X238810099Y-68576943D02*
X238810099Y-83476497D01*
X227454100Y-93642400D02*
X227454100Y-95774400D01*
X227454100Y-95774400D02*
X227637090Y-95957390D01*
X227637090Y-95957390D02*
X233188061Y-95957390D01*
X233188061Y-95957390D02*
X233219865Y-95925586D01*
X233219865Y-95925586D02*
X234012347Y-95925586D01*
X234012347Y-95925586D02*
X234044151Y-95957390D01*
X234044151Y-95957390D02*
X236810595Y-95957390D01*
X239783813Y-98497400D02*
X239783813Y-66302885D01*
X234107636Y-101826343D02*
X236454870Y-101826343D01*
X236454870Y-101826343D02*
X239783813Y-98497400D01*
X239783813Y-66302885D02*
X237350100Y-63869172D01*
X237350100Y-63869172D02*
X237350100Y-59000400D01*
X229933901Y-100673401D02*
X229933901Y-101302201D01*
X229933901Y-101302201D02*
X230939100Y-102307400D01*
X228754100Y-99542400D02*
X228754100Y-100553202D01*
X228754100Y-100553202D02*
X228874299Y-100673401D01*
X228874299Y-100673401D02*
X229933901Y-100673401D01*
X236904511Y-94547426D02*
X236460012Y-94991925D01*
X238204100Y-93247837D02*
X236904511Y-94547426D01*
X238204100Y-70389400D02*
X238204100Y-93247837D01*
X237350100Y-69535400D02*
X238204100Y-70389400D01*
X237350100Y-68906400D02*
X237350100Y-69535400D01*
X232990517Y-96513548D02*
X233435016Y-96958047D01*
X226875100Y-96465400D02*
X232942369Y-96465400D01*
X226804100Y-96394400D02*
X226875100Y-96465400D01*
X226804100Y-93642400D02*
X226804100Y-96394400D01*
X232942369Y-96465400D02*
X232990517Y-96513548D01*
X201014100Y-46126400D02*
X209302100Y-46126400D01*
X209302100Y-46126400D02*
X209349100Y-46173400D01*
X196888100Y-46126400D02*
X201014100Y-46126400D01*
X194348100Y-48666400D02*
X195657099Y-47357401D01*
X195657099Y-47357401D02*
X212867099Y-47357401D01*
X212867099Y-47357401D02*
X213414501Y-46809999D01*
X213414501Y-46809999D02*
X214278100Y-45946400D01*
X214204100Y-45872400D02*
X214278100Y-45946400D01*
X196888100Y-48666400D02*
X207016100Y-48666400D01*
X207016100Y-48666400D02*
X207063100Y-48713400D01*
X194348100Y-51206400D02*
X195579101Y-49975399D01*
X195579101Y-49975399D02*
X212789101Y-49975399D01*
X212789101Y-49975399D02*
X213414501Y-49349999D01*
X213414501Y-49349999D02*
X214278100Y-48486400D01*
X213950100Y-48158400D02*
X214278100Y-48486400D01*
X196888100Y-51206400D02*
X204984100Y-51206400D01*
X204984100Y-51206400D02*
X205031100Y-51253400D01*
X194348100Y-53746400D02*
X195579101Y-52515399D01*
X195579101Y-52515399D02*
X212789101Y-52515399D01*
X212789101Y-52515399D02*
X213414501Y-51889999D01*
X213414501Y-51889999D02*
X214278100Y-51026400D01*
X213950100Y-50698400D02*
X214278100Y-51026400D01*
X196888100Y-53746400D02*
X204222100Y-53746400D01*
X204222100Y-53746400D02*
X204269100Y-53793400D01*
X194348100Y-56286400D02*
X195579101Y-55055399D01*
X195579101Y-55055399D02*
X212789101Y-55055399D01*
X212789101Y-55055399D02*
X213414501Y-54429999D01*
X213414501Y-54429999D02*
X214278100Y-53566400D01*
X214098100Y-53746400D02*
X214278100Y-53566400D01*
X196888100Y-56286400D02*
X199218100Y-56286400D01*
X199218100Y-56286400D02*
X214278100Y-71346400D01*
X172219414Y-66366400D02*
X173916100Y-66366400D01*
X168558100Y-68806400D02*
X169779414Y-68806400D01*
X169779414Y-68806400D02*
X172219414Y-66366400D01*
X196888100Y-58826400D02*
X199218100Y-58826400D01*
X199218100Y-58826400D02*
X214278100Y-73886400D01*
X168558100Y-63726400D02*
X178461100Y-63726400D01*
X180821100Y-61366400D02*
X194348100Y-61366400D01*
X178461100Y-63726400D02*
X180821100Y-61366400D01*
X196888100Y-61366400D02*
X214278100Y-78756400D01*
X214278100Y-78756400D02*
X214278100Y-78966400D01*
X181788499Y-64971001D02*
X182853100Y-63906400D01*
X182853100Y-63906400D02*
X194348100Y-63906400D01*
X166018100Y-63726400D02*
X167262701Y-64971001D01*
X167262701Y-64971001D02*
X181788499Y-64971001D01*
X196888100Y-63906400D02*
X211762100Y-78780400D01*
X211762100Y-78780400D02*
X211762100Y-84070400D01*
X211762100Y-84070400D02*
X213414501Y-85722801D01*
X213414501Y-85722801D02*
X214278100Y-86586400D01*
X213726100Y-86586400D02*
X214278100Y-86586400D01*
X173508100Y-61186400D02*
X177318100Y-61186400D01*
X177318100Y-61186400D02*
X177345100Y-61159400D01*
X168558100Y-61186400D02*
X173508100Y-61186400D01*
X168738100Y-61366400D02*
X168558100Y-61186400D01*
X216998100Y-46126400D02*
X216818100Y-45946400D01*
X173533499Y-62431001D02*
X175565499Y-62431001D01*
X175565499Y-62431001D02*
X175567100Y-62429400D01*
X166018100Y-61186400D02*
X167262701Y-62431001D01*
X167262701Y-62431001D02*
X173533499Y-62431001D01*
X165838100Y-61366400D02*
X166018100Y-61186400D01*
X216892100Y-48412400D02*
X216818100Y-48486400D01*
X232448100Y-46126400D02*
X236019100Y-49697400D01*
X236019100Y-49697400D02*
X236019100Y-49856400D01*
X216818100Y-51026400D02*
X227548100Y-51026400D01*
X227548100Y-51026400D02*
X229908100Y-48666400D01*
X216818100Y-53566400D02*
X217681699Y-52702801D01*
X217681699Y-52702801D02*
X228411699Y-52702801D01*
X228411699Y-52702801D02*
X229058101Y-52056399D01*
X229058101Y-52056399D02*
X229908100Y-51206400D01*
X239169331Y-51206400D02*
X239236811Y-51138920D01*
X232448100Y-51206400D02*
X239169331Y-51206400D01*
X226875100Y-97041834D02*
X232090101Y-97041834D01*
X232090101Y-97041834D02*
X234675658Y-99627391D01*
X234675658Y-99627391D02*
X234754387Y-99627391D01*
X226804100Y-97112834D02*
X226875100Y-97041834D01*
X226804100Y-99542400D02*
X226804100Y-97112834D01*
X216818100Y-56106400D02*
X219178100Y-53746400D01*
X219178100Y-53746400D02*
X229908100Y-53746400D01*
X240007520Y-53746400D02*
X240111465Y-53850345D01*
X232448100Y-53746400D02*
X240007520Y-53746400D01*
X233663137Y-99359176D02*
X233663137Y-100238831D01*
X231853806Y-97549845D02*
X233663137Y-99359176D01*
X227454100Y-99542400D02*
X227454100Y-97806400D01*
X227454100Y-97806400D02*
X227710655Y-97549845D01*
X233663137Y-100238831D02*
X234107636Y-100683330D01*
X227710655Y-97549845D02*
X231853806Y-97549845D01*
X216818100Y-61186400D02*
X225008100Y-61186400D01*
X225008100Y-61186400D02*
X229908100Y-56286400D01*
X232448100Y-56286400D02*
X235500910Y-56286400D01*
X235500910Y-56286400D02*
X235547910Y-56333400D01*
X216818100Y-63726400D02*
X225008100Y-63726400D01*
X225008100Y-63726400D02*
X229908100Y-58826400D01*
X232448100Y-58826400D02*
X235276100Y-58826400D01*
X235276100Y-58826400D02*
X235450100Y-59000400D01*
X216818100Y-68806400D02*
X222468100Y-68806400D01*
X222468100Y-68806400D02*
X229908100Y-61366400D01*
X231955100Y-93290400D02*
X232336100Y-92909400D01*
X232336100Y-92909400D02*
X236781100Y-92909400D01*
X229042268Y-94941370D02*
X231955100Y-94941370D01*
X231955100Y-94941370D02*
X231955100Y-93290400D01*
X228754100Y-93642400D02*
X228754100Y-94653202D01*
X228754100Y-94653202D02*
X229042268Y-94941370D01*
X216818100Y-71346400D02*
X222468100Y-71346400D01*
X222468100Y-71346400D02*
X229908100Y-63906400D01*
X232590100Y-94306400D02*
X232717100Y-94179400D01*
X232165524Y-95449380D02*
X232590100Y-95024804D01*
X232717100Y-94179400D02*
X234495100Y-94179400D01*
X232590100Y-95024804D02*
X232590100Y-94306400D01*
X228145100Y-95449380D02*
X232165524Y-95449380D01*
X228104100Y-95408380D02*
X228145100Y-95449380D01*
X228104100Y-93642400D02*
X228104100Y-95408380D01*
X232702100Y-63652400D02*
X232448100Y-63906400D01*
X216818100Y-73886400D02*
X222468100Y-73886400D01*
X222468100Y-73886400D02*
X229908100Y-66446400D01*
X232448100Y-66446400D02*
X235370100Y-66446400D01*
X235370100Y-66446400D02*
X235450100Y-66366400D01*
X229058101Y-69836399D02*
X229908100Y-68986400D01*
X229058101Y-69945431D02*
X229058101Y-69836399D01*
X220037132Y-78966400D02*
X229058101Y-69945431D01*
X216818100Y-78966400D02*
X220037132Y-78966400D01*
X232448100Y-68986400D02*
X235370100Y-68986400D01*
X235370100Y-68986400D02*
X235450100Y-68906400D01*
G36*
X246287830Y-111600130D02*
X157052370Y-111600130D01*
X157052370Y-109009061D01*
X159022858Y-109009061D01*
X159235090Y-109522703D01*
X159627730Y-109916029D01*
X160141000Y-110129157D01*
X160696761Y-110129642D01*
X161210403Y-109917410D01*
X161369028Y-109759061D01*
X239772858Y-109759061D01*
X239985090Y-110272703D01*
X240377730Y-110666029D01*
X240891000Y-110879157D01*
X241446761Y-110879642D01*
X241960403Y-110667410D01*
X242353729Y-110274770D01*
X242566857Y-109761500D01*
X242567342Y-109205739D01*
X242355110Y-108692097D01*
X241962470Y-108298771D01*
X241449200Y-108085643D01*
X240893439Y-108085158D01*
X240379797Y-108297390D01*
X239986471Y-108690030D01*
X239773343Y-109203300D01*
X239772858Y-109759061D01*
X161369028Y-109759061D01*
X161603729Y-109524770D01*
X161816857Y-109011500D01*
X161817342Y-108455739D01*
X161605110Y-107942097D01*
X161212470Y-107548771D01*
X160699200Y-107335643D01*
X160143439Y-107335158D01*
X159629797Y-107547390D01*
X159236471Y-107940030D01*
X159023343Y-108453300D01*
X159022858Y-109009061D01*
X157052370Y-109009061D01*
X157052370Y-104950283D01*
X186655100Y-104950283D01*
X186655100Y-104998517D01*
X186748804Y-105469600D01*
X187015652Y-105868965D01*
X187415017Y-106135813D01*
X187886100Y-106229517D01*
X188357183Y-106135813D01*
X188756548Y-105868965D01*
X189023396Y-105469600D01*
X189117100Y-104998517D01*
X189117100Y-104950283D01*
X189023396Y-104479200D01*
X188756548Y-104079835D01*
X188357183Y-103812987D01*
X187886100Y-103719283D01*
X187415017Y-103812987D01*
X187015652Y-104079835D01*
X186748804Y-104479200D01*
X186655100Y-104950283D01*
X157052370Y-104950283D01*
X157052370Y-101584400D01*
X186647636Y-101584400D01*
X186647636Y-103284400D01*
X186674203Y-103425590D01*
X186757646Y-103555265D01*
X186884966Y-103642259D01*
X187036100Y-103672864D01*
X188736100Y-103672864D01*
X188877290Y-103646297D01*
X189006965Y-103562854D01*
X189093959Y-103435534D01*
X189124564Y-103284400D01*
X189124564Y-102410283D01*
X196815100Y-102410283D01*
X196815100Y-102458517D01*
X196908804Y-102929600D01*
X197157100Y-103301200D01*
X197157100Y-104107600D01*
X196908804Y-104479200D01*
X196815100Y-104950283D01*
X196815100Y-104998517D01*
X196908804Y-105469600D01*
X197175652Y-105868965D01*
X197575017Y-106135813D01*
X198046100Y-106229517D01*
X198517183Y-106135813D01*
X198916548Y-105868965D01*
X199183396Y-105469600D01*
X199277100Y-104998517D01*
X199277100Y-104950283D01*
X199183396Y-104479200D01*
X198935100Y-104107600D01*
X198935100Y-103301200D01*
X199183396Y-102929600D01*
X199277100Y-102458517D01*
X199277100Y-102410283D01*
X199183396Y-101939200D01*
X198935100Y-101567600D01*
X198935100Y-100551341D01*
X199053965Y-100474854D01*
X199140959Y-100347534D01*
X199171564Y-100196400D01*
X199171564Y-99926274D01*
X199203008Y-99879215D01*
X199289100Y-99446400D01*
X199203008Y-99013585D01*
X199171564Y-98966526D01*
X199171564Y-98696400D01*
X199144997Y-98555210D01*
X199061554Y-98425535D01*
X198934234Y-98338541D01*
X198783100Y-98307936D01*
X197533100Y-98307936D01*
X197391910Y-98334503D01*
X197262235Y-98417946D01*
X197175241Y-98545266D01*
X197144636Y-98696400D01*
X197144636Y-98909913D01*
X196999192Y-99127585D01*
X196913100Y-99560400D01*
X196999192Y-99993215D01*
X197148431Y-100216566D01*
X197157100Y-100262640D01*
X197157100Y-101567600D01*
X196908804Y-101939200D01*
X196815100Y-102410283D01*
X189124564Y-102410283D01*
X189124564Y-101584400D01*
X189097997Y-101443210D01*
X189014554Y-101313535D01*
X188887234Y-101226541D01*
X188736100Y-101195936D01*
X187036100Y-101195936D01*
X186894910Y-101222503D01*
X186765235Y-101305946D01*
X186678241Y-101433266D01*
X186647636Y-101584400D01*
X157052370Y-101584400D01*
X157052370Y-94206400D01*
X164749117Y-94206400D01*
X164843857Y-94682688D01*
X165113652Y-95086465D01*
X165517429Y-95356260D01*
X165993717Y-95451000D01*
X166042483Y-95451000D01*
X166518771Y-95356260D01*
X166922548Y-95086465D01*
X167192343Y-94682688D01*
X167287083Y-94206400D01*
X167289117Y-94206400D01*
X167383857Y-94682688D01*
X167653652Y-95086465D01*
X168057429Y-95356260D01*
X168533717Y-95451000D01*
X168582483Y-95451000D01*
X169058771Y-95356260D01*
X169462548Y-95086465D01*
X169732343Y-94682688D01*
X169736776Y-94660400D01*
X191453636Y-94660400D01*
X191453636Y-97160400D01*
X191480203Y-97301590D01*
X191563646Y-97431265D01*
X191690966Y-97518259D01*
X191842100Y-97548864D01*
X195842100Y-97548864D01*
X195983290Y-97522297D01*
X196112965Y-97438854D01*
X196199959Y-97311534D01*
X196230564Y-97160400D01*
X196230564Y-94980400D01*
X197003100Y-94980400D01*
X197027100Y-95101057D01*
X197027100Y-96946400D01*
X197113192Y-97379215D01*
X197144636Y-97426274D01*
X197144636Y-97696400D01*
X197171203Y-97837590D01*
X197254646Y-97967265D01*
X197381966Y-98054259D01*
X197533100Y-98084864D01*
X198783100Y-98084864D01*
X198924290Y-98058297D01*
X199053965Y-97974854D01*
X199140959Y-97847534D01*
X199171564Y-97696400D01*
X199171564Y-97426274D01*
X199203008Y-97379215D01*
X199289100Y-96946400D01*
X199289100Y-95004400D01*
X199203008Y-94571585D01*
X198957838Y-94204662D01*
X198933838Y-94180662D01*
X198566915Y-93935492D01*
X198134100Y-93849400D01*
X197701285Y-93935492D01*
X197334362Y-94180662D01*
X197089192Y-94547585D01*
X197003100Y-94980400D01*
X196230564Y-94980400D01*
X196230564Y-94660400D01*
X196203997Y-94519210D01*
X196120554Y-94389535D01*
X195993234Y-94302541D01*
X195842100Y-94271936D01*
X194973100Y-94271936D01*
X194973100Y-92610400D01*
X194887008Y-92177585D01*
X194641838Y-91810662D01*
X194274915Y-91565492D01*
X193842100Y-91479400D01*
X193409285Y-91565492D01*
X193042362Y-91810662D01*
X192797192Y-92177585D01*
X192711100Y-92610400D01*
X192711100Y-94271936D01*
X191842100Y-94271936D01*
X191700910Y-94298503D01*
X191571235Y-94381946D01*
X191484241Y-94509266D01*
X191453636Y-94660400D01*
X169736776Y-94660400D01*
X169827083Y-94206400D01*
X169732343Y-93730112D01*
X169462548Y-93326335D01*
X169058771Y-93056540D01*
X168582483Y-92961800D01*
X168533717Y-92961800D01*
X168057429Y-93056540D01*
X167653652Y-93326335D01*
X167383857Y-93730112D01*
X167289117Y-94206400D01*
X167287083Y-94206400D01*
X167192343Y-93730112D01*
X166922548Y-93326335D01*
X166518771Y-93056540D01*
X166042483Y-92961800D01*
X165993717Y-92961800D01*
X165517429Y-93056540D01*
X165113652Y-93326335D01*
X164843857Y-93730112D01*
X164749117Y-94206400D01*
X157052370Y-94206400D01*
X157052370Y-91666400D01*
X164749117Y-91666400D01*
X164843857Y-92142688D01*
X165113652Y-92546465D01*
X165517429Y-92816260D01*
X165993717Y-92911000D01*
X166042483Y-92911000D01*
X166518771Y-92816260D01*
X166922548Y-92546465D01*
X167192343Y-92142688D01*
X167287083Y-91666400D01*
X167289117Y-91666400D01*
X167383857Y-92142688D01*
X167653652Y-92546465D01*
X168057429Y-92816260D01*
X168533717Y-92911000D01*
X168582483Y-92911000D01*
X169058771Y-92816260D01*
X169462548Y-92546465D01*
X169732343Y-92142688D01*
X169827083Y-91666400D01*
X169732343Y-91190112D01*
X169462548Y-90786335D01*
X169058771Y-90516540D01*
X168582483Y-90421800D01*
X168533717Y-90421800D01*
X168057429Y-90516540D01*
X167653652Y-90786335D01*
X167383857Y-91190112D01*
X167289117Y-91666400D01*
X167287083Y-91666400D01*
X167192343Y-91190112D01*
X166922548Y-90786335D01*
X166518771Y-90516540D01*
X166042483Y-90421800D01*
X165993717Y-90421800D01*
X165517429Y-90516540D01*
X165113652Y-90786335D01*
X164843857Y-91190112D01*
X164749117Y-91666400D01*
X157052370Y-91666400D01*
X157052370Y-89126400D01*
X164749117Y-89126400D01*
X164843857Y-89602688D01*
X165113652Y-90006465D01*
X165517429Y-90276260D01*
X165993717Y-90371000D01*
X166042483Y-90371000D01*
X166518771Y-90276260D01*
X166922548Y-90006465D01*
X167192343Y-89602688D01*
X167287083Y-89126400D01*
X167289117Y-89126400D01*
X167383857Y-89602688D01*
X167653652Y-90006465D01*
X168057429Y-90276260D01*
X168533717Y-90371000D01*
X168582483Y-90371000D01*
X169058771Y-90276260D01*
X169462548Y-90006465D01*
X169732343Y-89602688D01*
X169827083Y-89126400D01*
X169732343Y-88650112D01*
X169462548Y-88246335D01*
X169058771Y-87976540D01*
X168582483Y-87881800D01*
X168533717Y-87881800D01*
X168057429Y-87976540D01*
X167653652Y-88246335D01*
X167383857Y-88650112D01*
X167289117Y-89126400D01*
X167287083Y-89126400D01*
X167192343Y-88650112D01*
X166922548Y-88246335D01*
X166518771Y-87976540D01*
X166042483Y-87881800D01*
X165993717Y-87881800D01*
X165517429Y-87976540D01*
X165113652Y-88246335D01*
X164843857Y-88650112D01*
X164749117Y-89126400D01*
X157052370Y-89126400D01*
X157052370Y-86586400D01*
X164749117Y-86586400D01*
X164843857Y-87062688D01*
X165113652Y-87466465D01*
X165517429Y-87736260D01*
X165993717Y-87831000D01*
X166042483Y-87831000D01*
X166518771Y-87736260D01*
X166922548Y-87466465D01*
X167192343Y-87062688D01*
X167287083Y-86586400D01*
X167289117Y-86586400D01*
X167383857Y-87062688D01*
X167653652Y-87466465D01*
X168057429Y-87736260D01*
X168533717Y-87831000D01*
X168582483Y-87831000D01*
X169058771Y-87736260D01*
X169462548Y-87466465D01*
X169732343Y-87062688D01*
X169827083Y-86586400D01*
X169732343Y-86110112D01*
X169462548Y-85706335D01*
X169058771Y-85436540D01*
X168582483Y-85341800D01*
X168533717Y-85341800D01*
X168057429Y-85436540D01*
X167653652Y-85706335D01*
X167383857Y-86110112D01*
X167289117Y-86586400D01*
X167287083Y-86586400D01*
X167192343Y-86110112D01*
X166922548Y-85706335D01*
X166518771Y-85436540D01*
X166042483Y-85341800D01*
X165993717Y-85341800D01*
X165517429Y-85436540D01*
X165113652Y-85706335D01*
X164843857Y-86110112D01*
X164749117Y-86586400D01*
X157052370Y-86586400D01*
X157052370Y-84046400D01*
X164749117Y-84046400D01*
X164843857Y-84522688D01*
X165113652Y-84926465D01*
X165517429Y-85196260D01*
X165993717Y-85291000D01*
X166042483Y-85291000D01*
X166518771Y-85196260D01*
X166922548Y-84926465D01*
X167192343Y-84522688D01*
X167287083Y-84046400D01*
X167289117Y-84046400D01*
X167383857Y-84522688D01*
X167653652Y-84926465D01*
X168057429Y-85196260D01*
X168533717Y-85291000D01*
X168582483Y-85291000D01*
X169058771Y-85196260D01*
X169462548Y-84926465D01*
X169732343Y-84522688D01*
X169827083Y-84046400D01*
X169732343Y-83570112D01*
X169462548Y-83166335D01*
X169058771Y-82896540D01*
X168582483Y-82801800D01*
X168533717Y-82801800D01*
X168057429Y-82896540D01*
X167653652Y-83166335D01*
X167383857Y-83570112D01*
X167289117Y-84046400D01*
X167287083Y-84046400D01*
X167192343Y-83570112D01*
X166922548Y-83166335D01*
X166518771Y-82896540D01*
X166042483Y-82801800D01*
X165993717Y-82801800D01*
X165517429Y-82896540D01*
X165113652Y-83166335D01*
X164843857Y-83570112D01*
X164749117Y-84046400D01*
X157052370Y-84046400D01*
X157052370Y-81506400D01*
X164749117Y-81506400D01*
X164843857Y-81982688D01*
X165113652Y-82386465D01*
X165517429Y-82656260D01*
X165993717Y-82751000D01*
X166042483Y-82751000D01*
X166518771Y-82656260D01*
X166922548Y-82386465D01*
X167192343Y-81982688D01*
X167287083Y-81506400D01*
X167289117Y-81506400D01*
X167383857Y-81982688D01*
X167653652Y-82386465D01*
X168057429Y-82656260D01*
X168533717Y-82751000D01*
X168582483Y-82751000D01*
X169058771Y-82656260D01*
X169462548Y-82386465D01*
X169732343Y-81982688D01*
X169827083Y-81506400D01*
X169732343Y-81030112D01*
X169462548Y-80626335D01*
X169058771Y-80356540D01*
X168675992Y-80280400D01*
X179649636Y-80280400D01*
X179649636Y-84080400D01*
X179676203Y-84221590D01*
X179759646Y-84351265D01*
X179886966Y-84438259D01*
X180009100Y-84462991D01*
X180009100Y-91338400D01*
X180095192Y-91771215D01*
X180340362Y-92138138D01*
X180707285Y-92383308D01*
X181140100Y-92469400D01*
X181572915Y-92383308D01*
X181939838Y-92138138D01*
X182185008Y-91771215D01*
X182271100Y-91338400D01*
X182271100Y-84383219D01*
X182308965Y-84358854D01*
X182395959Y-84231534D01*
X182426564Y-84080400D01*
X182426564Y-83311400D01*
X186301241Y-83311400D01*
X186338100Y-83318864D01*
X188338100Y-83318864D01*
X188377767Y-83311400D01*
X188595302Y-83311400D01*
X189028117Y-83225308D01*
X189395040Y-82980138D01*
X191317838Y-81057340D01*
X191563008Y-80690417D01*
X191649100Y-80257602D01*
X191649100Y-80017632D01*
X192052915Y-79937308D01*
X192419838Y-79692138D01*
X192665008Y-79325215D01*
X192751100Y-78892400D01*
X192665008Y-78459585D01*
X192419838Y-78092662D01*
X192052915Y-77847492D01*
X191620100Y-77761400D01*
X190986576Y-77761400D01*
X190640564Y-77415388D01*
X190640564Y-77251400D01*
X190613997Y-77110210D01*
X190530554Y-76980535D01*
X190403234Y-76893541D01*
X190252100Y-76862936D01*
X189981974Y-76862936D01*
X189934915Y-76831492D01*
X189502100Y-76745400D01*
X189069285Y-76831492D01*
X189022226Y-76862936D01*
X188752100Y-76862936D01*
X188610910Y-76889503D01*
X188481235Y-76972946D01*
X188394241Y-77100266D01*
X188363636Y-77251400D01*
X188363636Y-78501400D01*
X188390203Y-78642590D01*
X188471515Y-78768953D01*
X188338100Y-78741936D01*
X188048873Y-78741936D01*
X188109959Y-78652534D01*
X188140564Y-78501400D01*
X188140564Y-77251400D01*
X188113997Y-77110210D01*
X188030554Y-76980535D01*
X187903234Y-76893541D01*
X187886100Y-76890071D01*
X187886100Y-73668901D01*
X196355669Y-73668901D01*
X199219634Y-76532866D01*
X198995285Y-76577492D01*
X198628362Y-76822662D01*
X198383192Y-77189585D01*
X198297100Y-77622400D01*
X198383192Y-78055215D01*
X198539100Y-78288548D01*
X198539100Y-82683902D01*
X198444235Y-82744946D01*
X198357241Y-82872266D01*
X198326636Y-83023400D01*
X198326636Y-85404628D01*
X196635482Y-87095782D01*
X196442771Y-87384194D01*
X196375100Y-87724400D01*
X196375100Y-89148252D01*
X196219192Y-89381585D01*
X196133100Y-89814400D01*
X196219192Y-90247215D01*
X196464362Y-90614138D01*
X197003100Y-91152876D01*
X197003100Y-92480400D01*
X197089192Y-92913215D01*
X197334362Y-93280138D01*
X197701285Y-93525308D01*
X198134100Y-93611400D01*
X198566915Y-93525308D01*
X198933838Y-93280138D01*
X199179008Y-92913215D01*
X199265100Y-92480400D01*
X199265100Y-90684400D01*
X199179008Y-90251585D01*
X198933838Y-89884662D01*
X198153100Y-89103924D01*
X198153100Y-88092636D01*
X200333872Y-85911864D01*
X202715100Y-85911864D01*
X202856290Y-85885297D01*
X202985965Y-85801854D01*
X203072959Y-85674534D01*
X203103564Y-85523400D01*
X203103564Y-83023400D01*
X203076997Y-82882210D01*
X202993554Y-82752535D01*
X202866234Y-82665541D01*
X202715100Y-82634936D01*
X200333872Y-82634936D01*
X200317100Y-82618164D01*
X200317100Y-78293540D01*
X200475008Y-78057215D01*
X200519634Y-77832866D01*
X208333100Y-85646332D01*
X208333100Y-102180400D01*
X208400771Y-102520606D01*
X208593482Y-102809018D01*
X208881894Y-103001729D01*
X209222100Y-103069400D01*
X220467078Y-103069400D01*
X220807284Y-103001729D01*
X221095696Y-102809018D01*
X224009497Y-99895217D01*
X224015890Y-99901610D01*
X224180696Y-100011731D01*
X224240636Y-100023654D01*
X224240636Y-100292400D01*
X224267203Y-100433590D01*
X224346963Y-100557542D01*
X224384769Y-100747605D01*
X224494890Y-100912412D01*
X224615089Y-101032611D01*
X224779896Y-101142732D01*
X224974299Y-101181401D01*
X225190636Y-101181401D01*
X225190636Y-101920400D01*
X225217203Y-102061590D01*
X225300646Y-102191265D01*
X225427966Y-102278259D01*
X225579100Y-102308864D01*
X226779100Y-102308864D01*
X226920290Y-102282297D01*
X227049965Y-102198854D01*
X227136959Y-102071534D01*
X227167564Y-101920400D01*
X227167564Y-101170400D01*
X227140997Y-101029210D01*
X227057554Y-100899535D01*
X226930234Y-100812541D01*
X226779100Y-100781936D01*
X226660354Y-100781936D01*
X226648431Y-100721997D01*
X226648431Y-100721996D01*
X226633091Y-100699039D01*
X226636707Y-100680864D01*
X227029100Y-100680864D01*
X227132770Y-100661357D01*
X227229100Y-100680864D01*
X227679100Y-100680864D01*
X227782770Y-100661357D01*
X227879100Y-100680864D01*
X228271493Y-100680864D01*
X228284769Y-100747605D01*
X228394890Y-100912412D01*
X228515089Y-101032611D01*
X228679896Y-101142732D01*
X228874299Y-101181401D01*
X229425901Y-101181401D01*
X229425901Y-101302201D01*
X229464570Y-101496604D01*
X229574691Y-101661411D01*
X230113693Y-102200413D01*
X230113457Y-102470882D01*
X230238867Y-102774398D01*
X230470881Y-103006817D01*
X230774177Y-103132757D01*
X231102582Y-103133043D01*
X231406098Y-103007633D01*
X231638517Y-102775619D01*
X231764457Y-102472323D01*
X231764743Y-102143918D01*
X231639333Y-101840402D01*
X231407319Y-101607983D01*
X231104023Y-101482043D01*
X230831926Y-101481806D01*
X230441901Y-101091781D01*
X230441901Y-100673401D01*
X230403232Y-100478998D01*
X230293111Y-100314191D01*
X230128304Y-100204070D01*
X230017564Y-100182043D01*
X230017564Y-100050400D01*
X230562747Y-100050400D01*
X230724881Y-100212817D01*
X231028177Y-100338757D01*
X231356582Y-100339043D01*
X231660098Y-100213633D01*
X231892517Y-99981619D01*
X232018457Y-99678323D01*
X232018743Y-99349918D01*
X231893333Y-99046402D01*
X231661319Y-98813983D01*
X231358023Y-98688043D01*
X231029618Y-98687757D01*
X230726102Y-98813167D01*
X230504483Y-99034400D01*
X230017564Y-99034400D01*
X230017564Y-98792400D01*
X229990997Y-98651210D01*
X229936074Y-98565856D01*
X231432961Y-98565856D01*
X232567174Y-99700069D01*
X232567174Y-102398943D01*
X232605843Y-102593346D01*
X232715964Y-102758153D01*
X233222833Y-103265023D01*
X233387640Y-103375144D01*
X233419894Y-103381559D01*
X233582044Y-103413813D01*
X236093834Y-103413813D01*
X236288237Y-103375144D01*
X236453044Y-103265023D01*
X240651033Y-99067035D01*
X240761153Y-98902228D01*
X240799822Y-98707825D01*
X240799823Y-59806313D01*
X240761154Y-59611910D01*
X240761154Y-59611909D01*
X240651033Y-59447103D01*
X238240897Y-57036967D01*
X238318775Y-56986854D01*
X238405769Y-56859534D01*
X238436374Y-56708400D01*
X238436374Y-55958400D01*
X238409807Y-55817210D01*
X238326364Y-55687535D01*
X238199044Y-55600541D01*
X238047910Y-55569936D01*
X236847910Y-55569936D01*
X236706720Y-55596503D01*
X236577045Y-55679946D01*
X236496930Y-55797198D01*
X236426364Y-55687535D01*
X236299044Y-55600541D01*
X236147910Y-55569936D01*
X234947910Y-55569936D01*
X234806720Y-55596503D01*
X234677045Y-55679946D01*
X234609774Y-55778400D01*
X233584846Y-55778400D01*
X233342665Y-55415952D01*
X232943300Y-55149104D01*
X232472217Y-55055400D01*
X232423983Y-55055400D01*
X231952900Y-55149104D01*
X231647101Y-55353433D01*
X231647101Y-54679367D01*
X231952900Y-54883696D01*
X232423983Y-54977400D01*
X232472217Y-54977400D01*
X232943300Y-54883696D01*
X233342665Y-54616848D01*
X233584846Y-54254400D01*
X239385225Y-54254400D01*
X239411232Y-54317343D01*
X239643246Y-54549762D01*
X239946542Y-54675702D01*
X240274947Y-54675988D01*
X240578463Y-54550578D01*
X240810882Y-54318564D01*
X240936822Y-54015268D01*
X240937108Y-53686863D01*
X240811698Y-53383347D01*
X240579684Y-53150928D01*
X240276388Y-53024988D01*
X239947983Y-53024702D01*
X239644467Y-53150112D01*
X239556025Y-53238400D01*
X233584846Y-53238400D01*
X233342665Y-52875952D01*
X232943300Y-52609104D01*
X232472217Y-52515400D01*
X232423983Y-52515400D01*
X231952900Y-52609104D01*
X231647101Y-52813433D01*
X231647101Y-52139367D01*
X231952900Y-52343696D01*
X232423983Y-52437400D01*
X232472217Y-52437400D01*
X232943300Y-52343696D01*
X233342665Y-52076848D01*
X233584846Y-51714400D01*
X238644871Y-51714400D01*
X238768592Y-51838337D01*
X239071888Y-51964277D01*
X239400293Y-51964563D01*
X239703809Y-51839153D01*
X239936228Y-51607139D01*
X240062168Y-51303843D01*
X240062454Y-50975438D01*
X239937044Y-50671922D01*
X239705030Y-50439503D01*
X239401734Y-50313563D01*
X239073329Y-50313277D01*
X238769813Y-50438687D01*
X238537394Y-50670701D01*
X238525892Y-50698400D01*
X233584846Y-50698400D01*
X233342665Y-50335952D01*
X232943300Y-50069104D01*
X232472217Y-49975400D01*
X232423983Y-49975400D01*
X231952900Y-50069104D01*
X231647101Y-50273433D01*
X231647101Y-49599367D01*
X231952900Y-49803696D01*
X232423983Y-49897400D01*
X232472217Y-49897400D01*
X232943300Y-49803696D01*
X233342665Y-49536848D01*
X233609513Y-49137483D01*
X233703217Y-48666400D01*
X233609513Y-48195317D01*
X233342665Y-47795952D01*
X232943300Y-47529104D01*
X232472217Y-47435400D01*
X232423983Y-47435400D01*
X231952900Y-47529104D01*
X231647101Y-47733433D01*
X231647101Y-47059367D01*
X231952900Y-47263696D01*
X232423983Y-47357400D01*
X232472217Y-47357400D01*
X232879639Y-47276359D01*
X235223381Y-49620102D01*
X235193743Y-49691477D01*
X235193457Y-50019882D01*
X235318867Y-50323398D01*
X235550881Y-50555817D01*
X235854177Y-50681757D01*
X236182582Y-50682043D01*
X236486098Y-50556633D01*
X236718517Y-50324619D01*
X236844457Y-50021323D01*
X236844743Y-49692918D01*
X236719333Y-49389402D01*
X236487319Y-49156983D01*
X236184023Y-49031043D01*
X236071066Y-49030945D01*
X233614173Y-46574053D01*
X233703217Y-46126400D01*
X233609513Y-45655317D01*
X233342665Y-45255952D01*
X232943300Y-44989104D01*
X232472217Y-44895400D01*
X232423983Y-44895400D01*
X231952900Y-44989104D01*
X231553535Y-45255952D01*
X231552531Y-45257454D01*
X231498311Y-45176309D01*
X231032168Y-44710166D01*
X231115959Y-44587534D01*
X231146564Y-44436400D01*
X231146564Y-42736400D01*
X231119997Y-42595210D01*
X231036554Y-42465535D01*
X230909234Y-42378541D01*
X230758100Y-42347936D01*
X229058100Y-42347936D01*
X228916910Y-42374503D01*
X228787235Y-42457946D01*
X228700241Y-42585266D01*
X228669636Y-42736400D01*
X228669636Y-44436400D01*
X228696203Y-44577590D01*
X228779646Y-44707265D01*
X228906966Y-44794259D01*
X229058100Y-44824864D01*
X229710026Y-44824864D01*
X229797721Y-44912559D01*
X229412900Y-44989104D01*
X229041300Y-45237400D01*
X229006336Y-45237400D01*
X226472718Y-42703782D01*
X226184305Y-42511071D01*
X225844100Y-42443400D01*
X225503895Y-42511071D01*
X225215482Y-42703782D01*
X225022771Y-42992195D01*
X224955100Y-43332400D01*
X225022771Y-43672605D01*
X225215482Y-43961018D01*
X228009482Y-46755018D01*
X228297894Y-46947729D01*
X228638100Y-47015400D01*
X229041300Y-47015400D01*
X229412900Y-47263696D01*
X229883983Y-47357400D01*
X229932217Y-47357400D01*
X230403300Y-47263696D01*
X230631101Y-47111484D01*
X230631101Y-47681316D01*
X230403300Y-47529104D01*
X229932217Y-47435400D01*
X229883983Y-47435400D01*
X229412900Y-47529104D01*
X229013535Y-47795952D01*
X228746687Y-48195317D01*
X228652983Y-48666400D01*
X228742027Y-49114053D01*
X227337680Y-50518400D01*
X217971154Y-50518400D01*
X217722548Y-50146335D01*
X217318771Y-49876540D01*
X216842483Y-49781800D01*
X216793717Y-49781800D01*
X216317429Y-49876540D01*
X215913652Y-50146335D01*
X215643857Y-50550112D01*
X215549117Y-51026400D01*
X215643857Y-51502688D01*
X215913652Y-51906465D01*
X216317429Y-52176260D01*
X216793717Y-52271000D01*
X216842483Y-52271000D01*
X217318771Y-52176260D01*
X217722548Y-51906465D01*
X217971154Y-51534400D01*
X227548100Y-51534400D01*
X227742503Y-51495731D01*
X227907310Y-51385610D01*
X229476561Y-49816359D01*
X229883983Y-49897400D01*
X229932217Y-49897400D01*
X230403300Y-49803696D01*
X230631101Y-49651484D01*
X230631101Y-50221316D01*
X230403300Y-50069104D01*
X229932217Y-49975400D01*
X229883983Y-49975400D01*
X229412900Y-50069104D01*
X229013535Y-50335952D01*
X228746687Y-50735317D01*
X228652983Y-51206400D01*
X228742027Y-51654053D01*
X228698893Y-51697187D01*
X228698890Y-51697189D01*
X228201279Y-52194801D01*
X217681699Y-52194801D01*
X217519549Y-52227055D01*
X217487295Y-52233470D01*
X217322488Y-52343591D01*
X217261025Y-52405054D01*
X216842483Y-52321800D01*
X216793717Y-52321800D01*
X216317429Y-52416540D01*
X215913652Y-52686335D01*
X215643857Y-53090112D01*
X215549117Y-53566400D01*
X215643857Y-54042688D01*
X215913652Y-54446465D01*
X216317429Y-54716260D01*
X216793717Y-54811000D01*
X216842483Y-54811000D01*
X217318771Y-54716260D01*
X217722548Y-54446465D01*
X217992343Y-54042688D01*
X218087083Y-53566400D01*
X218016350Y-53210801D01*
X228411699Y-53210801D01*
X228606102Y-53172132D01*
X228770909Y-53062011D01*
X229417311Y-52415610D01*
X229417313Y-52415607D01*
X229476561Y-52356359D01*
X229883983Y-52437400D01*
X229932217Y-52437400D01*
X230403300Y-52343696D01*
X230631101Y-52191484D01*
X230631101Y-52761316D01*
X230403300Y-52609104D01*
X229932217Y-52515400D01*
X229883983Y-52515400D01*
X229412900Y-52609104D01*
X229013535Y-52875952D01*
X228771354Y-53238400D01*
X219178100Y-53238400D01*
X218983697Y-53277069D01*
X218818890Y-53387190D01*
X217261026Y-54945054D01*
X216842483Y-54861800D01*
X216793717Y-54861800D01*
X216317429Y-54956540D01*
X215913652Y-55226335D01*
X215643857Y-55630112D01*
X215549117Y-56106400D01*
X215643857Y-56582688D01*
X215913652Y-56986465D01*
X216317429Y-57256260D01*
X216793717Y-57351000D01*
X216842483Y-57351000D01*
X217318771Y-57256260D01*
X217722548Y-56986465D01*
X217992343Y-56582688D01*
X218087083Y-56106400D01*
X217995738Y-55647182D01*
X219388520Y-54254400D01*
X228771354Y-54254400D01*
X229013535Y-54616848D01*
X229412900Y-54883696D01*
X229883983Y-54977400D01*
X229932217Y-54977400D01*
X230403300Y-54883696D01*
X230631101Y-54731484D01*
X230631101Y-55301316D01*
X230403300Y-55149104D01*
X229932217Y-55055400D01*
X229883983Y-55055400D01*
X229412900Y-55149104D01*
X229013535Y-55415952D01*
X228746687Y-55815317D01*
X228652983Y-56286400D01*
X228742026Y-56734053D01*
X224797680Y-60678400D01*
X217971154Y-60678400D01*
X217722548Y-60306335D01*
X217318771Y-60036540D01*
X216842483Y-59941800D01*
X216793717Y-59941800D01*
X216317429Y-60036540D01*
X215913652Y-60306335D01*
X215643857Y-60710112D01*
X215549117Y-61186400D01*
X215643857Y-61662688D01*
X215913652Y-62066465D01*
X216317429Y-62336260D01*
X216793717Y-62431000D01*
X216842483Y-62431000D01*
X217318771Y-62336260D01*
X217722548Y-62066465D01*
X217971154Y-61694400D01*
X225008100Y-61694400D01*
X225202503Y-61655731D01*
X225367310Y-61545610D01*
X229476562Y-57436359D01*
X229883983Y-57517400D01*
X229932217Y-57517400D01*
X230403300Y-57423696D01*
X230631101Y-57271484D01*
X230631101Y-57841316D01*
X230403300Y-57689104D01*
X229932217Y-57595400D01*
X229883983Y-57595400D01*
X229412900Y-57689104D01*
X229013535Y-57955952D01*
X228746687Y-58355317D01*
X228652983Y-58826400D01*
X228742026Y-59274053D01*
X224797680Y-63218400D01*
X217971154Y-63218400D01*
X217722548Y-62846335D01*
X217318771Y-62576540D01*
X216842483Y-62481800D01*
X216793717Y-62481800D01*
X216317429Y-62576540D01*
X215913652Y-62846335D01*
X215643857Y-63250112D01*
X215549117Y-63726400D01*
X215643857Y-64202688D01*
X215913652Y-64606465D01*
X216317429Y-64876260D01*
X216793717Y-64971000D01*
X216842483Y-64971000D01*
X217318771Y-64876260D01*
X217722548Y-64606465D01*
X217971154Y-64234400D01*
X225008100Y-64234400D01*
X225202503Y-64195731D01*
X225367310Y-64085610D01*
X229476562Y-59976359D01*
X229883983Y-60057400D01*
X229932217Y-60057400D01*
X230403300Y-59963696D01*
X230631101Y-59811484D01*
X230631101Y-60381316D01*
X230403300Y-60229104D01*
X229932217Y-60135400D01*
X229883983Y-60135400D01*
X229412900Y-60229104D01*
X229013535Y-60495952D01*
X228746687Y-60895317D01*
X228652983Y-61366400D01*
X228742027Y-61814053D01*
X222257680Y-68298400D01*
X217971154Y-68298400D01*
X217722548Y-67926335D01*
X217318771Y-67656540D01*
X216842483Y-67561800D01*
X216793717Y-67561800D01*
X216317429Y-67656540D01*
X215913652Y-67926335D01*
X215643857Y-68330112D01*
X215549117Y-68806400D01*
X215643857Y-69282688D01*
X215913652Y-69686465D01*
X216317429Y-69956260D01*
X216793717Y-70051000D01*
X216842483Y-70051000D01*
X217318771Y-69956260D01*
X217722548Y-69686465D01*
X217971154Y-69314400D01*
X222468100Y-69314400D01*
X222662503Y-69275731D01*
X222827310Y-69165610D01*
X229476561Y-62516359D01*
X229883983Y-62597400D01*
X229932217Y-62597400D01*
X230403300Y-62503696D01*
X230631101Y-62351484D01*
X230631101Y-62921316D01*
X230403300Y-62769104D01*
X229932217Y-62675400D01*
X229883983Y-62675400D01*
X229412900Y-62769104D01*
X229013535Y-63035952D01*
X228746687Y-63435317D01*
X228652983Y-63906400D01*
X228742027Y-64354053D01*
X222257680Y-70838400D01*
X217971154Y-70838400D01*
X217722548Y-70466335D01*
X217318771Y-70196540D01*
X216842483Y-70101800D01*
X216793717Y-70101800D01*
X216317429Y-70196540D01*
X215913652Y-70466335D01*
X215643857Y-70870112D01*
X215549117Y-71346400D01*
X215643857Y-71822688D01*
X215913652Y-72226465D01*
X216317429Y-72496260D01*
X216793717Y-72591000D01*
X216842483Y-72591000D01*
X217318771Y-72496260D01*
X217722548Y-72226465D01*
X217971154Y-71854400D01*
X222468100Y-71854400D01*
X222662503Y-71815731D01*
X222827310Y-71705610D01*
X229476561Y-65056359D01*
X229883983Y-65137400D01*
X229932217Y-65137400D01*
X230403300Y-65043696D01*
X230631101Y-64891484D01*
X230631101Y-65461316D01*
X230403300Y-65309104D01*
X229932217Y-65215400D01*
X229883983Y-65215400D01*
X229412900Y-65309104D01*
X229013535Y-65575952D01*
X228746687Y-65975317D01*
X228652983Y-66446400D01*
X228742027Y-66894053D01*
X222257680Y-73378400D01*
X217971154Y-73378400D01*
X217722548Y-73006335D01*
X217318771Y-72736540D01*
X216842483Y-72641800D01*
X216793717Y-72641800D01*
X216317429Y-72736540D01*
X215913652Y-73006335D01*
X215643857Y-73410112D01*
X215549117Y-73886400D01*
X215643857Y-74362688D01*
X215913652Y-74766465D01*
X216317429Y-75036260D01*
X216793717Y-75131000D01*
X216842483Y-75131000D01*
X217318771Y-75036260D01*
X217722548Y-74766465D01*
X217971154Y-74394400D01*
X222065680Y-74394400D01*
X222029087Y-74430993D01*
X221758618Y-74430757D01*
X221455102Y-74556167D01*
X221222683Y-74788181D01*
X221096743Y-75091477D01*
X221096457Y-75419882D01*
X221221867Y-75723398D01*
X221453881Y-75955817D01*
X221757177Y-76081757D01*
X222085582Y-76082043D01*
X222285795Y-75999317D01*
X219826712Y-78458400D01*
X217971154Y-78458400D01*
X217722548Y-78086335D01*
X217318771Y-77816540D01*
X216842483Y-77721800D01*
X216793717Y-77721800D01*
X216317429Y-77816540D01*
X215913652Y-78086335D01*
X215643857Y-78490112D01*
X215549117Y-78966400D01*
X215643857Y-79442688D01*
X215913652Y-79846465D01*
X216317429Y-80116260D01*
X216793717Y-80211000D01*
X216842483Y-80211000D01*
X217318771Y-80116260D01*
X217722548Y-79846465D01*
X217971154Y-79474400D01*
X220037132Y-79474400D01*
X220231535Y-79435731D01*
X220396342Y-79325610D01*
X225677408Y-74044544D01*
X225793867Y-74326398D01*
X225993788Y-74526668D01*
X225999981Y-74557801D01*
X225949618Y-74557757D01*
X225646102Y-74683167D01*
X225413683Y-74915181D01*
X225287743Y-75218477D01*
X225287457Y-75546882D01*
X225412867Y-75850398D01*
X225605100Y-76042967D01*
X225605100Y-78812936D01*
X225344100Y-78812936D01*
X225202910Y-78839503D01*
X225073235Y-78922946D01*
X224986241Y-79050266D01*
X224955636Y-79201400D01*
X224955636Y-80651400D01*
X224982203Y-80792590D01*
X225065646Y-80922265D01*
X225192966Y-81009259D01*
X225344100Y-81039864D01*
X225794100Y-81039864D01*
X225897770Y-81020357D01*
X225994100Y-81039864D01*
X226444100Y-81039864D01*
X226547770Y-81020357D01*
X226644100Y-81039864D01*
X227011100Y-81039864D01*
X227011100Y-81894979D01*
X226664680Y-82241400D01*
X223851402Y-82241400D01*
X223660319Y-82049983D01*
X223357023Y-81924043D01*
X223028618Y-81923757D01*
X222725102Y-82049167D01*
X222492683Y-82281181D01*
X222366743Y-82584477D01*
X222366457Y-82912882D01*
X222491867Y-83216398D01*
X222723881Y-83448817D01*
X223027177Y-83574757D01*
X223355582Y-83575043D01*
X223659098Y-83449633D01*
X223851667Y-83257400D01*
X226875100Y-83257400D01*
X227069503Y-83218731D01*
X227234310Y-83108610D01*
X227764100Y-82578821D01*
X227764100Y-83106098D01*
X227572683Y-83297181D01*
X227446743Y-83600477D01*
X227446457Y-83928882D01*
X227563604Y-84212399D01*
X225046101Y-84212399D01*
X224851698Y-84251068D01*
X224686891Y-84361188D01*
X224559890Y-84488190D01*
X224449769Y-84652997D01*
X224412978Y-84837957D01*
X224336241Y-84950266D01*
X224305636Y-85101400D01*
X224305636Y-86551400D01*
X224329239Y-86676841D01*
X223380879Y-87625201D01*
X223270758Y-87790008D01*
X223232089Y-87984411D01*
X223232089Y-98198176D01*
X223111471Y-98278771D01*
X220098842Y-101291400D01*
X210111100Y-101291400D01*
X210111100Y-99286400D01*
X213009117Y-99286400D01*
X213103857Y-99762688D01*
X213373652Y-100166465D01*
X213777429Y-100436260D01*
X214253717Y-100531000D01*
X214302483Y-100531000D01*
X214778771Y-100436260D01*
X215182548Y-100166465D01*
X215452343Y-99762688D01*
X215547083Y-99286400D01*
X215549117Y-99286400D01*
X215643857Y-99762688D01*
X215913652Y-100166465D01*
X216317429Y-100436260D01*
X216793717Y-100531000D01*
X216842483Y-100531000D01*
X217318771Y-100436260D01*
X217722548Y-100166465D01*
X217992343Y-99762688D01*
X218087083Y-99286400D01*
X217992343Y-98810112D01*
X217722548Y-98406335D01*
X217318771Y-98136540D01*
X216842483Y-98041800D01*
X216793717Y-98041800D01*
X216317429Y-98136540D01*
X215913652Y-98406335D01*
X215643857Y-98810112D01*
X215549117Y-99286400D01*
X215547083Y-99286400D01*
X215452343Y-98810112D01*
X215182548Y-98406335D01*
X214778771Y-98136540D01*
X214302483Y-98041800D01*
X214253717Y-98041800D01*
X213777429Y-98136540D01*
X213373652Y-98406335D01*
X213103857Y-98810112D01*
X213009117Y-99286400D01*
X210111100Y-99286400D01*
X210111100Y-96746400D01*
X213009117Y-96746400D01*
X213103857Y-97222688D01*
X213373652Y-97626465D01*
X213777429Y-97896260D01*
X214253717Y-97991000D01*
X214302483Y-97991000D01*
X214778771Y-97896260D01*
X215182548Y-97626465D01*
X215452343Y-97222688D01*
X215547083Y-96746400D01*
X215549117Y-96746400D01*
X215643857Y-97222688D01*
X215913652Y-97626465D01*
X216317429Y-97896260D01*
X216793717Y-97991000D01*
X216842483Y-97991000D01*
X217318771Y-97896260D01*
X217722548Y-97626465D01*
X217992343Y-97222688D01*
X218087083Y-96746400D01*
X217992343Y-96270112D01*
X217722548Y-95866335D01*
X217318771Y-95596540D01*
X216842483Y-95501800D01*
X216793717Y-95501800D01*
X216317429Y-95596540D01*
X215913652Y-95866335D01*
X215643857Y-96270112D01*
X215549117Y-96746400D01*
X215547083Y-96746400D01*
X215452343Y-96270112D01*
X215182548Y-95866335D01*
X214778771Y-95596540D01*
X214302483Y-95501800D01*
X214253717Y-95501800D01*
X213777429Y-95596540D01*
X213373652Y-95866335D01*
X213103857Y-96270112D01*
X213009117Y-96746400D01*
X210111100Y-96746400D01*
X210111100Y-94206400D01*
X213009117Y-94206400D01*
X213103857Y-94682688D01*
X213373652Y-95086465D01*
X213777429Y-95356260D01*
X214253717Y-95451000D01*
X214302483Y-95451000D01*
X214778771Y-95356260D01*
X215182548Y-95086465D01*
X215452343Y-94682688D01*
X215547083Y-94206400D01*
X215549117Y-94206400D01*
X215643857Y-94682688D01*
X215913652Y-95086465D01*
X216317429Y-95356260D01*
X216793717Y-95451000D01*
X216842483Y-95451000D01*
X217318771Y-95356260D01*
X217722548Y-95086465D01*
X217992343Y-94682688D01*
X218087083Y-94206400D01*
X217992343Y-93730112D01*
X217722548Y-93326335D01*
X217318771Y-93056540D01*
X216842483Y-92961800D01*
X216793717Y-92961800D01*
X216317429Y-93056540D01*
X215913652Y-93326335D01*
X215643857Y-93730112D01*
X215549117Y-94206400D01*
X215547083Y-94206400D01*
X215452343Y-93730112D01*
X215182548Y-93326335D01*
X214778771Y-93056540D01*
X214302483Y-92961800D01*
X214253717Y-92961800D01*
X213777429Y-93056540D01*
X213373652Y-93326335D01*
X213103857Y-93730112D01*
X213009117Y-94206400D01*
X210111100Y-94206400D01*
X210111100Y-91666400D01*
X213009117Y-91666400D01*
X213103857Y-92142688D01*
X213373652Y-92546465D01*
X213777429Y-92816260D01*
X214253717Y-92911000D01*
X214302483Y-92911000D01*
X214778771Y-92816260D01*
X215182548Y-92546465D01*
X215452343Y-92142688D01*
X215547083Y-91666400D01*
X215549117Y-91666400D01*
X215643857Y-92142688D01*
X215913652Y-92546465D01*
X216317429Y-92816260D01*
X216793717Y-92911000D01*
X216842483Y-92911000D01*
X217318771Y-92816260D01*
X217722548Y-92546465D01*
X217992343Y-92142688D01*
X218087083Y-91666400D01*
X217992343Y-91190112D01*
X217722548Y-90786335D01*
X217318771Y-90516540D01*
X216842483Y-90421800D01*
X216793717Y-90421800D01*
X216317429Y-90516540D01*
X215913652Y-90786335D01*
X215643857Y-91190112D01*
X215549117Y-91666400D01*
X215547083Y-91666400D01*
X215452343Y-91190112D01*
X215182548Y-90786335D01*
X214778771Y-90516540D01*
X214302483Y-90421800D01*
X214253717Y-90421800D01*
X213777429Y-90516540D01*
X213373652Y-90786335D01*
X213103857Y-91190112D01*
X213009117Y-91666400D01*
X210111100Y-91666400D01*
X210111100Y-89126400D01*
X213009117Y-89126400D01*
X213103857Y-89602688D01*
X213373652Y-90006465D01*
X213777429Y-90276260D01*
X214253717Y-90371000D01*
X214302483Y-90371000D01*
X214778771Y-90276260D01*
X215182548Y-90006465D01*
X215452343Y-89602688D01*
X215547083Y-89126400D01*
X215549117Y-89126400D01*
X215643857Y-89602688D01*
X215913652Y-90006465D01*
X216317429Y-90276260D01*
X216793717Y-90371000D01*
X216842483Y-90371000D01*
X217318771Y-90276260D01*
X217722548Y-90006465D01*
X217992343Y-89602688D01*
X218087083Y-89126400D01*
X217992343Y-88650112D01*
X217722548Y-88246335D01*
X217318771Y-87976540D01*
X216842483Y-87881800D01*
X216793717Y-87881800D01*
X216317429Y-87976540D01*
X215913652Y-88246335D01*
X215643857Y-88650112D01*
X215549117Y-89126400D01*
X215547083Y-89126400D01*
X215452343Y-88650112D01*
X215182548Y-88246335D01*
X214778771Y-87976540D01*
X214302483Y-87881800D01*
X214253717Y-87881800D01*
X213777429Y-87976540D01*
X213373652Y-88246335D01*
X213103857Y-88650112D01*
X213009117Y-89126400D01*
X210111100Y-89126400D01*
X210111100Y-85278096D01*
X210043429Y-84937890D01*
X209850718Y-84649478D01*
X197352523Y-72151283D01*
X197064111Y-71958572D01*
X196723905Y-71890901D01*
X187441599Y-71890901D01*
X187101394Y-71958571D01*
X186812981Y-72151283D01*
X186368482Y-72595782D01*
X186175771Y-72884194D01*
X186108100Y-73224400D01*
X186108100Y-76891311D01*
X185981235Y-76972946D01*
X185894241Y-77100266D01*
X185863636Y-77251400D01*
X185863636Y-78501400D01*
X185890203Y-78642590D01*
X185958933Y-78749400D01*
X185306575Y-78749400D01*
X184557100Y-77999924D01*
X184557100Y-76352400D01*
X184471008Y-75919585D01*
X184225838Y-75552662D01*
X183858915Y-75307492D01*
X183426100Y-75221400D01*
X182993285Y-75307492D01*
X182626362Y-75552662D01*
X182381192Y-75919585D01*
X182295100Y-76352400D01*
X182295100Y-78468400D01*
X182381192Y-78901215D01*
X182626362Y-79268138D01*
X184038360Y-80680135D01*
X184038362Y-80680138D01*
X184400731Y-80922265D01*
X184405285Y-80925308D01*
X184838100Y-81011401D01*
X184838105Y-81011400D01*
X186301241Y-81011400D01*
X186338100Y-81018864D01*
X188157362Y-81018864D01*
X188134290Y-81041936D01*
X186338100Y-81041936D01*
X186298433Y-81049400D01*
X182426564Y-81049400D01*
X182426564Y-80280400D01*
X182399997Y-80139210D01*
X182316554Y-80009535D01*
X182189234Y-79922541D01*
X182038100Y-79891936D01*
X180038100Y-79891936D01*
X179896910Y-79918503D01*
X179767235Y-80001946D01*
X179680241Y-80129266D01*
X179649636Y-80280400D01*
X168675992Y-80280400D01*
X168582483Y-80261800D01*
X168533717Y-80261800D01*
X168057429Y-80356540D01*
X167653652Y-80626335D01*
X167383857Y-81030112D01*
X167289117Y-81506400D01*
X167287083Y-81506400D01*
X167192343Y-81030112D01*
X166922548Y-80626335D01*
X166518771Y-80356540D01*
X166042483Y-80261800D01*
X165993717Y-80261800D01*
X165517429Y-80356540D01*
X165113652Y-80626335D01*
X164843857Y-81030112D01*
X164749117Y-81506400D01*
X157052370Y-81506400D01*
X157052370Y-78966400D01*
X164749117Y-78966400D01*
X164843857Y-79442688D01*
X165113652Y-79846465D01*
X165517429Y-80116260D01*
X165993717Y-80211000D01*
X166042483Y-80211000D01*
X166518771Y-80116260D01*
X166922548Y-79846465D01*
X167192343Y-79442688D01*
X167287083Y-78966400D01*
X167289117Y-78966400D01*
X167383857Y-79442688D01*
X167653652Y-79846465D01*
X168057429Y-80116260D01*
X168533717Y-80211000D01*
X168582483Y-80211000D01*
X169058771Y-80116260D01*
X169462548Y-79846465D01*
X169732343Y-79442688D01*
X169827083Y-78966400D01*
X169732343Y-78490112D01*
X169462548Y-78086335D01*
X169058771Y-77816540D01*
X168582483Y-77721800D01*
X168533717Y-77721800D01*
X168057429Y-77816540D01*
X167653652Y-78086335D01*
X167383857Y-78490112D01*
X167289117Y-78966400D01*
X167287083Y-78966400D01*
X167192343Y-78490112D01*
X166922548Y-78086335D01*
X166518771Y-77816540D01*
X166042483Y-77721800D01*
X165993717Y-77721800D01*
X165517429Y-77816540D01*
X165113652Y-78086335D01*
X164843857Y-78490112D01*
X164749117Y-78966400D01*
X157052370Y-78966400D01*
X157052370Y-76426400D01*
X164749117Y-76426400D01*
X164843857Y-76902688D01*
X165113652Y-77306465D01*
X165517429Y-77576260D01*
X165993717Y-77671000D01*
X166042483Y-77671000D01*
X166518771Y-77576260D01*
X166922548Y-77306465D01*
X167192343Y-76902688D01*
X167287083Y-76426400D01*
X167289117Y-76426400D01*
X167383857Y-76902688D01*
X167653652Y-77306465D01*
X168057429Y-77576260D01*
X168533717Y-77671000D01*
X168582483Y-77671000D01*
X169058771Y-77576260D01*
X169462548Y-77306465D01*
X169732343Y-76902688D01*
X169827083Y-76426400D01*
X169732343Y-75950112D01*
X169462548Y-75546335D01*
X169058771Y-75276540D01*
X168582483Y-75181800D01*
X168533717Y-75181800D01*
X168057429Y-75276540D01*
X167653652Y-75546335D01*
X167383857Y-75950112D01*
X167289117Y-76426400D01*
X167287083Y-76426400D01*
X167192343Y-75950112D01*
X166922548Y-75546335D01*
X166518771Y-75276540D01*
X166042483Y-75181800D01*
X165993717Y-75181800D01*
X165517429Y-75276540D01*
X165113652Y-75546335D01*
X164843857Y-75950112D01*
X164749117Y-76426400D01*
X157052370Y-76426400D01*
X157052370Y-73886400D01*
X164749117Y-73886400D01*
X164843857Y-74362688D01*
X165113652Y-74766465D01*
X165517429Y-75036260D01*
X165993717Y-75131000D01*
X166042483Y-75131000D01*
X166518771Y-75036260D01*
X166922548Y-74766465D01*
X167192343Y-74362688D01*
X167287083Y-73886400D01*
X167289117Y-73886400D01*
X167383857Y-74362688D01*
X167653652Y-74766465D01*
X168057429Y-75036260D01*
X168533717Y-75131000D01*
X168582483Y-75131000D01*
X169058771Y-75036260D01*
X169462548Y-74766465D01*
X169732343Y-74362688D01*
X169827083Y-73886400D01*
X169732343Y-73410112D01*
X169462548Y-73006335D01*
X169058771Y-72736540D01*
X168582483Y-72641800D01*
X168533717Y-72641800D01*
X168057429Y-72736540D01*
X167653652Y-73006335D01*
X167383857Y-73410112D01*
X167289117Y-73886400D01*
X167287083Y-73886400D01*
X167192343Y-73410112D01*
X166922548Y-73006335D01*
X166518771Y-72736540D01*
X166042483Y-72641800D01*
X165993717Y-72641800D01*
X165517429Y-72736540D01*
X165113652Y-73006335D01*
X164843857Y-73410112D01*
X164749117Y-73886400D01*
X157052370Y-73886400D01*
X157052370Y-71346400D01*
X164749117Y-71346400D01*
X164843857Y-71822688D01*
X165113652Y-72226465D01*
X165517429Y-72496260D01*
X165993717Y-72591000D01*
X166042483Y-72591000D01*
X166518771Y-72496260D01*
X166922548Y-72226465D01*
X167192343Y-71822688D01*
X167287083Y-71346400D01*
X167289117Y-71346400D01*
X167383857Y-71822688D01*
X167653652Y-72226465D01*
X168057429Y-72496260D01*
X168533717Y-72591000D01*
X168582483Y-72591000D01*
X169058771Y-72496260D01*
X169462548Y-72226465D01*
X169732343Y-71822688D01*
X169827083Y-71346400D01*
X169732343Y-70870112D01*
X169462548Y-70466335D01*
X169058771Y-70196540D01*
X168582483Y-70101800D01*
X168533717Y-70101800D01*
X168057429Y-70196540D01*
X167653652Y-70466335D01*
X167383857Y-70870112D01*
X167289117Y-71346400D01*
X167287083Y-71346400D01*
X167192343Y-70870112D01*
X166922548Y-70466335D01*
X166518771Y-70196540D01*
X166042483Y-70101800D01*
X165993717Y-70101800D01*
X165517429Y-70196540D01*
X165113652Y-70466335D01*
X164843857Y-70870112D01*
X164749117Y-71346400D01*
X157052370Y-71346400D01*
X157052370Y-68806400D01*
X164749117Y-68806400D01*
X164843857Y-69282688D01*
X165113652Y-69686465D01*
X165517429Y-69956260D01*
X165993717Y-70051000D01*
X166042483Y-70051000D01*
X166518771Y-69956260D01*
X166922548Y-69686465D01*
X167192343Y-69282688D01*
X167287083Y-68806400D01*
X167289117Y-68806400D01*
X167383857Y-69282688D01*
X167653652Y-69686465D01*
X168057429Y-69956260D01*
X168533717Y-70051000D01*
X168582483Y-70051000D01*
X169058771Y-69956260D01*
X169462548Y-69686465D01*
X169711154Y-69314400D01*
X169779414Y-69314400D01*
X169973817Y-69275731D01*
X170138624Y-69165610D01*
X170317834Y-68986400D01*
X193092983Y-68986400D01*
X193186687Y-69457483D01*
X193453535Y-69856848D01*
X193852900Y-70123696D01*
X194323983Y-70217400D01*
X194372217Y-70217400D01*
X194843300Y-70123696D01*
X195242665Y-69856848D01*
X195509513Y-69457483D01*
X195603217Y-68986400D01*
X195632983Y-68986400D01*
X195726687Y-69457483D01*
X195993535Y-69856848D01*
X196392900Y-70123696D01*
X196863983Y-70217400D01*
X196912217Y-70217400D01*
X197383300Y-70123696D01*
X197782665Y-69856848D01*
X198049513Y-69457483D01*
X198143217Y-68986400D01*
X198049513Y-68515317D01*
X197782665Y-68115952D01*
X197383300Y-67849104D01*
X196912217Y-67755400D01*
X196863983Y-67755400D01*
X196392900Y-67849104D01*
X195993535Y-68115952D01*
X195726687Y-68515317D01*
X195632983Y-68986400D01*
X195603217Y-68986400D01*
X195509513Y-68515317D01*
X195242665Y-68115952D01*
X194843300Y-67849104D01*
X194372217Y-67755400D01*
X194323983Y-67755400D01*
X193852900Y-67849104D01*
X193453535Y-68115952D01*
X193186687Y-68515317D01*
X193092983Y-68986400D01*
X170317834Y-68986400D01*
X172429834Y-66874400D01*
X173256798Y-66874400D01*
X173447881Y-67065817D01*
X173751177Y-67191757D01*
X174079582Y-67192043D01*
X174383098Y-67066633D01*
X174615517Y-66834619D01*
X174741457Y-66531323D01*
X174741530Y-66446400D01*
X193092983Y-66446400D01*
X193186687Y-66917483D01*
X193453535Y-67316848D01*
X193852900Y-67583696D01*
X194323983Y-67677400D01*
X194372217Y-67677400D01*
X194843300Y-67583696D01*
X195242665Y-67316848D01*
X195509513Y-66917483D01*
X195603217Y-66446400D01*
X195632983Y-66446400D01*
X195726687Y-66917483D01*
X195993535Y-67316848D01*
X196392900Y-67583696D01*
X196863983Y-67677400D01*
X196912217Y-67677400D01*
X197383300Y-67583696D01*
X197782665Y-67316848D01*
X198049513Y-66917483D01*
X198143217Y-66446400D01*
X198049513Y-65975317D01*
X197782665Y-65575952D01*
X197383300Y-65309104D01*
X196912217Y-65215400D01*
X196863983Y-65215400D01*
X196392900Y-65309104D01*
X195993535Y-65575952D01*
X195726687Y-65975317D01*
X195632983Y-66446400D01*
X195603217Y-66446400D01*
X195509513Y-65975317D01*
X195242665Y-65575952D01*
X194843300Y-65309104D01*
X194372217Y-65215400D01*
X194323983Y-65215400D01*
X193852900Y-65309104D01*
X193453535Y-65575952D01*
X193186687Y-65975317D01*
X193092983Y-66446400D01*
X174741530Y-66446400D01*
X174741743Y-66202918D01*
X174616333Y-65899402D01*
X174384319Y-65666983D01*
X174081023Y-65541043D01*
X173752618Y-65540757D01*
X173449102Y-65666167D01*
X173256533Y-65858400D01*
X172219414Y-65858400D01*
X172025010Y-65897069D01*
X171860204Y-66007190D01*
X169654213Y-68213181D01*
X169462548Y-67926335D01*
X169058771Y-67656540D01*
X168582483Y-67561800D01*
X168533717Y-67561800D01*
X168057429Y-67656540D01*
X167653652Y-67926335D01*
X167383857Y-68330112D01*
X167289117Y-68806400D01*
X167287083Y-68806400D01*
X167192343Y-68330112D01*
X166922548Y-67926335D01*
X166518771Y-67656540D01*
X166042483Y-67561800D01*
X165993717Y-67561800D01*
X165517429Y-67656540D01*
X165113652Y-67926335D01*
X164843857Y-68330112D01*
X164749117Y-68806400D01*
X157052370Y-68806400D01*
X157052370Y-66266400D01*
X164749117Y-66266400D01*
X164843857Y-66742688D01*
X165113652Y-67146465D01*
X165517429Y-67416260D01*
X165993717Y-67511000D01*
X166042483Y-67511000D01*
X166518771Y-67416260D01*
X166922548Y-67146465D01*
X167192343Y-66742688D01*
X167287083Y-66266400D01*
X167192343Y-65790112D01*
X166922548Y-65386335D01*
X166518771Y-65116540D01*
X166042483Y-65021800D01*
X165993717Y-65021800D01*
X165517429Y-65116540D01*
X165113652Y-65386335D01*
X164843857Y-65790112D01*
X164749117Y-66266400D01*
X157052370Y-66266400D01*
X157052370Y-61186400D01*
X164749117Y-61186400D01*
X164843857Y-61662688D01*
X165113652Y-62066465D01*
X165517429Y-62336260D01*
X165993717Y-62431000D01*
X166042483Y-62431000D01*
X166461026Y-62347746D01*
X166903491Y-62790212D01*
X167062410Y-62896398D01*
X167068298Y-62900332D01*
X167262701Y-62939001D01*
X167591735Y-62939001D01*
X167383857Y-63250112D01*
X167289117Y-63726400D01*
X167383857Y-64202688D01*
X167557792Y-64463001D01*
X167473122Y-64463001D01*
X167195738Y-64185618D01*
X167287083Y-63726400D01*
X167192343Y-63250112D01*
X166922548Y-62846335D01*
X166518771Y-62576540D01*
X166042483Y-62481800D01*
X165993717Y-62481800D01*
X165517429Y-62576540D01*
X165113652Y-62846335D01*
X164843857Y-63250112D01*
X164749117Y-63726400D01*
X164843857Y-64202688D01*
X165113652Y-64606465D01*
X165517429Y-64876260D01*
X165993717Y-64971000D01*
X166042483Y-64971000D01*
X166461026Y-64887746D01*
X166903491Y-65330212D01*
X167068298Y-65440332D01*
X167262701Y-65479001D01*
X167591735Y-65479001D01*
X167383857Y-65790112D01*
X167289117Y-66266400D01*
X167383857Y-66742688D01*
X167653652Y-67146465D01*
X168057429Y-67416260D01*
X168533717Y-67511000D01*
X168582483Y-67511000D01*
X169058771Y-67416260D01*
X169462548Y-67146465D01*
X169732343Y-66742688D01*
X169827083Y-66266400D01*
X169732343Y-65790112D01*
X169524465Y-65479001D01*
X181788499Y-65479001D01*
X181982902Y-65440332D01*
X182147709Y-65330211D01*
X183063520Y-64414400D01*
X193211354Y-64414400D01*
X193453535Y-64776848D01*
X193852900Y-65043696D01*
X194323983Y-65137400D01*
X194372217Y-65137400D01*
X194843300Y-65043696D01*
X195242665Y-64776848D01*
X195509513Y-64377483D01*
X195603217Y-63906400D01*
X195632983Y-63906400D01*
X195726687Y-64377483D01*
X195993535Y-64776848D01*
X196392900Y-65043696D01*
X196863983Y-65137400D01*
X196912217Y-65137400D01*
X197319639Y-65056359D01*
X211254100Y-78990821D01*
X211254100Y-84070400D01*
X211292769Y-84264803D01*
X211402890Y-84429610D01*
X213100462Y-86127182D01*
X213009117Y-86586400D01*
X213103857Y-87062688D01*
X213373652Y-87466465D01*
X213777429Y-87736260D01*
X214253717Y-87831000D01*
X214302483Y-87831000D01*
X214778771Y-87736260D01*
X215182548Y-87466465D01*
X215452343Y-87062688D01*
X215547083Y-86586400D01*
X215549117Y-86586400D01*
X215643857Y-87062688D01*
X215913652Y-87466465D01*
X216317429Y-87736260D01*
X216793717Y-87831000D01*
X216842483Y-87831000D01*
X217318771Y-87736260D01*
X217722548Y-87466465D01*
X217992343Y-87062688D01*
X218087083Y-86586400D01*
X217992343Y-86110112D01*
X217722548Y-85706335D01*
X217318771Y-85436540D01*
X216842483Y-85341800D01*
X216793717Y-85341800D01*
X216317429Y-85436540D01*
X215913652Y-85706335D01*
X215643857Y-86110112D01*
X215549117Y-86586400D01*
X215547083Y-86586400D01*
X215452343Y-86110112D01*
X215182548Y-85706335D01*
X214778771Y-85436540D01*
X214302483Y-85341800D01*
X214253717Y-85341800D01*
X213835174Y-85425054D01*
X212456520Y-84046400D01*
X213009117Y-84046400D01*
X213103857Y-84522688D01*
X213373652Y-84926465D01*
X213777429Y-85196260D01*
X214253717Y-85291000D01*
X214302483Y-85291000D01*
X214778771Y-85196260D01*
X215182548Y-84926465D01*
X215452343Y-84522688D01*
X215547083Y-84046400D01*
X215549117Y-84046400D01*
X215643857Y-84522688D01*
X215913652Y-84926465D01*
X216317429Y-85196260D01*
X216793717Y-85291000D01*
X216842483Y-85291000D01*
X217318771Y-85196260D01*
X217722548Y-84926465D01*
X217992343Y-84522688D01*
X218087083Y-84046400D01*
X217992343Y-83570112D01*
X217722548Y-83166335D01*
X217318771Y-82896540D01*
X216842483Y-82801800D01*
X216793717Y-82801800D01*
X216317429Y-82896540D01*
X215913652Y-83166335D01*
X215643857Y-83570112D01*
X215549117Y-84046400D01*
X215547083Y-84046400D01*
X215452343Y-83570112D01*
X215182548Y-83166335D01*
X214778771Y-82896540D01*
X214302483Y-82801800D01*
X214253717Y-82801800D01*
X213777429Y-82896540D01*
X213373652Y-83166335D01*
X213103857Y-83570112D01*
X213009117Y-84046400D01*
X212456520Y-84046400D01*
X212270100Y-83859980D01*
X212270100Y-81506400D01*
X213009117Y-81506400D01*
X213103857Y-81982688D01*
X213373652Y-82386465D01*
X213777429Y-82656260D01*
X214253717Y-82751000D01*
X214302483Y-82751000D01*
X214778771Y-82656260D01*
X215182548Y-82386465D01*
X215452343Y-81982688D01*
X215547083Y-81506400D01*
X215549117Y-81506400D01*
X215643857Y-81982688D01*
X215913652Y-82386465D01*
X216317429Y-82656260D01*
X216793717Y-82751000D01*
X216842483Y-82751000D01*
X217318771Y-82656260D01*
X217722548Y-82386465D01*
X217992343Y-81982688D01*
X218087083Y-81506400D01*
X217992343Y-81030112D01*
X217722548Y-80626335D01*
X217318771Y-80356540D01*
X216842483Y-80261800D01*
X216793717Y-80261800D01*
X216317429Y-80356540D01*
X215913652Y-80626335D01*
X215643857Y-81030112D01*
X215549117Y-81506400D01*
X215547083Y-81506400D01*
X215452343Y-81030112D01*
X215182548Y-80626335D01*
X214778771Y-80356540D01*
X214302483Y-80261800D01*
X214253717Y-80261800D01*
X213777429Y-80356540D01*
X213373652Y-80626335D01*
X213103857Y-81030112D01*
X213009117Y-81506400D01*
X212270100Y-81506400D01*
X212270100Y-78780400D01*
X212231431Y-78585997D01*
X212185121Y-78516689D01*
X212121311Y-78421190D01*
X198054173Y-64354053D01*
X198143217Y-63906400D01*
X198049513Y-63435317D01*
X197782665Y-63035952D01*
X197383300Y-62769104D01*
X196912217Y-62675400D01*
X196863983Y-62675400D01*
X196392900Y-62769104D01*
X195993535Y-63035952D01*
X195726687Y-63435317D01*
X195632983Y-63906400D01*
X195603217Y-63906400D01*
X195509513Y-63435317D01*
X195242665Y-63035952D01*
X194843300Y-62769104D01*
X194372217Y-62675400D01*
X194323983Y-62675400D01*
X193852900Y-62769104D01*
X193453535Y-63035952D01*
X193211354Y-63398400D01*
X182853100Y-63398400D01*
X182658696Y-63437069D01*
X182493890Y-63547190D01*
X181578079Y-64463001D01*
X169558408Y-64463001D01*
X169711154Y-64234400D01*
X178461100Y-64234400D01*
X178655503Y-64195731D01*
X178820310Y-64085610D01*
X181031520Y-61874400D01*
X193211354Y-61874400D01*
X193453535Y-62236848D01*
X193852900Y-62503696D01*
X194323983Y-62597400D01*
X194372217Y-62597400D01*
X194843300Y-62503696D01*
X195242665Y-62236848D01*
X195509513Y-61837483D01*
X195603217Y-61366400D01*
X195632983Y-61366400D01*
X195726687Y-61837483D01*
X195993535Y-62236848D01*
X196392900Y-62503696D01*
X196863983Y-62597400D01*
X196912217Y-62597400D01*
X197319639Y-62516359D01*
X213179774Y-78376494D01*
X213103857Y-78490112D01*
X213009117Y-78966400D01*
X213103857Y-79442688D01*
X213373652Y-79846465D01*
X213777429Y-80116260D01*
X214253717Y-80211000D01*
X214302483Y-80211000D01*
X214778771Y-80116260D01*
X215182548Y-79846465D01*
X215452343Y-79442688D01*
X215547083Y-78966400D01*
X215452343Y-78490112D01*
X215182548Y-78086335D01*
X214778771Y-77816540D01*
X214302483Y-77721800D01*
X214253717Y-77721800D01*
X214010332Y-77770212D01*
X213826052Y-77585932D01*
X214253717Y-77671000D01*
X214302483Y-77671000D01*
X214778771Y-77576260D01*
X215182548Y-77306465D01*
X215452343Y-76902688D01*
X215547083Y-76426400D01*
X215549117Y-76426400D01*
X215643857Y-76902688D01*
X215913652Y-77306465D01*
X216317429Y-77576260D01*
X216793717Y-77671000D01*
X216842483Y-77671000D01*
X217318771Y-77576260D01*
X217722548Y-77306465D01*
X217992343Y-76902688D01*
X218087083Y-76426400D01*
X217992343Y-75950112D01*
X217722548Y-75546335D01*
X217318771Y-75276540D01*
X216842483Y-75181800D01*
X216793717Y-75181800D01*
X216317429Y-75276540D01*
X215913652Y-75546335D01*
X215643857Y-75950112D01*
X215549117Y-76426400D01*
X215547083Y-76426400D01*
X215452343Y-75950112D01*
X215182548Y-75546335D01*
X214778771Y-75276540D01*
X214302483Y-75181800D01*
X214253717Y-75181800D01*
X213777429Y-75276540D01*
X213373652Y-75546335D01*
X213103857Y-75950112D01*
X213009117Y-76426400D01*
X213094185Y-76854065D01*
X198054173Y-61814053D01*
X198143217Y-61366400D01*
X198049513Y-60895317D01*
X197782665Y-60495952D01*
X197383300Y-60229104D01*
X196912217Y-60135400D01*
X196863983Y-60135400D01*
X196392900Y-60229104D01*
X195993535Y-60495952D01*
X195726687Y-60895317D01*
X195632983Y-61366400D01*
X195603217Y-61366400D01*
X195509513Y-60895317D01*
X195242665Y-60495952D01*
X194843300Y-60229104D01*
X194372217Y-60135400D01*
X194323983Y-60135400D01*
X193852900Y-60229104D01*
X193453535Y-60495952D01*
X193211354Y-60858400D01*
X180821100Y-60858400D01*
X180626697Y-60897069D01*
X180461890Y-61007190D01*
X178250680Y-63218400D01*
X175819265Y-63218400D01*
X176034098Y-63129633D01*
X176266517Y-62897619D01*
X176392457Y-62594323D01*
X176392743Y-62265918D01*
X176267333Y-61962402D01*
X176035319Y-61729983D01*
X175949626Y-61694400D01*
X176712751Y-61694400D01*
X176876881Y-61858817D01*
X177180177Y-61984757D01*
X177508582Y-61985043D01*
X177812098Y-61859633D01*
X178044517Y-61627619D01*
X178170457Y-61324323D01*
X178170743Y-60995918D01*
X178045333Y-60692402D01*
X177813319Y-60459983D01*
X177510023Y-60334043D01*
X177181618Y-60333757D01*
X176878102Y-60459167D01*
X176658486Y-60678400D01*
X169711154Y-60678400D01*
X169462548Y-60306335D01*
X169058771Y-60036540D01*
X168582483Y-59941800D01*
X168533717Y-59941800D01*
X168057429Y-60036540D01*
X167653652Y-60306335D01*
X167383857Y-60710112D01*
X167289117Y-61186400D01*
X167383857Y-61662688D01*
X167557792Y-61923001D01*
X167473122Y-61923001D01*
X167195738Y-61645618D01*
X167287083Y-61186400D01*
X167192343Y-60710112D01*
X166922548Y-60306335D01*
X166518771Y-60036540D01*
X166042483Y-59941800D01*
X165993717Y-59941800D01*
X165517429Y-60036540D01*
X165113652Y-60306335D01*
X164843857Y-60710112D01*
X164749117Y-61186400D01*
X157052370Y-61186400D01*
X157052370Y-58646400D01*
X164749117Y-58646400D01*
X164843857Y-59122688D01*
X165113652Y-59526465D01*
X165517429Y-59796260D01*
X165993717Y-59891000D01*
X166042483Y-59891000D01*
X166518771Y-59796260D01*
X166922548Y-59526465D01*
X167192343Y-59122688D01*
X167287083Y-58646400D01*
X167289117Y-58646400D01*
X167383857Y-59122688D01*
X167653652Y-59526465D01*
X168057429Y-59796260D01*
X168533717Y-59891000D01*
X168582483Y-59891000D01*
X169058771Y-59796260D01*
X169462548Y-59526465D01*
X169732343Y-59122688D01*
X169791278Y-58826400D01*
X193092983Y-58826400D01*
X193186687Y-59297483D01*
X193453535Y-59696848D01*
X193852900Y-59963696D01*
X194323983Y-60057400D01*
X194372217Y-60057400D01*
X194843300Y-59963696D01*
X195242665Y-59696848D01*
X195509513Y-59297483D01*
X195603217Y-58826400D01*
X195632983Y-58826400D01*
X195726687Y-59297483D01*
X195993535Y-59696848D01*
X196392900Y-59963696D01*
X196863983Y-60057400D01*
X196912217Y-60057400D01*
X197383300Y-59963696D01*
X197782665Y-59696848D01*
X198024846Y-59334400D01*
X199007680Y-59334400D01*
X213100462Y-73427182D01*
X213009117Y-73886400D01*
X213103857Y-74362688D01*
X213373652Y-74766465D01*
X213777429Y-75036260D01*
X214253717Y-75131000D01*
X214302483Y-75131000D01*
X214778771Y-75036260D01*
X215182548Y-74766465D01*
X215452343Y-74362688D01*
X215547083Y-73886400D01*
X215452343Y-73410112D01*
X215182548Y-73006335D01*
X214778771Y-72736540D01*
X214302483Y-72641800D01*
X214253717Y-72641800D01*
X213835174Y-72725054D01*
X199577310Y-58467190D01*
X199412503Y-58357069D01*
X199218100Y-58318400D01*
X198024846Y-58318400D01*
X197782665Y-57955952D01*
X197383300Y-57689104D01*
X196912217Y-57595400D01*
X196863983Y-57595400D01*
X196392900Y-57689104D01*
X195993535Y-57955952D01*
X195726687Y-58355317D01*
X195632983Y-58826400D01*
X195603217Y-58826400D01*
X195509513Y-58355317D01*
X195242665Y-57955952D01*
X194843300Y-57689104D01*
X194372217Y-57595400D01*
X194323983Y-57595400D01*
X193852900Y-57689104D01*
X193453535Y-57955952D01*
X193186687Y-58355317D01*
X193092983Y-58826400D01*
X169791278Y-58826400D01*
X169827083Y-58646400D01*
X169732343Y-58170112D01*
X169462548Y-57766335D01*
X169058771Y-57496540D01*
X168582483Y-57401800D01*
X168533717Y-57401800D01*
X168057429Y-57496540D01*
X167653652Y-57766335D01*
X167383857Y-58170112D01*
X167289117Y-58646400D01*
X167287083Y-58646400D01*
X167192343Y-58170112D01*
X166922548Y-57766335D01*
X166518771Y-57496540D01*
X166042483Y-57401800D01*
X165993717Y-57401800D01*
X165517429Y-57496540D01*
X165113652Y-57766335D01*
X164843857Y-58170112D01*
X164749117Y-58646400D01*
X157052370Y-58646400D01*
X157052370Y-56106400D01*
X164749117Y-56106400D01*
X164843857Y-56582688D01*
X165113652Y-56986465D01*
X165517429Y-57256260D01*
X165993717Y-57351000D01*
X166042483Y-57351000D01*
X166518771Y-57256260D01*
X166922548Y-56986465D01*
X167192343Y-56582688D01*
X167287083Y-56106400D01*
X167289117Y-56106400D01*
X167383857Y-56582688D01*
X167653652Y-56986465D01*
X168057429Y-57256260D01*
X168533717Y-57351000D01*
X168582483Y-57351000D01*
X169058771Y-57256260D01*
X169462548Y-56986465D01*
X169732343Y-56582688D01*
X169827083Y-56106400D01*
X169732343Y-55630112D01*
X169462548Y-55226335D01*
X169058771Y-54956540D01*
X168582483Y-54861800D01*
X168533717Y-54861800D01*
X168057429Y-54956540D01*
X167653652Y-55226335D01*
X167383857Y-55630112D01*
X167289117Y-56106400D01*
X167287083Y-56106400D01*
X167192343Y-55630112D01*
X166922548Y-55226335D01*
X166518771Y-54956540D01*
X166042483Y-54861800D01*
X165993717Y-54861800D01*
X165517429Y-54956540D01*
X165113652Y-55226335D01*
X164843857Y-55630112D01*
X164749117Y-56106400D01*
X157052370Y-56106400D01*
X157052370Y-38874189D01*
X158270311Y-38874189D01*
X158270311Y-46326611D01*
X158308980Y-46521014D01*
X158419101Y-46685821D01*
X164840462Y-53107182D01*
X164749117Y-53566400D01*
X164843857Y-54042688D01*
X165113652Y-54446465D01*
X165517429Y-54716260D01*
X165993717Y-54811000D01*
X166042483Y-54811000D01*
X166518771Y-54716260D01*
X166922548Y-54446465D01*
X167192343Y-54042688D01*
X167287083Y-53566400D01*
X167289117Y-53566400D01*
X167383857Y-54042688D01*
X167653652Y-54446465D01*
X168057429Y-54716260D01*
X168533717Y-54811000D01*
X168582483Y-54811000D01*
X169058771Y-54716260D01*
X169462548Y-54446465D01*
X169711154Y-54074400D01*
X169779414Y-54074400D01*
X169973817Y-54035731D01*
X170138624Y-53925610D01*
X175397834Y-48666400D01*
X193092983Y-48666400D01*
X193186687Y-49137483D01*
X193453535Y-49536848D01*
X193852900Y-49803696D01*
X194323983Y-49897400D01*
X194372217Y-49897400D01*
X194843300Y-49803696D01*
X195242665Y-49536848D01*
X195509513Y-49137483D01*
X195603217Y-48666400D01*
X195514173Y-48218747D01*
X195867519Y-47865401D01*
X195947131Y-47865401D01*
X195726687Y-48195317D01*
X195632983Y-48666400D01*
X195726687Y-49137483D01*
X195947131Y-49467399D01*
X195579101Y-49467399D01*
X195416951Y-49499653D01*
X195384697Y-49506068D01*
X195219891Y-49616189D01*
X194779639Y-50056441D01*
X194372217Y-49975400D01*
X194323983Y-49975400D01*
X193852900Y-50069104D01*
X193453535Y-50335952D01*
X193186687Y-50735317D01*
X193092983Y-51206400D01*
X193186687Y-51677483D01*
X193453535Y-52076848D01*
X193852900Y-52343696D01*
X194323983Y-52437400D01*
X194372217Y-52437400D01*
X194843300Y-52343696D01*
X195242665Y-52076848D01*
X195509513Y-51677483D01*
X195603217Y-51206400D01*
X195514173Y-50758747D01*
X195789521Y-50483399D01*
X195895014Y-50483399D01*
X195726687Y-50735317D01*
X195632983Y-51206400D01*
X195726687Y-51677483D01*
X195947131Y-52007399D01*
X195579101Y-52007399D01*
X195416951Y-52039653D01*
X195384697Y-52046068D01*
X195219891Y-52156189D01*
X194779639Y-52596441D01*
X194372217Y-52515400D01*
X194323983Y-52515400D01*
X193852900Y-52609104D01*
X193453535Y-52875952D01*
X193186687Y-53275317D01*
X193092983Y-53746400D01*
X193186687Y-54217483D01*
X193453535Y-54616848D01*
X193852900Y-54883696D01*
X194323983Y-54977400D01*
X194372217Y-54977400D01*
X194843300Y-54883696D01*
X195242665Y-54616848D01*
X195509513Y-54217483D01*
X195603217Y-53746400D01*
X195514173Y-53298747D01*
X195789521Y-53023399D01*
X195895014Y-53023399D01*
X195726687Y-53275317D01*
X195632983Y-53746400D01*
X195726687Y-54217483D01*
X195947131Y-54547399D01*
X195579101Y-54547399D01*
X195416951Y-54579653D01*
X195384697Y-54586068D01*
X195219891Y-54696189D01*
X194779639Y-55136441D01*
X194372217Y-55055400D01*
X194323983Y-55055400D01*
X193852900Y-55149104D01*
X193453535Y-55415952D01*
X193186687Y-55815317D01*
X193092983Y-56286400D01*
X193186687Y-56757483D01*
X193453535Y-57156848D01*
X193852900Y-57423696D01*
X194323983Y-57517400D01*
X194372217Y-57517400D01*
X194843300Y-57423696D01*
X195242665Y-57156848D01*
X195509513Y-56757483D01*
X195603217Y-56286400D01*
X195514173Y-55838747D01*
X195789521Y-55563399D01*
X195895014Y-55563399D01*
X195726687Y-55815317D01*
X195632983Y-56286400D01*
X195726687Y-56757483D01*
X195993535Y-57156848D01*
X196392900Y-57423696D01*
X196863983Y-57517400D01*
X196912217Y-57517400D01*
X197383300Y-57423696D01*
X197782665Y-57156848D01*
X198024846Y-56794400D01*
X199007680Y-56794400D01*
X213100462Y-70887182D01*
X213009117Y-71346400D01*
X213103857Y-71822688D01*
X213373652Y-72226465D01*
X213777429Y-72496260D01*
X214253717Y-72591000D01*
X214302483Y-72591000D01*
X214778771Y-72496260D01*
X215182548Y-72226465D01*
X215452343Y-71822688D01*
X215547083Y-71346400D01*
X215452343Y-70870112D01*
X215182548Y-70466335D01*
X214778771Y-70196540D01*
X214302483Y-70101800D01*
X214253717Y-70101800D01*
X213835174Y-70185054D01*
X212456520Y-68806400D01*
X213009117Y-68806400D01*
X213103857Y-69282688D01*
X213373652Y-69686465D01*
X213777429Y-69956260D01*
X214253717Y-70051000D01*
X214302483Y-70051000D01*
X214778771Y-69956260D01*
X215182548Y-69686465D01*
X215452343Y-69282688D01*
X215547083Y-68806400D01*
X215452343Y-68330112D01*
X215182548Y-67926335D01*
X214778771Y-67656540D01*
X214302483Y-67561800D01*
X214253717Y-67561800D01*
X213777429Y-67656540D01*
X213373652Y-67926335D01*
X213103857Y-68330112D01*
X213009117Y-68806400D01*
X212456520Y-68806400D01*
X209916520Y-66266400D01*
X213009117Y-66266400D01*
X213103857Y-66742688D01*
X213373652Y-67146465D01*
X213777429Y-67416260D01*
X214253717Y-67511000D01*
X214302483Y-67511000D01*
X214778771Y-67416260D01*
X215182548Y-67146465D01*
X215452343Y-66742688D01*
X215547083Y-66266400D01*
X215549117Y-66266400D01*
X215643857Y-66742688D01*
X215913652Y-67146465D01*
X216317429Y-67416260D01*
X216793717Y-67511000D01*
X216842483Y-67511000D01*
X217318771Y-67416260D01*
X217722548Y-67146465D01*
X217992343Y-66742688D01*
X218087083Y-66266400D01*
X217992343Y-65790112D01*
X217722548Y-65386335D01*
X217318771Y-65116540D01*
X216842483Y-65021800D01*
X216793717Y-65021800D01*
X216317429Y-65116540D01*
X215913652Y-65386335D01*
X215643857Y-65790112D01*
X215549117Y-66266400D01*
X215547083Y-66266400D01*
X215452343Y-65790112D01*
X215182548Y-65386335D01*
X214778771Y-65116540D01*
X214302483Y-65021800D01*
X214253717Y-65021800D01*
X213777429Y-65116540D01*
X213373652Y-65386335D01*
X213103857Y-65790112D01*
X213009117Y-66266400D01*
X209916520Y-66266400D01*
X207376520Y-63726400D01*
X213009117Y-63726400D01*
X213103857Y-64202688D01*
X213373652Y-64606465D01*
X213777429Y-64876260D01*
X214253717Y-64971000D01*
X214302483Y-64971000D01*
X214778771Y-64876260D01*
X215182548Y-64606465D01*
X215452343Y-64202688D01*
X215547083Y-63726400D01*
X215452343Y-63250112D01*
X215182548Y-62846335D01*
X214778771Y-62576540D01*
X214302483Y-62481800D01*
X214253717Y-62481800D01*
X213777429Y-62576540D01*
X213373652Y-62846335D01*
X213103857Y-63250112D01*
X213009117Y-63726400D01*
X207376520Y-63726400D01*
X204836520Y-61186400D01*
X213009117Y-61186400D01*
X213103857Y-61662688D01*
X213373652Y-62066465D01*
X213777429Y-62336260D01*
X214253717Y-62431000D01*
X214302483Y-62431000D01*
X214778771Y-62336260D01*
X215182548Y-62066465D01*
X215452343Y-61662688D01*
X215547083Y-61186400D01*
X215452343Y-60710112D01*
X215182548Y-60306335D01*
X214778771Y-60036540D01*
X214302483Y-59941800D01*
X214253717Y-59941800D01*
X213777429Y-60036540D01*
X213373652Y-60306335D01*
X213103857Y-60710112D01*
X213009117Y-61186400D01*
X204836520Y-61186400D01*
X202296520Y-58646400D01*
X213009117Y-58646400D01*
X213103857Y-59122688D01*
X213373652Y-59526465D01*
X213777429Y-59796260D01*
X214253717Y-59891000D01*
X214302483Y-59891000D01*
X214778771Y-59796260D01*
X215182548Y-59526465D01*
X215452343Y-59122688D01*
X215547083Y-58646400D01*
X215549117Y-58646400D01*
X215643857Y-59122688D01*
X215913652Y-59526465D01*
X216317429Y-59796260D01*
X216793717Y-59891000D01*
X216842483Y-59891000D01*
X217318771Y-59796260D01*
X217722548Y-59526465D01*
X217992343Y-59122688D01*
X218087083Y-58646400D01*
X217992343Y-58170112D01*
X217722548Y-57766335D01*
X217318771Y-57496540D01*
X216842483Y-57401800D01*
X216793717Y-57401800D01*
X216317429Y-57496540D01*
X215913652Y-57766335D01*
X215643857Y-58170112D01*
X215549117Y-58646400D01*
X215547083Y-58646400D01*
X215452343Y-58170112D01*
X215182548Y-57766335D01*
X214778771Y-57496540D01*
X214302483Y-57401800D01*
X214253717Y-57401800D01*
X213777429Y-57496540D01*
X213373652Y-57766335D01*
X213103857Y-58170112D01*
X213009117Y-58646400D01*
X202296520Y-58646400D01*
X199756520Y-56106400D01*
X213009117Y-56106400D01*
X213103857Y-56582688D01*
X213373652Y-56986465D01*
X213777429Y-57256260D01*
X214253717Y-57351000D01*
X214302483Y-57351000D01*
X214778771Y-57256260D01*
X215182548Y-56986465D01*
X215452343Y-56582688D01*
X215547083Y-56106400D01*
X215452343Y-55630112D01*
X215182548Y-55226335D01*
X214778771Y-54956540D01*
X214302483Y-54861800D01*
X214253717Y-54861800D01*
X213777429Y-54956540D01*
X213373652Y-55226335D01*
X213103857Y-55630112D01*
X213009117Y-56106400D01*
X199756520Y-56106400D01*
X199577310Y-55927190D01*
X199412503Y-55817069D01*
X199218100Y-55778400D01*
X198024846Y-55778400D01*
X197881186Y-55563399D01*
X212789101Y-55563399D01*
X212983504Y-55524730D01*
X213148311Y-55414609D01*
X213835174Y-54727746D01*
X214253717Y-54811000D01*
X214302483Y-54811000D01*
X214778771Y-54716260D01*
X215182548Y-54446465D01*
X215452343Y-54042688D01*
X215547083Y-53566400D01*
X215452343Y-53090112D01*
X215182548Y-52686335D01*
X214778771Y-52416540D01*
X214302483Y-52321800D01*
X214253717Y-52321800D01*
X213777429Y-52416540D01*
X213373652Y-52686335D01*
X213103857Y-53090112D01*
X213009117Y-53566400D01*
X213100462Y-54025618D01*
X212578681Y-54547399D01*
X204605974Y-54547399D01*
X204736098Y-54493633D01*
X204968517Y-54261619D01*
X205094457Y-53958323D01*
X205094743Y-53629918D01*
X204969333Y-53326402D01*
X204737319Y-53093983D01*
X204567335Y-53023399D01*
X212789101Y-53023399D01*
X212983504Y-52984730D01*
X213148311Y-52874609D01*
X213835174Y-52187746D01*
X214253717Y-52271000D01*
X214302483Y-52271000D01*
X214778771Y-52176260D01*
X215182548Y-51906465D01*
X215452343Y-51502688D01*
X215547083Y-51026400D01*
X215452343Y-50550112D01*
X215182548Y-50146335D01*
X214778771Y-49876540D01*
X214302483Y-49781800D01*
X214253717Y-49781800D01*
X213777429Y-49876540D01*
X213373652Y-50146335D01*
X213103857Y-50550112D01*
X213009117Y-51026400D01*
X213100462Y-51485618D01*
X212578681Y-52007399D01*
X205367974Y-52007399D01*
X205498098Y-51953633D01*
X205730517Y-51721619D01*
X205856457Y-51418323D01*
X205856743Y-51089918D01*
X205731333Y-50786402D01*
X205499319Y-50553983D01*
X205329335Y-50483399D01*
X212789101Y-50483399D01*
X212983504Y-50444730D01*
X213148311Y-50334609D01*
X213835174Y-49647746D01*
X214253717Y-49731000D01*
X214302483Y-49731000D01*
X214778771Y-49636260D01*
X215182548Y-49366465D01*
X215452343Y-48962688D01*
X215547083Y-48486400D01*
X215549117Y-48486400D01*
X215643857Y-48962688D01*
X215913652Y-49366465D01*
X216317429Y-49636260D01*
X216793717Y-49731000D01*
X216842483Y-49731000D01*
X217318771Y-49636260D01*
X217722548Y-49366465D01*
X217992343Y-48962688D01*
X218087083Y-48486400D01*
X217992343Y-48010112D01*
X217722548Y-47606335D01*
X217318771Y-47336540D01*
X216842483Y-47241800D01*
X216793717Y-47241800D01*
X216317429Y-47336540D01*
X215913652Y-47606335D01*
X215643857Y-48010112D01*
X215549117Y-48486400D01*
X215547083Y-48486400D01*
X215452343Y-48010112D01*
X215182548Y-47606335D01*
X214778771Y-47336540D01*
X214302483Y-47241800D01*
X214253717Y-47241800D01*
X213777429Y-47336540D01*
X213373652Y-47606335D01*
X213103857Y-48010112D01*
X213009117Y-48486400D01*
X213100462Y-48945618D01*
X212578681Y-49467399D01*
X207399974Y-49467399D01*
X207530098Y-49413633D01*
X207762517Y-49181619D01*
X207888457Y-48878323D01*
X207888743Y-48549918D01*
X207763333Y-48246402D01*
X207531319Y-48013983D01*
X207228023Y-47888043D01*
X206899618Y-47887757D01*
X206596102Y-48013167D01*
X206450615Y-48158400D01*
X198024846Y-48158400D01*
X197829069Y-47865401D01*
X212867099Y-47865401D01*
X213061502Y-47826732D01*
X213226309Y-47716611D01*
X213835174Y-47107746D01*
X214253717Y-47191000D01*
X214302483Y-47191000D01*
X214778771Y-47096260D01*
X215182548Y-46826465D01*
X215452343Y-46422688D01*
X215547083Y-45946400D01*
X215549117Y-45946400D01*
X215643857Y-46422688D01*
X215913652Y-46826465D01*
X216317429Y-47096260D01*
X216793717Y-47191000D01*
X216842483Y-47191000D01*
X217318771Y-47096260D01*
X217722548Y-46826465D01*
X217992343Y-46422688D01*
X218087083Y-45946400D01*
X217992343Y-45470112D01*
X217722548Y-45066335D01*
X217318771Y-44796540D01*
X216842483Y-44701800D01*
X216793717Y-44701800D01*
X216317429Y-44796540D01*
X215913652Y-45066335D01*
X215643857Y-45470112D01*
X215549117Y-45946400D01*
X215547083Y-45946400D01*
X215452343Y-45470112D01*
X215182548Y-45066335D01*
X214778771Y-44796540D01*
X214302483Y-44701800D01*
X214253717Y-44701800D01*
X213777429Y-44796540D01*
X213373652Y-45066335D01*
X213103857Y-45470112D01*
X213009117Y-45946400D01*
X213100462Y-46405618D01*
X212656679Y-46849401D01*
X209840372Y-46849401D01*
X210048517Y-46641619D01*
X210174457Y-46338323D01*
X210174743Y-46009918D01*
X210049333Y-45706402D01*
X209817319Y-45473983D01*
X209514023Y-45348043D01*
X209185618Y-45347757D01*
X208882102Y-45473167D01*
X208736615Y-45618400D01*
X198024846Y-45618400D01*
X197782665Y-45255952D01*
X197383300Y-44989104D01*
X196912217Y-44895400D01*
X196863983Y-44895400D01*
X196392900Y-44989104D01*
X195993535Y-45255952D01*
X195726687Y-45655317D01*
X195632983Y-46126400D01*
X195726687Y-46597483D01*
X195895014Y-46849401D01*
X195657099Y-46849401D01*
X195462695Y-46888070D01*
X195297889Y-46998191D01*
X194779639Y-47516441D01*
X194372217Y-47435400D01*
X194323983Y-47435400D01*
X193852900Y-47529104D01*
X193453535Y-47795952D01*
X193186687Y-48195317D01*
X193092983Y-48666400D01*
X175397834Y-48666400D01*
X177937834Y-46126400D01*
X187681100Y-46126400D01*
X187748771Y-46466606D01*
X187941482Y-46755018D01*
X188229894Y-46947729D01*
X188570100Y-47015400D01*
X193481300Y-47015400D01*
X193852900Y-47263696D01*
X194323983Y-47357400D01*
X194372217Y-47357400D01*
X194843300Y-47263696D01*
X195242665Y-46996848D01*
X195509513Y-46597483D01*
X195558239Y-46352518D01*
X195579431Y-46320803D01*
X195618100Y-46126400D01*
X195579431Y-45931997D01*
X195558239Y-45900282D01*
X195509513Y-45655317D01*
X195242665Y-45255952D01*
X194843300Y-44989104D01*
X194372217Y-44895400D01*
X194323983Y-44895400D01*
X193852900Y-44989104D01*
X193481300Y-45237400D01*
X188570100Y-45237400D01*
X188229894Y-45305071D01*
X187941482Y-45497782D01*
X187748771Y-45786194D01*
X187681100Y-46126400D01*
X177937834Y-46126400D01*
X180281834Y-43782400D01*
X187681100Y-43782400D01*
X187748771Y-44122606D01*
X187941482Y-44411018D01*
X188229894Y-44603729D01*
X188570100Y-44671400D01*
X193196568Y-44671400D01*
X193219646Y-44707265D01*
X193346966Y-44794259D01*
X193498100Y-44824864D01*
X195198100Y-44824864D01*
X195339290Y-44798297D01*
X195468965Y-44714854D01*
X195555959Y-44587534D01*
X195586564Y-44436400D01*
X195586564Y-42736400D01*
X195559997Y-42595210D01*
X195476554Y-42465535D01*
X195349234Y-42378541D01*
X195237100Y-42355834D01*
X195237100Y-41720400D01*
X195169429Y-41380194D01*
X194976718Y-41091782D01*
X192989091Y-39104155D01*
X192989091Y-38224581D01*
X193212281Y-38001391D01*
X223131855Y-38001391D01*
X226941482Y-41811018D01*
X227229895Y-42003729D01*
X227570100Y-42071400D01*
X227910305Y-42003729D01*
X228198718Y-41811018D01*
X228391429Y-41522605D01*
X228459100Y-41182400D01*
X228391429Y-40842195D01*
X228198718Y-40553782D01*
X224128709Y-36483773D01*
X223840297Y-36291062D01*
X223500091Y-36223391D01*
X192844045Y-36223391D01*
X192503839Y-36291062D01*
X192215427Y-36483773D01*
X191471473Y-37227727D01*
X191278762Y-37516139D01*
X191211091Y-37856345D01*
X191211091Y-39472391D01*
X191278762Y-39812597D01*
X191471473Y-40101009D01*
X193459100Y-42088636D01*
X193459100Y-42355274D01*
X193356910Y-42374503D01*
X193227235Y-42457946D01*
X193140241Y-42585266D01*
X193109636Y-42736400D01*
X193109636Y-42893400D01*
X188570100Y-42893400D01*
X188229894Y-42961071D01*
X187941482Y-43153782D01*
X187748771Y-43442194D01*
X187681100Y-43782400D01*
X180281834Y-43782400D01*
X184418320Y-39645914D01*
X184528441Y-39481107D01*
X184567110Y-39286704D01*
X184567110Y-35657197D01*
X184528441Y-35462794D01*
X184418320Y-35297987D01*
X183379394Y-34259061D01*
X239022858Y-34259061D01*
X239235090Y-34772703D01*
X239627730Y-35166029D01*
X240141000Y-35379157D01*
X240696761Y-35379642D01*
X241210403Y-35167410D01*
X241603729Y-34774770D01*
X241816857Y-34261500D01*
X241817342Y-33705739D01*
X241605110Y-33192097D01*
X241212470Y-32798771D01*
X240699200Y-32585643D01*
X240143439Y-32585158D01*
X239629797Y-32797390D01*
X239236471Y-33190030D01*
X239023343Y-33703300D01*
X239022858Y-34259061D01*
X183379394Y-34259061D01*
X182643523Y-33523190D01*
X182478716Y-33413069D01*
X182284313Y-33374400D01*
X182154442Y-33374400D01*
X182041537Y-33101149D01*
X181653395Y-32712328D01*
X181146003Y-32501641D01*
X180596607Y-32501161D01*
X180088849Y-32710963D01*
X179700028Y-33099105D01*
X179585716Y-33374400D01*
X175654442Y-33374400D01*
X175541537Y-33101149D01*
X175153395Y-32712328D01*
X174646003Y-32501641D01*
X174096607Y-32501161D01*
X173588849Y-32710963D01*
X173200028Y-33099105D01*
X172989341Y-33606497D01*
X172988861Y-34155893D01*
X173198663Y-34663651D01*
X173586805Y-35052472D01*
X174094197Y-35263159D01*
X174643593Y-35263639D01*
X175151351Y-35053837D01*
X175540172Y-34665695D01*
X175654484Y-34390400D01*
X179585758Y-34390400D01*
X179698663Y-34663651D01*
X180086805Y-35052472D01*
X180594197Y-35263159D01*
X181143593Y-35263639D01*
X181651351Y-35053837D01*
X182040172Y-34665695D01*
X182130838Y-34447345D01*
X183551110Y-35867617D01*
X183551110Y-39076284D01*
X169654213Y-52973181D01*
X169462548Y-52686335D01*
X169058771Y-52416540D01*
X168582483Y-52321800D01*
X168533717Y-52321800D01*
X168057429Y-52416540D01*
X167653652Y-52686335D01*
X167383857Y-53090112D01*
X167289117Y-53566400D01*
X167287083Y-53566400D01*
X167192343Y-53090112D01*
X166922548Y-52686335D01*
X166518771Y-52416540D01*
X166042483Y-52321800D01*
X165993717Y-52321800D01*
X165575174Y-52405054D01*
X164196520Y-51026400D01*
X164749117Y-51026400D01*
X164843857Y-51502688D01*
X165113652Y-51906465D01*
X165517429Y-52176260D01*
X165993717Y-52271000D01*
X166042483Y-52271000D01*
X166518771Y-52176260D01*
X166922548Y-51906465D01*
X167171154Y-51534400D01*
X167405046Y-51534400D01*
X167653652Y-51906465D01*
X168057429Y-52176260D01*
X168533717Y-52271000D01*
X168582483Y-52271000D01*
X169058771Y-52176260D01*
X169462548Y-51906465D01*
X169732343Y-51502688D01*
X169827083Y-51026400D01*
X169732343Y-50550112D01*
X169462548Y-50146335D01*
X169058771Y-49876540D01*
X168582483Y-49781800D01*
X168533717Y-49781800D01*
X168057429Y-49876540D01*
X167653652Y-50146335D01*
X167405046Y-50518400D01*
X167171154Y-50518400D01*
X166922548Y-50146335D01*
X166518771Y-49876540D01*
X166042483Y-49781800D01*
X165993717Y-49781800D01*
X165517429Y-49876540D01*
X165113652Y-50146335D01*
X164843857Y-50550112D01*
X164749117Y-51026400D01*
X164196520Y-51026400D01*
X161656520Y-48486400D01*
X164749117Y-48486400D01*
X164843857Y-48962688D01*
X165113652Y-49366465D01*
X165517429Y-49636260D01*
X165993717Y-49731000D01*
X166042483Y-49731000D01*
X166518771Y-49636260D01*
X166909176Y-49375400D01*
X167667024Y-49375400D01*
X168057429Y-49636260D01*
X168533717Y-49731000D01*
X168582483Y-49731000D01*
X169058771Y-49636260D01*
X169449176Y-49375400D01*
X171787496Y-49375400D01*
X171829895Y-49403730D01*
X172170100Y-49471400D01*
X172510306Y-49403730D01*
X172798718Y-49211018D01*
X172991430Y-48922606D01*
X173059100Y-48582400D01*
X172991430Y-48242195D01*
X172798718Y-47953782D01*
X172702718Y-47857782D01*
X172610183Y-47795952D01*
X172414306Y-47665071D01*
X172074100Y-47597400D01*
X169449176Y-47597400D01*
X169058771Y-47336540D01*
X168582483Y-47241800D01*
X168533717Y-47241800D01*
X168057429Y-47336540D01*
X167667024Y-47597400D01*
X166909176Y-47597400D01*
X166518771Y-47336540D01*
X166042483Y-47241800D01*
X165993717Y-47241800D01*
X165517429Y-47336540D01*
X165113652Y-47606335D01*
X164843857Y-48010112D01*
X164749117Y-48486400D01*
X161656520Y-48486400D01*
X159286311Y-46116191D01*
X159286311Y-45946400D01*
X164749117Y-45946400D01*
X164843857Y-46422688D01*
X165113652Y-46826465D01*
X165517429Y-47096260D01*
X165993717Y-47191000D01*
X166042483Y-47191000D01*
X166518771Y-47096260D01*
X166909176Y-46835400D01*
X167667024Y-46835400D01*
X168057429Y-47096260D01*
X168533717Y-47191000D01*
X168582483Y-47191000D01*
X169058771Y-47096260D01*
X169449176Y-46835400D01*
X172006100Y-46835400D01*
X172346306Y-46767729D01*
X172634718Y-46575018D01*
X173798718Y-45411018D01*
X173991430Y-45122605D01*
X174059100Y-44782400D01*
X173991430Y-44442194D01*
X173798718Y-44153782D01*
X173510306Y-43961070D01*
X173170100Y-43893400D01*
X172829895Y-43961070D01*
X172541482Y-44153782D01*
X171637864Y-45057400D01*
X169449176Y-45057400D01*
X169058771Y-44796540D01*
X168582483Y-44701800D01*
X168533717Y-44701800D01*
X168057429Y-44796540D01*
X167667024Y-45057400D01*
X166909176Y-45057400D01*
X166518771Y-44796540D01*
X166042483Y-44701800D01*
X165993717Y-44701800D01*
X165517429Y-44796540D01*
X165113652Y-45066335D01*
X164843857Y-45470112D01*
X164749117Y-45946400D01*
X159286311Y-45946400D01*
X159286311Y-39084609D01*
X163129312Y-35241609D01*
X163129314Y-35241606D01*
X163221143Y-35149777D01*
X163494197Y-35263159D01*
X164043593Y-35263639D01*
X164551351Y-35053837D01*
X164940172Y-34665695D01*
X165054484Y-34390400D01*
X168985758Y-34390400D01*
X169098663Y-34663651D01*
X169486805Y-35052472D01*
X169994197Y-35263159D01*
X170543593Y-35263639D01*
X171051351Y-35053837D01*
X171440172Y-34665695D01*
X171650859Y-34158303D01*
X171651339Y-33608907D01*
X171441537Y-33101149D01*
X171053395Y-32712328D01*
X170546003Y-32501641D01*
X169996607Y-32501161D01*
X169488849Y-32710963D01*
X169100028Y-33099105D01*
X168985716Y-33374400D01*
X165054442Y-33374400D01*
X164941537Y-33101149D01*
X164553395Y-32712328D01*
X164046003Y-32501641D01*
X163496607Y-32501161D01*
X162988849Y-32710963D01*
X162600028Y-33099105D01*
X162389341Y-33606497D01*
X162388861Y-34155893D01*
X162502693Y-34431387D01*
X162410894Y-34523186D01*
X162410891Y-34523188D01*
X158419101Y-38514979D01*
X158308980Y-38679786D01*
X158270311Y-38874189D01*
X157052370Y-38874189D01*
X157052370Y-32364670D01*
X246287830Y-32364670D01*
X246287830Y-111600130D01*
X246287830Y-111600130D01*
G37*
X246287830Y-111600130D02*
X157052370Y-111600130D01*
X157052370Y-109009061D01*
X159022858Y-109009061D01*
X159235090Y-109522703D01*
X159627730Y-109916029D01*
X160141000Y-110129157D01*
X160696761Y-110129642D01*
X161210403Y-109917410D01*
X161369028Y-109759061D01*
X239772858Y-109759061D01*
X239985090Y-110272703D01*
X240377730Y-110666029D01*
X240891000Y-110879157D01*
X241446761Y-110879642D01*
X241960403Y-110667410D01*
X242353729Y-110274770D01*
X242566857Y-109761500D01*
X242567342Y-109205739D01*
X242355110Y-108692097D01*
X241962470Y-108298771D01*
X241449200Y-108085643D01*
X240893439Y-108085158D01*
X240379797Y-108297390D01*
X239986471Y-108690030D01*
X239773343Y-109203300D01*
X239772858Y-109759061D01*
X161369028Y-109759061D01*
X161603729Y-109524770D01*
X161816857Y-109011500D01*
X161817342Y-108455739D01*
X161605110Y-107942097D01*
X161212470Y-107548771D01*
X160699200Y-107335643D01*
X160143439Y-107335158D01*
X159629797Y-107547390D01*
X159236471Y-107940030D01*
X159023343Y-108453300D01*
X159022858Y-109009061D01*
X157052370Y-109009061D01*
X157052370Y-104950283D01*
X186655100Y-104950283D01*
X186655100Y-104998517D01*
X186748804Y-105469600D01*
X187015652Y-105868965D01*
X187415017Y-106135813D01*
X187886100Y-106229517D01*
X188357183Y-106135813D01*
X188756548Y-105868965D01*
X189023396Y-105469600D01*
X189117100Y-104998517D01*
X189117100Y-104950283D01*
X189023396Y-104479200D01*
X188756548Y-104079835D01*
X188357183Y-103812987D01*
X187886100Y-103719283D01*
X187415017Y-103812987D01*
X187015652Y-104079835D01*
X186748804Y-104479200D01*
X186655100Y-104950283D01*
X157052370Y-104950283D01*
X157052370Y-101584400D01*
X186647636Y-101584400D01*
X186647636Y-103284400D01*
X186674203Y-103425590D01*
X186757646Y-103555265D01*
X186884966Y-103642259D01*
X187036100Y-103672864D01*
X188736100Y-103672864D01*
X188877290Y-103646297D01*
X189006965Y-103562854D01*
X189093959Y-103435534D01*
X189124564Y-103284400D01*
X189124564Y-102410283D01*
X196815100Y-102410283D01*
X196815100Y-102458517D01*
X196908804Y-102929600D01*
X197157100Y-103301200D01*
X197157100Y-104107600D01*
X196908804Y-104479200D01*
X196815100Y-104950283D01*
X196815100Y-104998517D01*
X196908804Y-105469600D01*
X197175652Y-105868965D01*
X197575017Y-106135813D01*
X198046100Y-106229517D01*
X198517183Y-106135813D01*
X198916548Y-105868965D01*
X199183396Y-105469600D01*
X199277100Y-104998517D01*
X199277100Y-104950283D01*
X199183396Y-104479200D01*
X198935100Y-104107600D01*
X198935100Y-103301200D01*
X199183396Y-102929600D01*
X199277100Y-102458517D01*
X199277100Y-102410283D01*
X199183396Y-101939200D01*
X198935100Y-101567600D01*
X198935100Y-100551341D01*
X199053965Y-100474854D01*
X199140959Y-100347534D01*
X199171564Y-100196400D01*
X199171564Y-99926274D01*
X199203008Y-99879215D01*
X199289100Y-99446400D01*
X199203008Y-99013585D01*
X199171564Y-98966526D01*
X199171564Y-98696400D01*
X199144997Y-98555210D01*
X199061554Y-98425535D01*
X198934234Y-98338541D01*
X198783100Y-98307936D01*
X197533100Y-98307936D01*
X197391910Y-98334503D01*
X197262235Y-98417946D01*
X197175241Y-98545266D01*
X197144636Y-98696400D01*
X197144636Y-98909913D01*
X196999192Y-99127585D01*
X196913100Y-99560400D01*
X196999192Y-99993215D01*
X197148431Y-100216566D01*
X197157100Y-100262640D01*
X197157100Y-101567600D01*
X196908804Y-101939200D01*
X196815100Y-102410283D01*
X189124564Y-102410283D01*
X189124564Y-101584400D01*
X189097997Y-101443210D01*
X189014554Y-101313535D01*
X188887234Y-101226541D01*
X188736100Y-101195936D01*
X187036100Y-101195936D01*
X186894910Y-101222503D01*
X186765235Y-101305946D01*
X186678241Y-101433266D01*
X186647636Y-101584400D01*
X157052370Y-101584400D01*
X157052370Y-94206400D01*
X164749117Y-94206400D01*
X164843857Y-94682688D01*
X165113652Y-95086465D01*
X165517429Y-95356260D01*
X165993717Y-95451000D01*
X166042483Y-95451000D01*
X166518771Y-95356260D01*
X166922548Y-95086465D01*
X167192343Y-94682688D01*
X167287083Y-94206400D01*
X167289117Y-94206400D01*
X167383857Y-94682688D01*
X167653652Y-95086465D01*
X168057429Y-95356260D01*
X168533717Y-95451000D01*
X168582483Y-95451000D01*
X169058771Y-95356260D01*
X169462548Y-95086465D01*
X169732343Y-94682688D01*
X169736776Y-94660400D01*
X191453636Y-94660400D01*
X191453636Y-97160400D01*
X191480203Y-97301590D01*
X191563646Y-97431265D01*
X191690966Y-97518259D01*
X191842100Y-97548864D01*
X195842100Y-97548864D01*
X195983290Y-97522297D01*
X196112965Y-97438854D01*
X196199959Y-97311534D01*
X196230564Y-97160400D01*
X196230564Y-94980400D01*
X197003100Y-94980400D01*
X197027100Y-95101057D01*
X197027100Y-96946400D01*
X197113192Y-97379215D01*
X197144636Y-97426274D01*
X197144636Y-97696400D01*
X197171203Y-97837590D01*
X197254646Y-97967265D01*
X197381966Y-98054259D01*
X197533100Y-98084864D01*
X198783100Y-98084864D01*
X198924290Y-98058297D01*
X199053965Y-97974854D01*
X199140959Y-97847534D01*
X199171564Y-97696400D01*
X199171564Y-97426274D01*
X199203008Y-97379215D01*
X199289100Y-96946400D01*
X199289100Y-95004400D01*
X199203008Y-94571585D01*
X198957838Y-94204662D01*
X198933838Y-94180662D01*
X198566915Y-93935492D01*
X198134100Y-93849400D01*
X197701285Y-93935492D01*
X197334362Y-94180662D01*
X197089192Y-94547585D01*
X197003100Y-94980400D01*
X196230564Y-94980400D01*
X196230564Y-94660400D01*
X196203997Y-94519210D01*
X196120554Y-94389535D01*
X195993234Y-94302541D01*
X195842100Y-94271936D01*
X194973100Y-94271936D01*
X194973100Y-92610400D01*
X194887008Y-92177585D01*
X194641838Y-91810662D01*
X194274915Y-91565492D01*
X193842100Y-91479400D01*
X193409285Y-91565492D01*
X193042362Y-91810662D01*
X192797192Y-92177585D01*
X192711100Y-92610400D01*
X192711100Y-94271936D01*
X191842100Y-94271936D01*
X191700910Y-94298503D01*
X191571235Y-94381946D01*
X191484241Y-94509266D01*
X191453636Y-94660400D01*
X169736776Y-94660400D01*
X169827083Y-94206400D01*
X169732343Y-93730112D01*
X169462548Y-93326335D01*
X169058771Y-93056540D01*
X168582483Y-92961800D01*
X168533717Y-92961800D01*
X168057429Y-93056540D01*
X167653652Y-93326335D01*
X167383857Y-93730112D01*
X167289117Y-94206400D01*
X167287083Y-94206400D01*
X167192343Y-93730112D01*
X166922548Y-93326335D01*
X166518771Y-93056540D01*
X166042483Y-92961800D01*
X165993717Y-92961800D01*
X165517429Y-93056540D01*
X165113652Y-93326335D01*
X164843857Y-93730112D01*
X164749117Y-94206400D01*
X157052370Y-94206400D01*
X157052370Y-91666400D01*
X164749117Y-91666400D01*
X164843857Y-92142688D01*
X165113652Y-92546465D01*
X165517429Y-92816260D01*
X165993717Y-92911000D01*
X166042483Y-92911000D01*
X166518771Y-92816260D01*
X166922548Y-92546465D01*
X167192343Y-92142688D01*
X167287083Y-91666400D01*
X167289117Y-91666400D01*
X167383857Y-92142688D01*
X167653652Y-92546465D01*
X168057429Y-92816260D01*
X168533717Y-92911000D01*
X168582483Y-92911000D01*
X169058771Y-92816260D01*
X169462548Y-92546465D01*
X169732343Y-92142688D01*
X169827083Y-91666400D01*
X169732343Y-91190112D01*
X169462548Y-90786335D01*
X169058771Y-90516540D01*
X168582483Y-90421800D01*
X168533717Y-90421800D01*
X168057429Y-90516540D01*
X167653652Y-90786335D01*
X167383857Y-91190112D01*
X167289117Y-91666400D01*
X167287083Y-91666400D01*
X167192343Y-91190112D01*
X166922548Y-90786335D01*
X166518771Y-90516540D01*
X166042483Y-90421800D01*
X165993717Y-90421800D01*
X165517429Y-90516540D01*
X165113652Y-90786335D01*
X164843857Y-91190112D01*
X164749117Y-91666400D01*
X157052370Y-91666400D01*
X157052370Y-89126400D01*
X164749117Y-89126400D01*
X164843857Y-89602688D01*
X165113652Y-90006465D01*
X165517429Y-90276260D01*
X165993717Y-90371000D01*
X166042483Y-90371000D01*
X166518771Y-90276260D01*
X166922548Y-90006465D01*
X167192343Y-89602688D01*
X167287083Y-89126400D01*
X167289117Y-89126400D01*
X167383857Y-89602688D01*
X167653652Y-90006465D01*
X168057429Y-90276260D01*
X168533717Y-90371000D01*
X168582483Y-90371000D01*
X169058771Y-90276260D01*
X169462548Y-90006465D01*
X169732343Y-89602688D01*
X169827083Y-89126400D01*
X169732343Y-88650112D01*
X169462548Y-88246335D01*
X169058771Y-87976540D01*
X168582483Y-87881800D01*
X168533717Y-87881800D01*
X168057429Y-87976540D01*
X167653652Y-88246335D01*
X167383857Y-88650112D01*
X167289117Y-89126400D01*
X167287083Y-89126400D01*
X167192343Y-88650112D01*
X166922548Y-88246335D01*
X166518771Y-87976540D01*
X166042483Y-87881800D01*
X165993717Y-87881800D01*
X165517429Y-87976540D01*
X165113652Y-88246335D01*
X164843857Y-88650112D01*
X164749117Y-89126400D01*
X157052370Y-89126400D01*
X157052370Y-86586400D01*
X164749117Y-86586400D01*
X164843857Y-87062688D01*
X165113652Y-87466465D01*
X165517429Y-87736260D01*
X165993717Y-87831000D01*
X166042483Y-87831000D01*
X166518771Y-87736260D01*
X166922548Y-87466465D01*
X167192343Y-87062688D01*
X167287083Y-86586400D01*
X167289117Y-86586400D01*
X167383857Y-87062688D01*
X167653652Y-87466465D01*
X168057429Y-87736260D01*
X168533717Y-87831000D01*
X168582483Y-87831000D01*
X169058771Y-87736260D01*
X169462548Y-87466465D01*
X169732343Y-87062688D01*
X169827083Y-86586400D01*
X169732343Y-86110112D01*
X169462548Y-85706335D01*
X169058771Y-85436540D01*
X168582483Y-85341800D01*
X168533717Y-85341800D01*
X168057429Y-85436540D01*
X167653652Y-85706335D01*
X167383857Y-86110112D01*
X167289117Y-86586400D01*
X167287083Y-86586400D01*
X167192343Y-86110112D01*
X166922548Y-85706335D01*
X166518771Y-85436540D01*
X166042483Y-85341800D01*
X165993717Y-85341800D01*
X165517429Y-85436540D01*
X165113652Y-85706335D01*
X164843857Y-86110112D01*
X164749117Y-86586400D01*
X157052370Y-86586400D01*
X157052370Y-84046400D01*
X164749117Y-84046400D01*
X164843857Y-84522688D01*
X165113652Y-84926465D01*
X165517429Y-85196260D01*
X165993717Y-85291000D01*
X166042483Y-85291000D01*
X166518771Y-85196260D01*
X166922548Y-84926465D01*
X167192343Y-84522688D01*
X167287083Y-84046400D01*
X167289117Y-84046400D01*
X167383857Y-84522688D01*
X167653652Y-84926465D01*
X168057429Y-85196260D01*
X168533717Y-85291000D01*
X168582483Y-85291000D01*
X169058771Y-85196260D01*
X169462548Y-84926465D01*
X169732343Y-84522688D01*
X169827083Y-84046400D01*
X169732343Y-83570112D01*
X169462548Y-83166335D01*
X169058771Y-82896540D01*
X168582483Y-82801800D01*
X168533717Y-82801800D01*
X168057429Y-82896540D01*
X167653652Y-83166335D01*
X167383857Y-83570112D01*
X167289117Y-84046400D01*
X167287083Y-84046400D01*
X167192343Y-83570112D01*
X166922548Y-83166335D01*
X166518771Y-82896540D01*
X166042483Y-82801800D01*
X165993717Y-82801800D01*
X165517429Y-82896540D01*
X165113652Y-83166335D01*
X164843857Y-83570112D01*
X164749117Y-84046400D01*
X157052370Y-84046400D01*
X157052370Y-81506400D01*
X164749117Y-81506400D01*
X164843857Y-81982688D01*
X165113652Y-82386465D01*
X165517429Y-82656260D01*
X165993717Y-82751000D01*
X166042483Y-82751000D01*
X166518771Y-82656260D01*
X166922548Y-82386465D01*
X167192343Y-81982688D01*
X167287083Y-81506400D01*
X167289117Y-81506400D01*
X167383857Y-81982688D01*
X167653652Y-82386465D01*
X168057429Y-82656260D01*
X168533717Y-82751000D01*
X168582483Y-82751000D01*
X169058771Y-82656260D01*
X169462548Y-82386465D01*
X169732343Y-81982688D01*
X169827083Y-81506400D01*
X169732343Y-81030112D01*
X169462548Y-80626335D01*
X169058771Y-80356540D01*
X168675992Y-80280400D01*
X179649636Y-80280400D01*
X179649636Y-84080400D01*
X179676203Y-84221590D01*
X179759646Y-84351265D01*
X179886966Y-84438259D01*
X180009100Y-84462991D01*
X180009100Y-91338400D01*
X180095192Y-91771215D01*
X180340362Y-92138138D01*
X180707285Y-92383308D01*
X181140100Y-92469400D01*
X181572915Y-92383308D01*
X181939838Y-92138138D01*
X182185008Y-91771215D01*
X182271100Y-91338400D01*
X182271100Y-84383219D01*
X182308965Y-84358854D01*
X182395959Y-84231534D01*
X182426564Y-84080400D01*
X182426564Y-83311400D01*
X186301241Y-83311400D01*
X186338100Y-83318864D01*
X188338100Y-83318864D01*
X188377767Y-83311400D01*
X188595302Y-83311400D01*
X189028117Y-83225308D01*
X189395040Y-82980138D01*
X191317838Y-81057340D01*
X191563008Y-80690417D01*
X191649100Y-80257602D01*
X191649100Y-80017632D01*
X192052915Y-79937308D01*
X192419838Y-79692138D01*
X192665008Y-79325215D01*
X192751100Y-78892400D01*
X192665008Y-78459585D01*
X192419838Y-78092662D01*
X192052915Y-77847492D01*
X191620100Y-77761400D01*
X190986576Y-77761400D01*
X190640564Y-77415388D01*
X190640564Y-77251400D01*
X190613997Y-77110210D01*
X190530554Y-76980535D01*
X190403234Y-76893541D01*
X190252100Y-76862936D01*
X189981974Y-76862936D01*
X189934915Y-76831492D01*
X189502100Y-76745400D01*
X189069285Y-76831492D01*
X189022226Y-76862936D01*
X188752100Y-76862936D01*
X188610910Y-76889503D01*
X188481235Y-76972946D01*
X188394241Y-77100266D01*
X188363636Y-77251400D01*
X188363636Y-78501400D01*
X188390203Y-78642590D01*
X188471515Y-78768953D01*
X188338100Y-78741936D01*
X188048873Y-78741936D01*
X188109959Y-78652534D01*
X188140564Y-78501400D01*
X188140564Y-77251400D01*
X188113997Y-77110210D01*
X188030554Y-76980535D01*
X187903234Y-76893541D01*
X187886100Y-76890071D01*
X187886100Y-73668901D01*
X196355669Y-73668901D01*
X199219634Y-76532866D01*
X198995285Y-76577492D01*
X198628362Y-76822662D01*
X198383192Y-77189585D01*
X198297100Y-77622400D01*
X198383192Y-78055215D01*
X198539100Y-78288548D01*
X198539100Y-82683902D01*
X198444235Y-82744946D01*
X198357241Y-82872266D01*
X198326636Y-83023400D01*
X198326636Y-85404628D01*
X196635482Y-87095782D01*
X196442771Y-87384194D01*
X196375100Y-87724400D01*
X196375100Y-89148252D01*
X196219192Y-89381585D01*
X196133100Y-89814400D01*
X196219192Y-90247215D01*
X196464362Y-90614138D01*
X197003100Y-91152876D01*
X197003100Y-92480400D01*
X197089192Y-92913215D01*
X197334362Y-93280138D01*
X197701285Y-93525308D01*
X198134100Y-93611400D01*
X198566915Y-93525308D01*
X198933838Y-93280138D01*
X199179008Y-92913215D01*
X199265100Y-92480400D01*
X199265100Y-90684400D01*
X199179008Y-90251585D01*
X198933838Y-89884662D01*
X198153100Y-89103924D01*
X198153100Y-88092636D01*
X200333872Y-85911864D01*
X202715100Y-85911864D01*
X202856290Y-85885297D01*
X202985965Y-85801854D01*
X203072959Y-85674534D01*
X203103564Y-85523400D01*
X203103564Y-83023400D01*
X203076997Y-82882210D01*
X202993554Y-82752535D01*
X202866234Y-82665541D01*
X202715100Y-82634936D01*
X200333872Y-82634936D01*
X200317100Y-82618164D01*
X200317100Y-78293540D01*
X200475008Y-78057215D01*
X200519634Y-77832866D01*
X208333100Y-85646332D01*
X208333100Y-102180400D01*
X208400771Y-102520606D01*
X208593482Y-102809018D01*
X208881894Y-103001729D01*
X209222100Y-103069400D01*
X220467078Y-103069400D01*
X220807284Y-103001729D01*
X221095696Y-102809018D01*
X224009497Y-99895217D01*
X224015890Y-99901610D01*
X224180696Y-100011731D01*
X224240636Y-100023654D01*
X224240636Y-100292400D01*
X224267203Y-100433590D01*
X224346963Y-100557542D01*
X224384769Y-100747605D01*
X224494890Y-100912412D01*
X224615089Y-101032611D01*
X224779896Y-101142732D01*
X224974299Y-101181401D01*
X225190636Y-101181401D01*
X225190636Y-101920400D01*
X225217203Y-102061590D01*
X225300646Y-102191265D01*
X225427966Y-102278259D01*
X225579100Y-102308864D01*
X226779100Y-102308864D01*
X226920290Y-102282297D01*
X227049965Y-102198854D01*
X227136959Y-102071534D01*
X227167564Y-101920400D01*
X227167564Y-101170400D01*
X227140997Y-101029210D01*
X227057554Y-100899535D01*
X226930234Y-100812541D01*
X226779100Y-100781936D01*
X226660354Y-100781936D01*
X226648431Y-100721997D01*
X226648431Y-100721996D01*
X226633091Y-100699039D01*
X226636707Y-100680864D01*
X227029100Y-100680864D01*
X227132770Y-100661357D01*
X227229100Y-100680864D01*
X227679100Y-100680864D01*
X227782770Y-100661357D01*
X227879100Y-100680864D01*
X228271493Y-100680864D01*
X228284769Y-100747605D01*
X228394890Y-100912412D01*
X228515089Y-101032611D01*
X228679896Y-101142732D01*
X228874299Y-101181401D01*
X229425901Y-101181401D01*
X229425901Y-101302201D01*
X229464570Y-101496604D01*
X229574691Y-101661411D01*
X230113693Y-102200413D01*
X230113457Y-102470882D01*
X230238867Y-102774398D01*
X230470881Y-103006817D01*
X230774177Y-103132757D01*
X231102582Y-103133043D01*
X231406098Y-103007633D01*
X231638517Y-102775619D01*
X231764457Y-102472323D01*
X231764743Y-102143918D01*
X231639333Y-101840402D01*
X231407319Y-101607983D01*
X231104023Y-101482043D01*
X230831926Y-101481806D01*
X230441901Y-101091781D01*
X230441901Y-100673401D01*
X230403232Y-100478998D01*
X230293111Y-100314191D01*
X230128304Y-100204070D01*
X230017564Y-100182043D01*
X230017564Y-100050400D01*
X230562747Y-100050400D01*
X230724881Y-100212817D01*
X231028177Y-100338757D01*
X231356582Y-100339043D01*
X231660098Y-100213633D01*
X231892517Y-99981619D01*
X232018457Y-99678323D01*
X232018743Y-99349918D01*
X231893333Y-99046402D01*
X231661319Y-98813983D01*
X231358023Y-98688043D01*
X231029618Y-98687757D01*
X230726102Y-98813167D01*
X230504483Y-99034400D01*
X230017564Y-99034400D01*
X230017564Y-98792400D01*
X229990997Y-98651210D01*
X229936074Y-98565856D01*
X231432961Y-98565856D01*
X232567174Y-99700069D01*
X232567174Y-102398943D01*
X232605843Y-102593346D01*
X232715964Y-102758153D01*
X233222833Y-103265023D01*
X233387640Y-103375144D01*
X233419894Y-103381559D01*
X233582044Y-103413813D01*
X236093834Y-103413813D01*
X236288237Y-103375144D01*
X236453044Y-103265023D01*
X240651033Y-99067035D01*
X240761153Y-98902228D01*
X240799822Y-98707825D01*
X240799823Y-59806313D01*
X240761154Y-59611910D01*
X240761154Y-59611909D01*
X240651033Y-59447103D01*
X238240897Y-57036967D01*
X238318775Y-56986854D01*
X238405769Y-56859534D01*
X238436374Y-56708400D01*
X238436374Y-55958400D01*
X238409807Y-55817210D01*
X238326364Y-55687535D01*
X238199044Y-55600541D01*
X238047910Y-55569936D01*
X236847910Y-55569936D01*
X236706720Y-55596503D01*
X236577045Y-55679946D01*
X236496930Y-55797198D01*
X236426364Y-55687535D01*
X236299044Y-55600541D01*
X236147910Y-55569936D01*
X234947910Y-55569936D01*
X234806720Y-55596503D01*
X234677045Y-55679946D01*
X234609774Y-55778400D01*
X233584846Y-55778400D01*
X233342665Y-55415952D01*
X232943300Y-55149104D01*
X232472217Y-55055400D01*
X232423983Y-55055400D01*
X231952900Y-55149104D01*
X231647101Y-55353433D01*
X231647101Y-54679367D01*
X231952900Y-54883696D01*
X232423983Y-54977400D01*
X232472217Y-54977400D01*
X232943300Y-54883696D01*
X233342665Y-54616848D01*
X233584846Y-54254400D01*
X239385225Y-54254400D01*
X239411232Y-54317343D01*
X239643246Y-54549762D01*
X239946542Y-54675702D01*
X240274947Y-54675988D01*
X240578463Y-54550578D01*
X240810882Y-54318564D01*
X240936822Y-54015268D01*
X240937108Y-53686863D01*
X240811698Y-53383347D01*
X240579684Y-53150928D01*
X240276388Y-53024988D01*
X239947983Y-53024702D01*
X239644467Y-53150112D01*
X239556025Y-53238400D01*
X233584846Y-53238400D01*
X233342665Y-52875952D01*
X232943300Y-52609104D01*
X232472217Y-52515400D01*
X232423983Y-52515400D01*
X231952900Y-52609104D01*
X231647101Y-52813433D01*
X231647101Y-52139367D01*
X231952900Y-52343696D01*
X232423983Y-52437400D01*
X232472217Y-52437400D01*
X232943300Y-52343696D01*
X233342665Y-52076848D01*
X233584846Y-51714400D01*
X238644871Y-51714400D01*
X238768592Y-51838337D01*
X239071888Y-51964277D01*
X239400293Y-51964563D01*
X239703809Y-51839153D01*
X239936228Y-51607139D01*
X240062168Y-51303843D01*
X240062454Y-50975438D01*
X239937044Y-50671922D01*
X239705030Y-50439503D01*
X239401734Y-50313563D01*
X239073329Y-50313277D01*
X238769813Y-50438687D01*
X238537394Y-50670701D01*
X238525892Y-50698400D01*
X233584846Y-50698400D01*
X233342665Y-50335952D01*
X232943300Y-50069104D01*
X232472217Y-49975400D01*
X232423983Y-49975400D01*
X231952900Y-50069104D01*
X231647101Y-50273433D01*
X231647101Y-49599367D01*
X231952900Y-49803696D01*
X232423983Y-49897400D01*
X232472217Y-49897400D01*
X232943300Y-49803696D01*
X233342665Y-49536848D01*
X233609513Y-49137483D01*
X233703217Y-48666400D01*
X233609513Y-48195317D01*
X233342665Y-47795952D01*
X232943300Y-47529104D01*
X232472217Y-47435400D01*
X232423983Y-47435400D01*
X231952900Y-47529104D01*
X231647101Y-47733433D01*
X231647101Y-47059367D01*
X231952900Y-47263696D01*
X232423983Y-47357400D01*
X232472217Y-47357400D01*
X232879639Y-47276359D01*
X235223381Y-49620102D01*
X235193743Y-49691477D01*
X235193457Y-50019882D01*
X235318867Y-50323398D01*
X235550881Y-50555817D01*
X235854177Y-50681757D01*
X236182582Y-50682043D01*
X236486098Y-50556633D01*
X236718517Y-50324619D01*
X236844457Y-50021323D01*
X236844743Y-49692918D01*
X236719333Y-49389402D01*
X236487319Y-49156983D01*
X236184023Y-49031043D01*
X236071066Y-49030945D01*
X233614173Y-46574053D01*
X233703217Y-46126400D01*
X233609513Y-45655317D01*
X233342665Y-45255952D01*
X232943300Y-44989104D01*
X232472217Y-44895400D01*
X232423983Y-44895400D01*
X231952900Y-44989104D01*
X231553535Y-45255952D01*
X231552531Y-45257454D01*
X231498311Y-45176309D01*
X231032168Y-44710166D01*
X231115959Y-44587534D01*
X231146564Y-44436400D01*
X231146564Y-42736400D01*
X231119997Y-42595210D01*
X231036554Y-42465535D01*
X230909234Y-42378541D01*
X230758100Y-42347936D01*
X229058100Y-42347936D01*
X228916910Y-42374503D01*
X228787235Y-42457946D01*
X228700241Y-42585266D01*
X228669636Y-42736400D01*
X228669636Y-44436400D01*
X228696203Y-44577590D01*
X228779646Y-44707265D01*
X228906966Y-44794259D01*
X229058100Y-44824864D01*
X229710026Y-44824864D01*
X229797721Y-44912559D01*
X229412900Y-44989104D01*
X229041300Y-45237400D01*
X229006336Y-45237400D01*
X226472718Y-42703782D01*
X226184305Y-42511071D01*
X225844100Y-42443400D01*
X225503895Y-42511071D01*
X225215482Y-42703782D01*
X225022771Y-42992195D01*
X224955100Y-43332400D01*
X225022771Y-43672605D01*
X225215482Y-43961018D01*
X228009482Y-46755018D01*
X228297894Y-46947729D01*
X228638100Y-47015400D01*
X229041300Y-47015400D01*
X229412900Y-47263696D01*
X229883983Y-47357400D01*
X229932217Y-47357400D01*
X230403300Y-47263696D01*
X230631101Y-47111484D01*
X230631101Y-47681316D01*
X230403300Y-47529104D01*
X229932217Y-47435400D01*
X229883983Y-47435400D01*
X229412900Y-47529104D01*
X229013535Y-47795952D01*
X228746687Y-48195317D01*
X228652983Y-48666400D01*
X228742027Y-49114053D01*
X227337680Y-50518400D01*
X217971154Y-50518400D01*
X217722548Y-50146335D01*
X217318771Y-49876540D01*
X216842483Y-49781800D01*
X216793717Y-49781800D01*
X216317429Y-49876540D01*
X215913652Y-50146335D01*
X215643857Y-50550112D01*
X215549117Y-51026400D01*
X215643857Y-51502688D01*
X215913652Y-51906465D01*
X216317429Y-52176260D01*
X216793717Y-52271000D01*
X216842483Y-52271000D01*
X217318771Y-52176260D01*
X217722548Y-51906465D01*
X217971154Y-51534400D01*
X227548100Y-51534400D01*
X227742503Y-51495731D01*
X227907310Y-51385610D01*
X229476561Y-49816359D01*
X229883983Y-49897400D01*
X229932217Y-49897400D01*
X230403300Y-49803696D01*
X230631101Y-49651484D01*
X230631101Y-50221316D01*
X230403300Y-50069104D01*
X229932217Y-49975400D01*
X229883983Y-49975400D01*
X229412900Y-50069104D01*
X229013535Y-50335952D01*
X228746687Y-50735317D01*
X228652983Y-51206400D01*
X228742027Y-51654053D01*
X228698893Y-51697187D01*
X228698890Y-51697189D01*
X228201279Y-52194801D01*
X217681699Y-52194801D01*
X217519549Y-52227055D01*
X217487295Y-52233470D01*
X217322488Y-52343591D01*
X217261025Y-52405054D01*
X216842483Y-52321800D01*
X216793717Y-52321800D01*
X216317429Y-52416540D01*
X215913652Y-52686335D01*
X215643857Y-53090112D01*
X215549117Y-53566400D01*
X215643857Y-54042688D01*
X215913652Y-54446465D01*
X216317429Y-54716260D01*
X216793717Y-54811000D01*
X216842483Y-54811000D01*
X217318771Y-54716260D01*
X217722548Y-54446465D01*
X217992343Y-54042688D01*
X218087083Y-53566400D01*
X218016350Y-53210801D01*
X228411699Y-53210801D01*
X228606102Y-53172132D01*
X228770909Y-53062011D01*
X229417311Y-52415610D01*
X229417313Y-52415607D01*
X229476561Y-52356359D01*
X229883983Y-52437400D01*
X229932217Y-52437400D01*
X230403300Y-52343696D01*
X230631101Y-52191484D01*
X230631101Y-52761316D01*
X230403300Y-52609104D01*
X229932217Y-52515400D01*
X229883983Y-52515400D01*
X229412900Y-52609104D01*
X229013535Y-52875952D01*
X228771354Y-53238400D01*
X219178100Y-53238400D01*
X218983697Y-53277069D01*
X218818890Y-53387190D01*
X217261026Y-54945054D01*
X216842483Y-54861800D01*
X216793717Y-54861800D01*
X216317429Y-54956540D01*
X215913652Y-55226335D01*
X215643857Y-55630112D01*
X215549117Y-56106400D01*
X215643857Y-56582688D01*
X215913652Y-56986465D01*
X216317429Y-57256260D01*
X216793717Y-57351000D01*
X216842483Y-57351000D01*
X217318771Y-57256260D01*
X217722548Y-56986465D01*
X217992343Y-56582688D01*
X218087083Y-56106400D01*
X217995738Y-55647182D01*
X219388520Y-54254400D01*
X228771354Y-54254400D01*
X229013535Y-54616848D01*
X229412900Y-54883696D01*
X229883983Y-54977400D01*
X229932217Y-54977400D01*
X230403300Y-54883696D01*
X230631101Y-54731484D01*
X230631101Y-55301316D01*
X230403300Y-55149104D01*
X229932217Y-55055400D01*
X229883983Y-55055400D01*
X229412900Y-55149104D01*
X229013535Y-55415952D01*
X228746687Y-55815317D01*
X228652983Y-56286400D01*
X228742026Y-56734053D01*
X224797680Y-60678400D01*
X217971154Y-60678400D01*
X217722548Y-60306335D01*
X217318771Y-60036540D01*
X216842483Y-59941800D01*
X216793717Y-59941800D01*
X216317429Y-60036540D01*
X215913652Y-60306335D01*
X215643857Y-60710112D01*
X215549117Y-61186400D01*
X215643857Y-61662688D01*
X215913652Y-62066465D01*
X216317429Y-62336260D01*
X216793717Y-62431000D01*
X216842483Y-62431000D01*
X217318771Y-62336260D01*
X217722548Y-62066465D01*
X217971154Y-61694400D01*
X225008100Y-61694400D01*
X225202503Y-61655731D01*
X225367310Y-61545610D01*
X229476562Y-57436359D01*
X229883983Y-57517400D01*
X229932217Y-57517400D01*
X230403300Y-57423696D01*
X230631101Y-57271484D01*
X230631101Y-57841316D01*
X230403300Y-57689104D01*
X229932217Y-57595400D01*
X229883983Y-57595400D01*
X229412900Y-57689104D01*
X229013535Y-57955952D01*
X228746687Y-58355317D01*
X228652983Y-58826400D01*
X228742026Y-59274053D01*
X224797680Y-63218400D01*
X217971154Y-63218400D01*
X217722548Y-62846335D01*
X217318771Y-62576540D01*
X216842483Y-62481800D01*
X216793717Y-62481800D01*
X216317429Y-62576540D01*
X215913652Y-62846335D01*
X215643857Y-63250112D01*
X215549117Y-63726400D01*
X215643857Y-64202688D01*
X215913652Y-64606465D01*
X216317429Y-64876260D01*
X216793717Y-64971000D01*
X216842483Y-64971000D01*
X217318771Y-64876260D01*
X217722548Y-64606465D01*
X217971154Y-64234400D01*
X225008100Y-64234400D01*
X225202503Y-64195731D01*
X225367310Y-64085610D01*
X229476562Y-59976359D01*
X229883983Y-60057400D01*
X229932217Y-60057400D01*
X230403300Y-59963696D01*
X230631101Y-59811484D01*
X230631101Y-60381316D01*
X230403300Y-60229104D01*
X229932217Y-60135400D01*
X229883983Y-60135400D01*
X229412900Y-60229104D01*
X229013535Y-60495952D01*
X228746687Y-60895317D01*
X228652983Y-61366400D01*
X228742027Y-61814053D01*
X222257680Y-68298400D01*
X217971154Y-68298400D01*
X217722548Y-67926335D01*
X217318771Y-67656540D01*
X216842483Y-67561800D01*
X216793717Y-67561800D01*
X216317429Y-67656540D01*
X215913652Y-67926335D01*
X215643857Y-68330112D01*
X215549117Y-68806400D01*
X215643857Y-69282688D01*
X215913652Y-69686465D01*
X216317429Y-69956260D01*
X216793717Y-70051000D01*
X216842483Y-70051000D01*
X217318771Y-69956260D01*
X217722548Y-69686465D01*
X217971154Y-69314400D01*
X222468100Y-69314400D01*
X222662503Y-69275731D01*
X222827310Y-69165610D01*
X229476561Y-62516359D01*
X229883983Y-62597400D01*
X229932217Y-62597400D01*
X230403300Y-62503696D01*
X230631101Y-62351484D01*
X230631101Y-62921316D01*
X230403300Y-62769104D01*
X229932217Y-62675400D01*
X229883983Y-62675400D01*
X229412900Y-62769104D01*
X229013535Y-63035952D01*
X228746687Y-63435317D01*
X228652983Y-63906400D01*
X228742027Y-64354053D01*
X222257680Y-70838400D01*
X217971154Y-70838400D01*
X217722548Y-70466335D01*
X217318771Y-70196540D01*
X216842483Y-70101800D01*
X216793717Y-70101800D01*
X216317429Y-70196540D01*
X215913652Y-70466335D01*
X215643857Y-70870112D01*
X215549117Y-71346400D01*
X215643857Y-71822688D01*
X215913652Y-72226465D01*
X216317429Y-72496260D01*
X216793717Y-72591000D01*
X216842483Y-72591000D01*
X217318771Y-72496260D01*
X217722548Y-72226465D01*
X217971154Y-71854400D01*
X222468100Y-71854400D01*
X222662503Y-71815731D01*
X222827310Y-71705610D01*
X229476561Y-65056359D01*
X229883983Y-65137400D01*
X229932217Y-65137400D01*
X230403300Y-65043696D01*
X230631101Y-64891484D01*
X230631101Y-65461316D01*
X230403300Y-65309104D01*
X229932217Y-65215400D01*
X229883983Y-65215400D01*
X229412900Y-65309104D01*
X229013535Y-65575952D01*
X228746687Y-65975317D01*
X228652983Y-66446400D01*
X228742027Y-66894053D01*
X222257680Y-73378400D01*
X217971154Y-73378400D01*
X217722548Y-73006335D01*
X217318771Y-72736540D01*
X216842483Y-72641800D01*
X216793717Y-72641800D01*
X216317429Y-72736540D01*
X215913652Y-73006335D01*
X215643857Y-73410112D01*
X215549117Y-73886400D01*
X215643857Y-74362688D01*
X215913652Y-74766465D01*
X216317429Y-75036260D01*
X216793717Y-75131000D01*
X216842483Y-75131000D01*
X217318771Y-75036260D01*
X217722548Y-74766465D01*
X217971154Y-74394400D01*
X222065680Y-74394400D01*
X222029087Y-74430993D01*
X221758618Y-74430757D01*
X221455102Y-74556167D01*
X221222683Y-74788181D01*
X221096743Y-75091477D01*
X221096457Y-75419882D01*
X221221867Y-75723398D01*
X221453881Y-75955817D01*
X221757177Y-76081757D01*
X222085582Y-76082043D01*
X222285795Y-75999317D01*
X219826712Y-78458400D01*
X217971154Y-78458400D01*
X217722548Y-78086335D01*
X217318771Y-77816540D01*
X216842483Y-77721800D01*
X216793717Y-77721800D01*
X216317429Y-77816540D01*
X215913652Y-78086335D01*
X215643857Y-78490112D01*
X215549117Y-78966400D01*
X215643857Y-79442688D01*
X215913652Y-79846465D01*
X216317429Y-80116260D01*
X216793717Y-80211000D01*
X216842483Y-80211000D01*
X217318771Y-80116260D01*
X217722548Y-79846465D01*
X217971154Y-79474400D01*
X220037132Y-79474400D01*
X220231535Y-79435731D01*
X220396342Y-79325610D01*
X225677408Y-74044544D01*
X225793867Y-74326398D01*
X225993788Y-74526668D01*
X225999981Y-74557801D01*
X225949618Y-74557757D01*
X225646102Y-74683167D01*
X225413683Y-74915181D01*
X225287743Y-75218477D01*
X225287457Y-75546882D01*
X225412867Y-75850398D01*
X225605100Y-76042967D01*
X225605100Y-78812936D01*
X225344100Y-78812936D01*
X225202910Y-78839503D01*
X225073235Y-78922946D01*
X224986241Y-79050266D01*
X224955636Y-79201400D01*
X224955636Y-80651400D01*
X224982203Y-80792590D01*
X225065646Y-80922265D01*
X225192966Y-81009259D01*
X225344100Y-81039864D01*
X225794100Y-81039864D01*
X225897770Y-81020357D01*
X225994100Y-81039864D01*
X226444100Y-81039864D01*
X226547770Y-81020357D01*
X226644100Y-81039864D01*
X227011100Y-81039864D01*
X227011100Y-81894979D01*
X226664680Y-82241400D01*
X223851402Y-82241400D01*
X223660319Y-82049983D01*
X223357023Y-81924043D01*
X223028618Y-81923757D01*
X222725102Y-82049167D01*
X222492683Y-82281181D01*
X222366743Y-82584477D01*
X222366457Y-82912882D01*
X222491867Y-83216398D01*
X222723881Y-83448817D01*
X223027177Y-83574757D01*
X223355582Y-83575043D01*
X223659098Y-83449633D01*
X223851667Y-83257400D01*
X226875100Y-83257400D01*
X227069503Y-83218731D01*
X227234310Y-83108610D01*
X227764100Y-82578821D01*
X227764100Y-83106098D01*
X227572683Y-83297181D01*
X227446743Y-83600477D01*
X227446457Y-83928882D01*
X227563604Y-84212399D01*
X225046101Y-84212399D01*
X224851698Y-84251068D01*
X224686891Y-84361188D01*
X224559890Y-84488190D01*
X224449769Y-84652997D01*
X224412978Y-84837957D01*
X224336241Y-84950266D01*
X224305636Y-85101400D01*
X224305636Y-86551400D01*
X224329239Y-86676841D01*
X223380879Y-87625201D01*
X223270758Y-87790008D01*
X223232089Y-87984411D01*
X223232089Y-98198176D01*
X223111471Y-98278771D01*
X220098842Y-101291400D01*
X210111100Y-101291400D01*
X210111100Y-99286400D01*
X213009117Y-99286400D01*
X213103857Y-99762688D01*
X213373652Y-100166465D01*
X213777429Y-100436260D01*
X214253717Y-100531000D01*
X214302483Y-100531000D01*
X214778771Y-100436260D01*
X215182548Y-100166465D01*
X215452343Y-99762688D01*
X215547083Y-99286400D01*
X215549117Y-99286400D01*
X215643857Y-99762688D01*
X215913652Y-100166465D01*
X216317429Y-100436260D01*
X216793717Y-100531000D01*
X216842483Y-100531000D01*
X217318771Y-100436260D01*
X217722548Y-100166465D01*
X217992343Y-99762688D01*
X218087083Y-99286400D01*
X217992343Y-98810112D01*
X217722548Y-98406335D01*
X217318771Y-98136540D01*
X216842483Y-98041800D01*
X216793717Y-98041800D01*
X216317429Y-98136540D01*
X215913652Y-98406335D01*
X215643857Y-98810112D01*
X215549117Y-99286400D01*
X215547083Y-99286400D01*
X215452343Y-98810112D01*
X215182548Y-98406335D01*
X214778771Y-98136540D01*
X214302483Y-98041800D01*
X214253717Y-98041800D01*
X213777429Y-98136540D01*
X213373652Y-98406335D01*
X213103857Y-98810112D01*
X213009117Y-99286400D01*
X210111100Y-99286400D01*
X210111100Y-96746400D01*
X213009117Y-96746400D01*
X213103857Y-97222688D01*
X213373652Y-97626465D01*
X213777429Y-97896260D01*
X214253717Y-97991000D01*
X214302483Y-97991000D01*
X214778771Y-97896260D01*
X215182548Y-97626465D01*
X215452343Y-97222688D01*
X215547083Y-96746400D01*
X215549117Y-96746400D01*
X215643857Y-97222688D01*
X215913652Y-97626465D01*
X216317429Y-97896260D01*
X216793717Y-97991000D01*
X216842483Y-97991000D01*
X217318771Y-97896260D01*
X217722548Y-97626465D01*
X217992343Y-97222688D01*
X218087083Y-96746400D01*
X217992343Y-96270112D01*
X217722548Y-95866335D01*
X217318771Y-95596540D01*
X216842483Y-95501800D01*
X216793717Y-95501800D01*
X216317429Y-95596540D01*
X215913652Y-95866335D01*
X215643857Y-96270112D01*
X215549117Y-96746400D01*
X215547083Y-96746400D01*
X215452343Y-96270112D01*
X215182548Y-95866335D01*
X214778771Y-95596540D01*
X214302483Y-95501800D01*
X214253717Y-95501800D01*
X213777429Y-95596540D01*
X213373652Y-95866335D01*
X213103857Y-96270112D01*
X213009117Y-96746400D01*
X210111100Y-96746400D01*
X210111100Y-94206400D01*
X213009117Y-94206400D01*
X213103857Y-94682688D01*
X213373652Y-95086465D01*
X213777429Y-95356260D01*
X214253717Y-95451000D01*
X214302483Y-95451000D01*
X214778771Y-95356260D01*
X215182548Y-95086465D01*
X215452343Y-94682688D01*
X215547083Y-94206400D01*
X215549117Y-94206400D01*
X215643857Y-94682688D01*
X215913652Y-95086465D01*
X216317429Y-95356260D01*
X216793717Y-95451000D01*
X216842483Y-95451000D01*
X217318771Y-95356260D01*
X217722548Y-95086465D01*
X217992343Y-94682688D01*
X218087083Y-94206400D01*
X217992343Y-93730112D01*
X217722548Y-93326335D01*
X217318771Y-93056540D01*
X216842483Y-92961800D01*
X216793717Y-92961800D01*
X216317429Y-93056540D01*
X215913652Y-93326335D01*
X215643857Y-93730112D01*
X215549117Y-94206400D01*
X215547083Y-94206400D01*
X215452343Y-93730112D01*
X215182548Y-93326335D01*
X214778771Y-93056540D01*
X214302483Y-92961800D01*
X214253717Y-92961800D01*
X213777429Y-93056540D01*
X213373652Y-93326335D01*
X213103857Y-93730112D01*
X213009117Y-94206400D01*
X210111100Y-94206400D01*
X210111100Y-91666400D01*
X213009117Y-91666400D01*
X213103857Y-92142688D01*
X213373652Y-92546465D01*
X213777429Y-92816260D01*
X214253717Y-92911000D01*
X214302483Y-92911000D01*
X214778771Y-92816260D01*
X215182548Y-92546465D01*
X215452343Y-92142688D01*
X215547083Y-91666400D01*
X215549117Y-91666400D01*
X215643857Y-92142688D01*
X215913652Y-92546465D01*
X216317429Y-92816260D01*
X216793717Y-92911000D01*
X216842483Y-92911000D01*
X217318771Y-92816260D01*
X217722548Y-92546465D01*
X217992343Y-92142688D01*
X218087083Y-91666400D01*
X217992343Y-91190112D01*
X217722548Y-90786335D01*
X217318771Y-90516540D01*
X216842483Y-90421800D01*
X216793717Y-90421800D01*
X216317429Y-90516540D01*
X215913652Y-90786335D01*
X215643857Y-91190112D01*
X215549117Y-91666400D01*
X215547083Y-91666400D01*
X215452343Y-91190112D01*
X215182548Y-90786335D01*
X214778771Y-90516540D01*
X214302483Y-90421800D01*
X214253717Y-90421800D01*
X213777429Y-90516540D01*
X213373652Y-90786335D01*
X213103857Y-91190112D01*
X213009117Y-91666400D01*
X210111100Y-91666400D01*
X210111100Y-89126400D01*
X213009117Y-89126400D01*
X213103857Y-89602688D01*
X213373652Y-90006465D01*
X213777429Y-90276260D01*
X214253717Y-90371000D01*
X214302483Y-90371000D01*
X214778771Y-90276260D01*
X215182548Y-90006465D01*
X215452343Y-89602688D01*
X215547083Y-89126400D01*
X215549117Y-89126400D01*
X215643857Y-89602688D01*
X215913652Y-90006465D01*
X216317429Y-90276260D01*
X216793717Y-90371000D01*
X216842483Y-90371000D01*
X217318771Y-90276260D01*
X217722548Y-90006465D01*
X217992343Y-89602688D01*
X218087083Y-89126400D01*
X217992343Y-88650112D01*
X217722548Y-88246335D01*
X217318771Y-87976540D01*
X216842483Y-87881800D01*
X216793717Y-87881800D01*
X216317429Y-87976540D01*
X215913652Y-88246335D01*
X215643857Y-88650112D01*
X215549117Y-89126400D01*
X215547083Y-89126400D01*
X215452343Y-88650112D01*
X215182548Y-88246335D01*
X214778771Y-87976540D01*
X214302483Y-87881800D01*
X214253717Y-87881800D01*
X213777429Y-87976540D01*
X213373652Y-88246335D01*
X213103857Y-88650112D01*
X213009117Y-89126400D01*
X210111100Y-89126400D01*
X210111100Y-85278096D01*
X210043429Y-84937890D01*
X209850718Y-84649478D01*
X197352523Y-72151283D01*
X197064111Y-71958572D01*
X196723905Y-71890901D01*
X187441599Y-71890901D01*
X187101394Y-71958571D01*
X186812981Y-72151283D01*
X186368482Y-72595782D01*
X186175771Y-72884194D01*
X186108100Y-73224400D01*
X186108100Y-76891311D01*
X185981235Y-76972946D01*
X185894241Y-77100266D01*
X185863636Y-77251400D01*
X185863636Y-78501400D01*
X185890203Y-78642590D01*
X185958933Y-78749400D01*
X185306575Y-78749400D01*
X184557100Y-77999924D01*
X184557100Y-76352400D01*
X184471008Y-75919585D01*
X184225838Y-75552662D01*
X183858915Y-75307492D01*
X183426100Y-75221400D01*
X182993285Y-75307492D01*
X182626362Y-75552662D01*
X182381192Y-75919585D01*
X182295100Y-76352400D01*
X182295100Y-78468400D01*
X182381192Y-78901215D01*
X182626362Y-79268138D01*
X184038360Y-80680135D01*
X184038362Y-80680138D01*
X184400731Y-80922265D01*
X184405285Y-80925308D01*
X184838100Y-81011401D01*
X184838105Y-81011400D01*
X186301241Y-81011400D01*
X186338100Y-81018864D01*
X188157362Y-81018864D01*
X188134290Y-81041936D01*
X186338100Y-81041936D01*
X186298433Y-81049400D01*
X182426564Y-81049400D01*
X182426564Y-80280400D01*
X182399997Y-80139210D01*
X182316554Y-80009535D01*
X182189234Y-79922541D01*
X182038100Y-79891936D01*
X180038100Y-79891936D01*
X179896910Y-79918503D01*
X179767235Y-80001946D01*
X179680241Y-80129266D01*
X179649636Y-80280400D01*
X168675992Y-80280400D01*
X168582483Y-80261800D01*
X168533717Y-80261800D01*
X168057429Y-80356540D01*
X167653652Y-80626335D01*
X167383857Y-81030112D01*
X167289117Y-81506400D01*
X167287083Y-81506400D01*
X167192343Y-81030112D01*
X166922548Y-80626335D01*
X166518771Y-80356540D01*
X166042483Y-80261800D01*
X165993717Y-80261800D01*
X165517429Y-80356540D01*
X165113652Y-80626335D01*
X164843857Y-81030112D01*
X164749117Y-81506400D01*
X157052370Y-81506400D01*
X157052370Y-78966400D01*
X164749117Y-78966400D01*
X164843857Y-79442688D01*
X165113652Y-79846465D01*
X165517429Y-80116260D01*
X165993717Y-80211000D01*
X166042483Y-80211000D01*
X166518771Y-80116260D01*
X166922548Y-79846465D01*
X167192343Y-79442688D01*
X167287083Y-78966400D01*
X167289117Y-78966400D01*
X167383857Y-79442688D01*
X167653652Y-79846465D01*
X168057429Y-80116260D01*
X168533717Y-80211000D01*
X168582483Y-80211000D01*
X169058771Y-80116260D01*
X169462548Y-79846465D01*
X169732343Y-79442688D01*
X169827083Y-78966400D01*
X169732343Y-78490112D01*
X169462548Y-78086335D01*
X169058771Y-77816540D01*
X168582483Y-77721800D01*
X168533717Y-77721800D01*
X168057429Y-77816540D01*
X167653652Y-78086335D01*
X167383857Y-78490112D01*
X167289117Y-78966400D01*
X167287083Y-78966400D01*
X167192343Y-78490112D01*
X166922548Y-78086335D01*
X166518771Y-77816540D01*
X166042483Y-77721800D01*
X165993717Y-77721800D01*
X165517429Y-77816540D01*
X165113652Y-78086335D01*
X164843857Y-78490112D01*
X164749117Y-78966400D01*
X157052370Y-78966400D01*
X157052370Y-76426400D01*
X164749117Y-76426400D01*
X164843857Y-76902688D01*
X165113652Y-77306465D01*
X165517429Y-77576260D01*
X165993717Y-77671000D01*
X166042483Y-77671000D01*
X166518771Y-77576260D01*
X166922548Y-77306465D01*
X167192343Y-76902688D01*
X167287083Y-76426400D01*
X167289117Y-76426400D01*
X167383857Y-76902688D01*
X167653652Y-77306465D01*
X168057429Y-77576260D01*
X168533717Y-77671000D01*
X168582483Y-77671000D01*
X169058771Y-77576260D01*
X169462548Y-77306465D01*
X169732343Y-76902688D01*
X169827083Y-76426400D01*
X169732343Y-75950112D01*
X169462548Y-75546335D01*
X169058771Y-75276540D01*
X168582483Y-75181800D01*
X168533717Y-75181800D01*
X168057429Y-75276540D01*
X167653652Y-75546335D01*
X167383857Y-75950112D01*
X167289117Y-76426400D01*
X167287083Y-76426400D01*
X167192343Y-75950112D01*
X166922548Y-75546335D01*
X166518771Y-75276540D01*
X166042483Y-75181800D01*
X165993717Y-75181800D01*
X165517429Y-75276540D01*
X165113652Y-75546335D01*
X164843857Y-75950112D01*
X164749117Y-76426400D01*
X157052370Y-76426400D01*
X157052370Y-73886400D01*
X164749117Y-73886400D01*
X164843857Y-74362688D01*
X165113652Y-74766465D01*
X165517429Y-75036260D01*
X165993717Y-75131000D01*
X166042483Y-75131000D01*
X166518771Y-75036260D01*
X166922548Y-74766465D01*
X167192343Y-74362688D01*
X167287083Y-73886400D01*
X167289117Y-73886400D01*
X167383857Y-74362688D01*
X167653652Y-74766465D01*
X168057429Y-75036260D01*
X168533717Y-75131000D01*
X168582483Y-75131000D01*
X169058771Y-75036260D01*
X169462548Y-74766465D01*
X169732343Y-74362688D01*
X169827083Y-73886400D01*
X169732343Y-73410112D01*
X169462548Y-73006335D01*
X169058771Y-72736540D01*
X168582483Y-72641800D01*
X168533717Y-72641800D01*
X168057429Y-72736540D01*
X167653652Y-73006335D01*
X167383857Y-73410112D01*
X167289117Y-73886400D01*
X167287083Y-73886400D01*
X167192343Y-73410112D01*
X166922548Y-73006335D01*
X166518771Y-72736540D01*
X166042483Y-72641800D01*
X165993717Y-72641800D01*
X165517429Y-72736540D01*
X165113652Y-73006335D01*
X164843857Y-73410112D01*
X164749117Y-73886400D01*
X157052370Y-73886400D01*
X157052370Y-71346400D01*
X164749117Y-71346400D01*
X164843857Y-71822688D01*
X165113652Y-72226465D01*
X165517429Y-72496260D01*
X165993717Y-72591000D01*
X166042483Y-72591000D01*
X166518771Y-72496260D01*
X166922548Y-72226465D01*
X167192343Y-71822688D01*
X167287083Y-71346400D01*
X167289117Y-71346400D01*
X167383857Y-71822688D01*
X167653652Y-72226465D01*
X168057429Y-72496260D01*
X168533717Y-72591000D01*
X168582483Y-72591000D01*
X169058771Y-72496260D01*
X169462548Y-72226465D01*
X169732343Y-71822688D01*
X169827083Y-71346400D01*
X169732343Y-70870112D01*
X169462548Y-70466335D01*
X169058771Y-70196540D01*
X168582483Y-70101800D01*
X168533717Y-70101800D01*
X168057429Y-70196540D01*
X167653652Y-70466335D01*
X167383857Y-70870112D01*
X167289117Y-71346400D01*
X167287083Y-71346400D01*
X167192343Y-70870112D01*
X166922548Y-70466335D01*
X166518771Y-70196540D01*
X166042483Y-70101800D01*
X165993717Y-70101800D01*
X165517429Y-70196540D01*
X165113652Y-70466335D01*
X164843857Y-70870112D01*
X164749117Y-71346400D01*
X157052370Y-71346400D01*
X157052370Y-68806400D01*
X164749117Y-68806400D01*
X164843857Y-69282688D01*
X165113652Y-69686465D01*
X165517429Y-69956260D01*
X165993717Y-70051000D01*
X166042483Y-70051000D01*
X166518771Y-69956260D01*
X166922548Y-69686465D01*
X167192343Y-69282688D01*
X167287083Y-68806400D01*
X167289117Y-68806400D01*
X167383857Y-69282688D01*
X167653652Y-69686465D01*
X168057429Y-69956260D01*
X168533717Y-70051000D01*
X168582483Y-70051000D01*
X169058771Y-69956260D01*
X169462548Y-69686465D01*
X169711154Y-69314400D01*
X169779414Y-69314400D01*
X169973817Y-69275731D01*
X170138624Y-69165610D01*
X170317834Y-68986400D01*
X193092983Y-68986400D01*
X193186687Y-69457483D01*
X193453535Y-69856848D01*
X193852900Y-70123696D01*
X194323983Y-70217400D01*
X194372217Y-70217400D01*
X194843300Y-70123696D01*
X195242665Y-69856848D01*
X195509513Y-69457483D01*
X195603217Y-68986400D01*
X195632983Y-68986400D01*
X195726687Y-69457483D01*
X195993535Y-69856848D01*
X196392900Y-70123696D01*
X196863983Y-70217400D01*
X196912217Y-70217400D01*
X197383300Y-70123696D01*
X197782665Y-69856848D01*
X198049513Y-69457483D01*
X198143217Y-68986400D01*
X198049513Y-68515317D01*
X197782665Y-68115952D01*
X197383300Y-67849104D01*
X196912217Y-67755400D01*
X196863983Y-67755400D01*
X196392900Y-67849104D01*
X195993535Y-68115952D01*
X195726687Y-68515317D01*
X195632983Y-68986400D01*
X195603217Y-68986400D01*
X195509513Y-68515317D01*
X195242665Y-68115952D01*
X194843300Y-67849104D01*
X194372217Y-67755400D01*
X194323983Y-67755400D01*
X193852900Y-67849104D01*
X193453535Y-68115952D01*
X193186687Y-68515317D01*
X193092983Y-68986400D01*
X170317834Y-68986400D01*
X172429834Y-66874400D01*
X173256798Y-66874400D01*
X173447881Y-67065817D01*
X173751177Y-67191757D01*
X174079582Y-67192043D01*
X174383098Y-67066633D01*
X174615517Y-66834619D01*
X174741457Y-66531323D01*
X174741530Y-66446400D01*
X193092983Y-66446400D01*
X193186687Y-66917483D01*
X193453535Y-67316848D01*
X193852900Y-67583696D01*
X194323983Y-67677400D01*
X194372217Y-67677400D01*
X194843300Y-67583696D01*
X195242665Y-67316848D01*
X195509513Y-66917483D01*
X195603217Y-66446400D01*
X195632983Y-66446400D01*
X195726687Y-66917483D01*
X195993535Y-67316848D01*
X196392900Y-67583696D01*
X196863983Y-67677400D01*
X196912217Y-67677400D01*
X197383300Y-67583696D01*
X197782665Y-67316848D01*
X198049513Y-66917483D01*
X198143217Y-66446400D01*
X198049513Y-65975317D01*
X197782665Y-65575952D01*
X197383300Y-65309104D01*
X196912217Y-65215400D01*
X196863983Y-65215400D01*
X196392900Y-65309104D01*
X195993535Y-65575952D01*
X195726687Y-65975317D01*
X195632983Y-66446400D01*
X195603217Y-66446400D01*
X195509513Y-65975317D01*
X195242665Y-65575952D01*
X194843300Y-65309104D01*
X194372217Y-65215400D01*
X194323983Y-65215400D01*
X193852900Y-65309104D01*
X193453535Y-65575952D01*
X193186687Y-65975317D01*
X193092983Y-66446400D01*
X174741530Y-66446400D01*
X174741743Y-66202918D01*
X174616333Y-65899402D01*
X174384319Y-65666983D01*
X174081023Y-65541043D01*
X173752618Y-65540757D01*
X173449102Y-65666167D01*
X173256533Y-65858400D01*
X172219414Y-65858400D01*
X172025010Y-65897069D01*
X171860204Y-66007190D01*
X169654213Y-68213181D01*
X169462548Y-67926335D01*
X169058771Y-67656540D01*
X168582483Y-67561800D01*
X168533717Y-67561800D01*
X168057429Y-67656540D01*
X167653652Y-67926335D01*
X167383857Y-68330112D01*
X167289117Y-68806400D01*
X167287083Y-68806400D01*
X167192343Y-68330112D01*
X166922548Y-67926335D01*
X166518771Y-67656540D01*
X166042483Y-67561800D01*
X165993717Y-67561800D01*
X165517429Y-67656540D01*
X165113652Y-67926335D01*
X164843857Y-68330112D01*
X164749117Y-68806400D01*
X157052370Y-68806400D01*
X157052370Y-66266400D01*
X164749117Y-66266400D01*
X164843857Y-66742688D01*
X165113652Y-67146465D01*
X165517429Y-67416260D01*
X165993717Y-67511000D01*
X166042483Y-67511000D01*
X166518771Y-67416260D01*
X166922548Y-67146465D01*
X167192343Y-66742688D01*
X167287083Y-66266400D01*
X167192343Y-65790112D01*
X166922548Y-65386335D01*
X166518771Y-65116540D01*
X166042483Y-65021800D01*
X165993717Y-65021800D01*
X165517429Y-65116540D01*
X165113652Y-65386335D01*
X164843857Y-65790112D01*
X164749117Y-66266400D01*
X157052370Y-66266400D01*
X157052370Y-61186400D01*
X164749117Y-61186400D01*
X164843857Y-61662688D01*
X165113652Y-62066465D01*
X165517429Y-62336260D01*
X165993717Y-62431000D01*
X166042483Y-62431000D01*
X166461026Y-62347746D01*
X166903491Y-62790212D01*
X167062410Y-62896398D01*
X167068298Y-62900332D01*
X167262701Y-62939001D01*
X167591735Y-62939001D01*
X167383857Y-63250112D01*
X167289117Y-63726400D01*
X167383857Y-64202688D01*
X167557792Y-64463001D01*
X167473122Y-64463001D01*
X167195738Y-64185618D01*
X167287083Y-63726400D01*
X167192343Y-63250112D01*
X166922548Y-62846335D01*
X166518771Y-62576540D01*
X166042483Y-62481800D01*
X165993717Y-62481800D01*
X165517429Y-62576540D01*
X165113652Y-62846335D01*
X164843857Y-63250112D01*
X164749117Y-63726400D01*
X164843857Y-64202688D01*
X165113652Y-64606465D01*
X165517429Y-64876260D01*
X165993717Y-64971000D01*
X166042483Y-64971000D01*
X166461026Y-64887746D01*
X166903491Y-65330212D01*
X167068298Y-65440332D01*
X167262701Y-65479001D01*
X167591735Y-65479001D01*
X167383857Y-65790112D01*
X167289117Y-66266400D01*
X167383857Y-66742688D01*
X167653652Y-67146465D01*
X168057429Y-67416260D01*
X168533717Y-67511000D01*
X168582483Y-67511000D01*
X169058771Y-67416260D01*
X169462548Y-67146465D01*
X169732343Y-66742688D01*
X169827083Y-66266400D01*
X169732343Y-65790112D01*
X169524465Y-65479001D01*
X181788499Y-65479001D01*
X181982902Y-65440332D01*
X182147709Y-65330211D01*
X183063520Y-64414400D01*
X193211354Y-64414400D01*
X193453535Y-64776848D01*
X193852900Y-65043696D01*
X194323983Y-65137400D01*
X194372217Y-65137400D01*
X194843300Y-65043696D01*
X195242665Y-64776848D01*
X195509513Y-64377483D01*
X195603217Y-63906400D01*
X195632983Y-63906400D01*
X195726687Y-64377483D01*
X195993535Y-64776848D01*
X196392900Y-65043696D01*
X196863983Y-65137400D01*
X196912217Y-65137400D01*
X197319639Y-65056359D01*
X211254100Y-78990821D01*
X211254100Y-84070400D01*
X211292769Y-84264803D01*
X211402890Y-84429610D01*
X213100462Y-86127182D01*
X213009117Y-86586400D01*
X213103857Y-87062688D01*
X213373652Y-87466465D01*
X213777429Y-87736260D01*
X214253717Y-87831000D01*
X214302483Y-87831000D01*
X214778771Y-87736260D01*
X215182548Y-87466465D01*
X215452343Y-87062688D01*
X215547083Y-86586400D01*
X215549117Y-86586400D01*
X215643857Y-87062688D01*
X215913652Y-87466465D01*
X216317429Y-87736260D01*
X216793717Y-87831000D01*
X216842483Y-87831000D01*
X217318771Y-87736260D01*
X217722548Y-87466465D01*
X217992343Y-87062688D01*
X218087083Y-86586400D01*
X217992343Y-86110112D01*
X217722548Y-85706335D01*
X217318771Y-85436540D01*
X216842483Y-85341800D01*
X216793717Y-85341800D01*
X216317429Y-85436540D01*
X215913652Y-85706335D01*
X215643857Y-86110112D01*
X215549117Y-86586400D01*
X215547083Y-86586400D01*
X215452343Y-86110112D01*
X215182548Y-85706335D01*
X214778771Y-85436540D01*
X214302483Y-85341800D01*
X214253717Y-85341800D01*
X213835174Y-85425054D01*
X212456520Y-84046400D01*
X213009117Y-84046400D01*
X213103857Y-84522688D01*
X213373652Y-84926465D01*
X213777429Y-85196260D01*
X214253717Y-85291000D01*
X214302483Y-85291000D01*
X214778771Y-85196260D01*
X215182548Y-84926465D01*
X215452343Y-84522688D01*
X215547083Y-84046400D01*
X215549117Y-84046400D01*
X215643857Y-84522688D01*
X215913652Y-84926465D01*
X216317429Y-85196260D01*
X216793717Y-85291000D01*
X216842483Y-85291000D01*
X217318771Y-85196260D01*
X217722548Y-84926465D01*
X217992343Y-84522688D01*
X218087083Y-84046400D01*
X217992343Y-83570112D01*
X217722548Y-83166335D01*
X217318771Y-82896540D01*
X216842483Y-82801800D01*
X216793717Y-82801800D01*
X216317429Y-82896540D01*
X215913652Y-83166335D01*
X215643857Y-83570112D01*
X215549117Y-84046400D01*
X215547083Y-84046400D01*
X215452343Y-83570112D01*
X215182548Y-83166335D01*
X214778771Y-82896540D01*
X214302483Y-82801800D01*
X214253717Y-82801800D01*
X213777429Y-82896540D01*
X213373652Y-83166335D01*
X213103857Y-83570112D01*
X213009117Y-84046400D01*
X212456520Y-84046400D01*
X212270100Y-83859980D01*
X212270100Y-81506400D01*
X213009117Y-81506400D01*
X213103857Y-81982688D01*
X213373652Y-82386465D01*
X213777429Y-82656260D01*
X214253717Y-82751000D01*
X214302483Y-82751000D01*
X214778771Y-82656260D01*
X215182548Y-82386465D01*
X215452343Y-81982688D01*
X215547083Y-81506400D01*
X215549117Y-81506400D01*
X215643857Y-81982688D01*
X215913652Y-82386465D01*
X216317429Y-82656260D01*
X216793717Y-82751000D01*
X216842483Y-82751000D01*
X217318771Y-82656260D01*
X217722548Y-82386465D01*
X217992343Y-81982688D01*
X218087083Y-81506400D01*
X217992343Y-81030112D01*
X217722548Y-80626335D01*
X217318771Y-80356540D01*
X216842483Y-80261800D01*
X216793717Y-80261800D01*
X216317429Y-80356540D01*
X215913652Y-80626335D01*
X215643857Y-81030112D01*
X215549117Y-81506400D01*
X215547083Y-81506400D01*
X215452343Y-81030112D01*
X215182548Y-80626335D01*
X214778771Y-80356540D01*
X214302483Y-80261800D01*
X214253717Y-80261800D01*
X213777429Y-80356540D01*
X213373652Y-80626335D01*
X213103857Y-81030112D01*
X213009117Y-81506400D01*
X212270100Y-81506400D01*
X212270100Y-78780400D01*
X212231431Y-78585997D01*
X212185121Y-78516689D01*
X212121311Y-78421190D01*
X198054173Y-64354053D01*
X198143217Y-63906400D01*
X198049513Y-63435317D01*
X197782665Y-63035952D01*
X197383300Y-62769104D01*
X196912217Y-62675400D01*
X196863983Y-62675400D01*
X196392900Y-62769104D01*
X195993535Y-63035952D01*
X195726687Y-63435317D01*
X195632983Y-63906400D01*
X195603217Y-63906400D01*
X195509513Y-63435317D01*
X195242665Y-63035952D01*
X194843300Y-62769104D01*
X194372217Y-62675400D01*
X194323983Y-62675400D01*
X193852900Y-62769104D01*
X193453535Y-63035952D01*
X193211354Y-63398400D01*
X182853100Y-63398400D01*
X182658696Y-63437069D01*
X182493890Y-63547190D01*
X181578079Y-64463001D01*
X169558408Y-64463001D01*
X169711154Y-64234400D01*
X178461100Y-64234400D01*
X178655503Y-64195731D01*
X178820310Y-64085610D01*
X181031520Y-61874400D01*
X193211354Y-61874400D01*
X193453535Y-62236848D01*
X193852900Y-62503696D01*
X194323983Y-62597400D01*
X194372217Y-62597400D01*
X194843300Y-62503696D01*
X195242665Y-62236848D01*
X195509513Y-61837483D01*
X195603217Y-61366400D01*
X195632983Y-61366400D01*
X195726687Y-61837483D01*
X195993535Y-62236848D01*
X196392900Y-62503696D01*
X196863983Y-62597400D01*
X196912217Y-62597400D01*
X197319639Y-62516359D01*
X213179774Y-78376494D01*
X213103857Y-78490112D01*
X213009117Y-78966400D01*
X213103857Y-79442688D01*
X213373652Y-79846465D01*
X213777429Y-80116260D01*
X214253717Y-80211000D01*
X214302483Y-80211000D01*
X214778771Y-80116260D01*
X215182548Y-79846465D01*
X215452343Y-79442688D01*
X215547083Y-78966400D01*
X215452343Y-78490112D01*
X215182548Y-78086335D01*
X214778771Y-77816540D01*
X214302483Y-77721800D01*
X214253717Y-77721800D01*
X214010332Y-77770212D01*
X213826052Y-77585932D01*
X214253717Y-77671000D01*
X214302483Y-77671000D01*
X214778771Y-77576260D01*
X215182548Y-77306465D01*
X215452343Y-76902688D01*
X215547083Y-76426400D01*
X215549117Y-76426400D01*
X215643857Y-76902688D01*
X215913652Y-77306465D01*
X216317429Y-77576260D01*
X216793717Y-77671000D01*
X216842483Y-77671000D01*
X217318771Y-77576260D01*
X217722548Y-77306465D01*
X217992343Y-76902688D01*
X218087083Y-76426400D01*
X217992343Y-75950112D01*
X217722548Y-75546335D01*
X217318771Y-75276540D01*
X216842483Y-75181800D01*
X216793717Y-75181800D01*
X216317429Y-75276540D01*
X215913652Y-75546335D01*
X215643857Y-75950112D01*
X215549117Y-76426400D01*
X215547083Y-76426400D01*
X215452343Y-75950112D01*
X215182548Y-75546335D01*
X214778771Y-75276540D01*
X214302483Y-75181800D01*
X214253717Y-75181800D01*
X213777429Y-75276540D01*
X213373652Y-75546335D01*
X213103857Y-75950112D01*
X213009117Y-76426400D01*
X213094185Y-76854065D01*
X198054173Y-61814053D01*
X198143217Y-61366400D01*
X198049513Y-60895317D01*
X197782665Y-60495952D01*
X197383300Y-60229104D01*
X196912217Y-60135400D01*
X196863983Y-60135400D01*
X196392900Y-60229104D01*
X195993535Y-60495952D01*
X195726687Y-60895317D01*
X195632983Y-61366400D01*
X195603217Y-61366400D01*
X195509513Y-60895317D01*
X195242665Y-60495952D01*
X194843300Y-60229104D01*
X194372217Y-60135400D01*
X194323983Y-60135400D01*
X193852900Y-60229104D01*
X193453535Y-60495952D01*
X193211354Y-60858400D01*
X180821100Y-60858400D01*
X180626697Y-60897069D01*
X180461890Y-61007190D01*
X178250680Y-63218400D01*
X175819265Y-63218400D01*
X176034098Y-63129633D01*
X176266517Y-62897619D01*
X176392457Y-62594323D01*
X176392743Y-62265918D01*
X176267333Y-61962402D01*
X176035319Y-61729983D01*
X175949626Y-61694400D01*
X176712751Y-61694400D01*
X176876881Y-61858817D01*
X177180177Y-61984757D01*
X177508582Y-61985043D01*
X177812098Y-61859633D01*
X178044517Y-61627619D01*
X178170457Y-61324323D01*
X178170743Y-60995918D01*
X178045333Y-60692402D01*
X177813319Y-60459983D01*
X177510023Y-60334043D01*
X177181618Y-60333757D01*
X176878102Y-60459167D01*
X176658486Y-60678400D01*
X169711154Y-60678400D01*
X169462548Y-60306335D01*
X169058771Y-60036540D01*
X168582483Y-59941800D01*
X168533717Y-59941800D01*
X168057429Y-60036540D01*
X167653652Y-60306335D01*
X167383857Y-60710112D01*
X167289117Y-61186400D01*
X167383857Y-61662688D01*
X167557792Y-61923001D01*
X167473122Y-61923001D01*
X167195738Y-61645618D01*
X167287083Y-61186400D01*
X167192343Y-60710112D01*
X166922548Y-60306335D01*
X166518771Y-60036540D01*
X166042483Y-59941800D01*
X165993717Y-59941800D01*
X165517429Y-60036540D01*
X165113652Y-60306335D01*
X164843857Y-60710112D01*
X164749117Y-61186400D01*
X157052370Y-61186400D01*
X157052370Y-58646400D01*
X164749117Y-58646400D01*
X164843857Y-59122688D01*
X165113652Y-59526465D01*
X165517429Y-59796260D01*
X165993717Y-59891000D01*
X166042483Y-59891000D01*
X166518771Y-59796260D01*
X166922548Y-59526465D01*
X167192343Y-59122688D01*
X167287083Y-58646400D01*
X167289117Y-58646400D01*
X167383857Y-59122688D01*
X167653652Y-59526465D01*
X168057429Y-59796260D01*
X168533717Y-59891000D01*
X168582483Y-59891000D01*
X169058771Y-59796260D01*
X169462548Y-59526465D01*
X169732343Y-59122688D01*
X169791278Y-58826400D01*
X193092983Y-58826400D01*
X193186687Y-59297483D01*
X193453535Y-59696848D01*
X193852900Y-59963696D01*
X194323983Y-60057400D01*
X194372217Y-60057400D01*
X194843300Y-59963696D01*
X195242665Y-59696848D01*
X195509513Y-59297483D01*
X195603217Y-58826400D01*
X195632983Y-58826400D01*
X195726687Y-59297483D01*
X195993535Y-59696848D01*
X196392900Y-59963696D01*
X196863983Y-60057400D01*
X196912217Y-60057400D01*
X197383300Y-59963696D01*
X197782665Y-59696848D01*
X198024846Y-59334400D01*
X199007680Y-59334400D01*
X213100462Y-73427182D01*
X213009117Y-73886400D01*
X213103857Y-74362688D01*
X213373652Y-74766465D01*
X213777429Y-75036260D01*
X214253717Y-75131000D01*
X214302483Y-75131000D01*
X214778771Y-75036260D01*
X215182548Y-74766465D01*
X215452343Y-74362688D01*
X215547083Y-73886400D01*
X215452343Y-73410112D01*
X215182548Y-73006335D01*
X214778771Y-72736540D01*
X214302483Y-72641800D01*
X214253717Y-72641800D01*
X213835174Y-72725054D01*
X199577310Y-58467190D01*
X199412503Y-58357069D01*
X199218100Y-58318400D01*
X198024846Y-58318400D01*
X197782665Y-57955952D01*
X197383300Y-57689104D01*
X196912217Y-57595400D01*
X196863983Y-57595400D01*
X196392900Y-57689104D01*
X195993535Y-57955952D01*
X195726687Y-58355317D01*
X195632983Y-58826400D01*
X195603217Y-58826400D01*
X195509513Y-58355317D01*
X195242665Y-57955952D01*
X194843300Y-57689104D01*
X194372217Y-57595400D01*
X194323983Y-57595400D01*
X193852900Y-57689104D01*
X193453535Y-57955952D01*
X193186687Y-58355317D01*
X193092983Y-58826400D01*
X169791278Y-58826400D01*
X169827083Y-58646400D01*
X169732343Y-58170112D01*
X169462548Y-57766335D01*
X169058771Y-57496540D01*
X168582483Y-57401800D01*
X168533717Y-57401800D01*
X168057429Y-57496540D01*
X167653652Y-57766335D01*
X167383857Y-58170112D01*
X167289117Y-58646400D01*
X167287083Y-58646400D01*
X167192343Y-58170112D01*
X166922548Y-57766335D01*
X166518771Y-57496540D01*
X166042483Y-57401800D01*
X165993717Y-57401800D01*
X165517429Y-57496540D01*
X165113652Y-57766335D01*
X164843857Y-58170112D01*
X164749117Y-58646400D01*
X157052370Y-58646400D01*
X157052370Y-56106400D01*
X164749117Y-56106400D01*
X164843857Y-56582688D01*
X165113652Y-56986465D01*
X165517429Y-57256260D01*
X165993717Y-57351000D01*
X166042483Y-57351000D01*
X166518771Y-57256260D01*
X166922548Y-56986465D01*
X167192343Y-56582688D01*
X167287083Y-56106400D01*
X167289117Y-56106400D01*
X167383857Y-56582688D01*
X167653652Y-56986465D01*
X168057429Y-57256260D01*
X168533717Y-57351000D01*
X168582483Y-57351000D01*
X169058771Y-57256260D01*
X169462548Y-56986465D01*
X169732343Y-56582688D01*
X169827083Y-56106400D01*
X169732343Y-55630112D01*
X169462548Y-55226335D01*
X169058771Y-54956540D01*
X168582483Y-54861800D01*
X168533717Y-54861800D01*
X168057429Y-54956540D01*
X167653652Y-55226335D01*
X167383857Y-55630112D01*
X167289117Y-56106400D01*
X167287083Y-56106400D01*
X167192343Y-55630112D01*
X166922548Y-55226335D01*
X166518771Y-54956540D01*
X166042483Y-54861800D01*
X165993717Y-54861800D01*
X165517429Y-54956540D01*
X165113652Y-55226335D01*
X164843857Y-55630112D01*
X164749117Y-56106400D01*
X157052370Y-56106400D01*
X157052370Y-38874189D01*
X158270311Y-38874189D01*
X158270311Y-46326611D01*
X158308980Y-46521014D01*
X158419101Y-46685821D01*
X164840462Y-53107182D01*
X164749117Y-53566400D01*
X164843857Y-54042688D01*
X165113652Y-54446465D01*
X165517429Y-54716260D01*
X165993717Y-54811000D01*
X166042483Y-54811000D01*
X166518771Y-54716260D01*
X166922548Y-54446465D01*
X167192343Y-54042688D01*
X167287083Y-53566400D01*
X167289117Y-53566400D01*
X167383857Y-54042688D01*
X167653652Y-54446465D01*
X168057429Y-54716260D01*
X168533717Y-54811000D01*
X168582483Y-54811000D01*
X169058771Y-54716260D01*
X169462548Y-54446465D01*
X169711154Y-54074400D01*
X169779414Y-54074400D01*
X169973817Y-54035731D01*
X170138624Y-53925610D01*
X175397834Y-48666400D01*
X193092983Y-48666400D01*
X193186687Y-49137483D01*
X193453535Y-49536848D01*
X193852900Y-49803696D01*
X194323983Y-49897400D01*
X194372217Y-49897400D01*
X194843300Y-49803696D01*
X195242665Y-49536848D01*
X195509513Y-49137483D01*
X195603217Y-48666400D01*
X195514173Y-48218747D01*
X195867519Y-47865401D01*
X195947131Y-47865401D01*
X195726687Y-48195317D01*
X195632983Y-48666400D01*
X195726687Y-49137483D01*
X195947131Y-49467399D01*
X195579101Y-49467399D01*
X195416951Y-49499653D01*
X195384697Y-49506068D01*
X195219891Y-49616189D01*
X194779639Y-50056441D01*
X194372217Y-49975400D01*
X194323983Y-49975400D01*
X193852900Y-50069104D01*
X193453535Y-50335952D01*
X193186687Y-50735317D01*
X193092983Y-51206400D01*
X193186687Y-51677483D01*
X193453535Y-52076848D01*
X193852900Y-52343696D01*
X194323983Y-52437400D01*
X194372217Y-52437400D01*
X194843300Y-52343696D01*
X195242665Y-52076848D01*
X195509513Y-51677483D01*
X195603217Y-51206400D01*
X195514173Y-50758747D01*
X195789521Y-50483399D01*
X195895014Y-50483399D01*
X195726687Y-50735317D01*
X195632983Y-51206400D01*
X195726687Y-51677483D01*
X195947131Y-52007399D01*
X195579101Y-52007399D01*
X195416951Y-52039653D01*
X195384697Y-52046068D01*
X195219891Y-52156189D01*
X194779639Y-52596441D01*
X194372217Y-52515400D01*
X194323983Y-52515400D01*
X193852900Y-52609104D01*
X193453535Y-52875952D01*
X193186687Y-53275317D01*
X193092983Y-53746400D01*
X193186687Y-54217483D01*
X193453535Y-54616848D01*
X193852900Y-54883696D01*
X194323983Y-54977400D01*
X194372217Y-54977400D01*
X194843300Y-54883696D01*
X195242665Y-54616848D01*
X195509513Y-54217483D01*
X195603217Y-53746400D01*
X195514173Y-53298747D01*
X195789521Y-53023399D01*
X195895014Y-53023399D01*
X195726687Y-53275317D01*
X195632983Y-53746400D01*
X195726687Y-54217483D01*
X195947131Y-54547399D01*
X195579101Y-54547399D01*
X195416951Y-54579653D01*
X195384697Y-54586068D01*
X195219891Y-54696189D01*
X194779639Y-55136441D01*
X194372217Y-55055400D01*
X194323983Y-55055400D01*
X193852900Y-55149104D01*
X193453535Y-55415952D01*
X193186687Y-55815317D01*
X193092983Y-56286400D01*
X193186687Y-56757483D01*
X193453535Y-57156848D01*
X193852900Y-57423696D01*
X194323983Y-57517400D01*
X194372217Y-57517400D01*
X194843300Y-57423696D01*
X195242665Y-57156848D01*
X195509513Y-56757483D01*
X195603217Y-56286400D01*
X195514173Y-55838747D01*
X195789521Y-55563399D01*
X195895014Y-55563399D01*
X195726687Y-55815317D01*
X195632983Y-56286400D01*
X195726687Y-56757483D01*
X195993535Y-57156848D01*
X196392900Y-57423696D01*
X196863983Y-57517400D01*
X196912217Y-57517400D01*
X197383300Y-57423696D01*
X197782665Y-57156848D01*
X198024846Y-56794400D01*
X199007680Y-56794400D01*
X213100462Y-70887182D01*
X213009117Y-71346400D01*
X213103857Y-71822688D01*
X213373652Y-72226465D01*
X213777429Y-72496260D01*
X214253717Y-72591000D01*
X214302483Y-72591000D01*
X214778771Y-72496260D01*
X215182548Y-72226465D01*
X215452343Y-71822688D01*
X215547083Y-71346400D01*
X215452343Y-70870112D01*
X215182548Y-70466335D01*
X214778771Y-70196540D01*
X214302483Y-70101800D01*
X214253717Y-70101800D01*
X213835174Y-70185054D01*
X212456520Y-68806400D01*
X213009117Y-68806400D01*
X213103857Y-69282688D01*
X213373652Y-69686465D01*
X213777429Y-69956260D01*
X214253717Y-70051000D01*
X214302483Y-70051000D01*
X214778771Y-69956260D01*
X215182548Y-69686465D01*
X215452343Y-69282688D01*
X215547083Y-68806400D01*
X215452343Y-68330112D01*
X215182548Y-67926335D01*
X214778771Y-67656540D01*
X214302483Y-67561800D01*
X214253717Y-67561800D01*
X213777429Y-67656540D01*
X213373652Y-67926335D01*
X213103857Y-68330112D01*
X213009117Y-68806400D01*
X212456520Y-68806400D01*
X209916520Y-66266400D01*
X213009117Y-66266400D01*
X213103857Y-66742688D01*
X213373652Y-67146465D01*
X213777429Y-67416260D01*
X214253717Y-67511000D01*
X214302483Y-67511000D01*
X214778771Y-67416260D01*
X215182548Y-67146465D01*
X215452343Y-66742688D01*
X215547083Y-66266400D01*
X215549117Y-66266400D01*
X215643857Y-66742688D01*
X215913652Y-67146465D01*
X216317429Y-67416260D01*
X216793717Y-67511000D01*
X216842483Y-67511000D01*
X217318771Y-67416260D01*
X217722548Y-67146465D01*
X217992343Y-66742688D01*
X218087083Y-66266400D01*
X217992343Y-65790112D01*
X217722548Y-65386335D01*
X217318771Y-65116540D01*
X216842483Y-65021800D01*
X216793717Y-65021800D01*
X216317429Y-65116540D01*
X215913652Y-65386335D01*
X215643857Y-65790112D01*
X215549117Y-66266400D01*
X215547083Y-66266400D01*
X215452343Y-65790112D01*
X215182548Y-65386335D01*
X214778771Y-65116540D01*
X214302483Y-65021800D01*
X214253717Y-65021800D01*
X213777429Y-65116540D01*
X213373652Y-65386335D01*
X213103857Y-65790112D01*
X213009117Y-66266400D01*
X209916520Y-66266400D01*
X207376520Y-63726400D01*
X213009117Y-63726400D01*
X213103857Y-64202688D01*
X213373652Y-64606465D01*
X213777429Y-64876260D01*
X214253717Y-64971000D01*
X214302483Y-64971000D01*
X214778771Y-64876260D01*
X215182548Y-64606465D01*
X215452343Y-64202688D01*
X215547083Y-63726400D01*
X215452343Y-63250112D01*
X215182548Y-62846335D01*
X214778771Y-62576540D01*
X214302483Y-62481800D01*
X214253717Y-62481800D01*
X213777429Y-62576540D01*
X213373652Y-62846335D01*
X213103857Y-63250112D01*
X213009117Y-63726400D01*
X207376520Y-63726400D01*
X204836520Y-61186400D01*
X213009117Y-61186400D01*
X213103857Y-61662688D01*
X213373652Y-62066465D01*
X213777429Y-62336260D01*
X214253717Y-62431000D01*
X214302483Y-62431000D01*
X214778771Y-62336260D01*
X215182548Y-62066465D01*
X215452343Y-61662688D01*
X215547083Y-61186400D01*
X215452343Y-60710112D01*
X215182548Y-60306335D01*
X214778771Y-60036540D01*
X214302483Y-59941800D01*
X214253717Y-59941800D01*
X213777429Y-60036540D01*
X213373652Y-60306335D01*
X213103857Y-60710112D01*
X213009117Y-61186400D01*
X204836520Y-61186400D01*
X202296520Y-58646400D01*
X213009117Y-58646400D01*
X213103857Y-59122688D01*
X213373652Y-59526465D01*
X213777429Y-59796260D01*
X214253717Y-59891000D01*
X214302483Y-59891000D01*
X214778771Y-59796260D01*
X215182548Y-59526465D01*
X215452343Y-59122688D01*
X215547083Y-58646400D01*
X215549117Y-58646400D01*
X215643857Y-59122688D01*
X215913652Y-59526465D01*
X216317429Y-59796260D01*
X216793717Y-59891000D01*
X216842483Y-59891000D01*
X217318771Y-59796260D01*
X217722548Y-59526465D01*
X217992343Y-59122688D01*
X218087083Y-58646400D01*
X217992343Y-58170112D01*
X217722548Y-57766335D01*
X217318771Y-57496540D01*
X216842483Y-57401800D01*
X216793717Y-57401800D01*
X216317429Y-57496540D01*
X215913652Y-57766335D01*
X215643857Y-58170112D01*
X215549117Y-58646400D01*
X215547083Y-58646400D01*
X215452343Y-58170112D01*
X215182548Y-57766335D01*
X214778771Y-57496540D01*
X214302483Y-57401800D01*
X214253717Y-57401800D01*
X213777429Y-57496540D01*
X213373652Y-57766335D01*
X213103857Y-58170112D01*
X213009117Y-58646400D01*
X202296520Y-58646400D01*
X199756520Y-56106400D01*
X213009117Y-56106400D01*
X213103857Y-56582688D01*
X213373652Y-56986465D01*
X213777429Y-57256260D01*
X214253717Y-57351000D01*
X214302483Y-57351000D01*
X214778771Y-57256260D01*
X215182548Y-56986465D01*
X215452343Y-56582688D01*
X215547083Y-56106400D01*
X215452343Y-55630112D01*
X215182548Y-55226335D01*
X214778771Y-54956540D01*
X214302483Y-54861800D01*
X214253717Y-54861800D01*
X213777429Y-54956540D01*
X213373652Y-55226335D01*
X213103857Y-55630112D01*
X213009117Y-56106400D01*
X199756520Y-56106400D01*
X199577310Y-55927190D01*
X199412503Y-55817069D01*
X199218100Y-55778400D01*
X198024846Y-55778400D01*
X197881186Y-55563399D01*
X212789101Y-55563399D01*
X212983504Y-55524730D01*
X213148311Y-55414609D01*
X213835174Y-54727746D01*
X214253717Y-54811000D01*
X214302483Y-54811000D01*
X214778771Y-54716260D01*
X215182548Y-54446465D01*
X215452343Y-54042688D01*
X215547083Y-53566400D01*
X215452343Y-53090112D01*
X215182548Y-52686335D01*
X214778771Y-52416540D01*
X214302483Y-52321800D01*
X214253717Y-52321800D01*
X213777429Y-52416540D01*
X213373652Y-52686335D01*
X213103857Y-53090112D01*
X213009117Y-53566400D01*
X213100462Y-54025618D01*
X212578681Y-54547399D01*
X204605974Y-54547399D01*
X204736098Y-54493633D01*
X204968517Y-54261619D01*
X205094457Y-53958323D01*
X205094743Y-53629918D01*
X204969333Y-53326402D01*
X204737319Y-53093983D01*
X204567335Y-53023399D01*
X212789101Y-53023399D01*
X212983504Y-52984730D01*
X213148311Y-52874609D01*
X213835174Y-52187746D01*
X214253717Y-52271000D01*
X214302483Y-52271000D01*
X214778771Y-52176260D01*
X215182548Y-51906465D01*
X215452343Y-51502688D01*
X215547083Y-51026400D01*
X215452343Y-50550112D01*
X215182548Y-50146335D01*
X214778771Y-49876540D01*
X214302483Y-49781800D01*
X214253717Y-49781800D01*
X213777429Y-49876540D01*
X213373652Y-50146335D01*
X213103857Y-50550112D01*
X213009117Y-51026400D01*
X213100462Y-51485618D01*
X212578681Y-52007399D01*
X205367974Y-52007399D01*
X205498098Y-51953633D01*
X205730517Y-51721619D01*
X205856457Y-51418323D01*
X205856743Y-51089918D01*
X205731333Y-50786402D01*
X205499319Y-50553983D01*
X205329335Y-50483399D01*
X212789101Y-50483399D01*
X212983504Y-50444730D01*
X213148311Y-50334609D01*
X213835174Y-49647746D01*
X214253717Y-49731000D01*
X214302483Y-49731000D01*
X214778771Y-49636260D01*
X215182548Y-49366465D01*
X215452343Y-48962688D01*
X215547083Y-48486400D01*
X215549117Y-48486400D01*
X215643857Y-48962688D01*
X215913652Y-49366465D01*
X216317429Y-49636260D01*
X216793717Y-49731000D01*
X216842483Y-49731000D01*
X217318771Y-49636260D01*
X217722548Y-49366465D01*
X217992343Y-48962688D01*
X218087083Y-48486400D01*
X217992343Y-48010112D01*
X217722548Y-47606335D01*
X217318771Y-47336540D01*
X216842483Y-47241800D01*
X216793717Y-47241800D01*
X216317429Y-47336540D01*
X215913652Y-47606335D01*
X215643857Y-48010112D01*
X215549117Y-48486400D01*
X215547083Y-48486400D01*
X215452343Y-48010112D01*
X215182548Y-47606335D01*
X214778771Y-47336540D01*
X214302483Y-47241800D01*
X214253717Y-47241800D01*
X213777429Y-47336540D01*
X213373652Y-47606335D01*
X213103857Y-48010112D01*
X213009117Y-48486400D01*
X213100462Y-48945618D01*
X212578681Y-49467399D01*
X207399974Y-49467399D01*
X207530098Y-49413633D01*
X207762517Y-49181619D01*
X207888457Y-48878323D01*
X207888743Y-48549918D01*
X207763333Y-48246402D01*
X207531319Y-48013983D01*
X207228023Y-47888043D01*
X206899618Y-47887757D01*
X206596102Y-48013167D01*
X206450615Y-48158400D01*
X198024846Y-48158400D01*
X197829069Y-47865401D01*
X212867099Y-47865401D01*
X213061502Y-47826732D01*
X213226309Y-47716611D01*
X213835174Y-47107746D01*
X214253717Y-47191000D01*
X214302483Y-47191000D01*
X214778771Y-47096260D01*
X215182548Y-46826465D01*
X215452343Y-46422688D01*
X215547083Y-45946400D01*
X215549117Y-45946400D01*
X215643857Y-46422688D01*
X215913652Y-46826465D01*
X216317429Y-47096260D01*
X216793717Y-47191000D01*
X216842483Y-47191000D01*
X217318771Y-47096260D01*
X217722548Y-46826465D01*
X217992343Y-46422688D01*
X218087083Y-45946400D01*
X217992343Y-45470112D01*
X217722548Y-45066335D01*
X217318771Y-44796540D01*
X216842483Y-44701800D01*
X216793717Y-44701800D01*
X216317429Y-44796540D01*
X215913652Y-45066335D01*
X215643857Y-45470112D01*
X215549117Y-45946400D01*
X215547083Y-45946400D01*
X215452343Y-45470112D01*
X215182548Y-45066335D01*
X214778771Y-44796540D01*
X214302483Y-44701800D01*
X214253717Y-44701800D01*
X213777429Y-44796540D01*
X213373652Y-45066335D01*
X213103857Y-45470112D01*
X213009117Y-45946400D01*
X213100462Y-46405618D01*
X212656679Y-46849401D01*
X209840372Y-46849401D01*
X210048517Y-46641619D01*
X210174457Y-46338323D01*
X210174743Y-46009918D01*
X210049333Y-45706402D01*
X209817319Y-45473983D01*
X209514023Y-45348043D01*
X209185618Y-45347757D01*
X208882102Y-45473167D01*
X208736615Y-45618400D01*
X198024846Y-45618400D01*
X197782665Y-45255952D01*
X197383300Y-44989104D01*
X196912217Y-44895400D01*
X196863983Y-44895400D01*
X196392900Y-44989104D01*
X195993535Y-45255952D01*
X195726687Y-45655317D01*
X195632983Y-46126400D01*
X195726687Y-46597483D01*
X195895014Y-46849401D01*
X195657099Y-46849401D01*
X195462695Y-46888070D01*
X195297889Y-46998191D01*
X194779639Y-47516441D01*
X194372217Y-47435400D01*
X194323983Y-47435400D01*
X193852900Y-47529104D01*
X193453535Y-47795952D01*
X193186687Y-48195317D01*
X193092983Y-48666400D01*
X175397834Y-48666400D01*
X177937834Y-46126400D01*
X187681100Y-46126400D01*
X187748771Y-46466606D01*
X187941482Y-46755018D01*
X188229894Y-46947729D01*
X188570100Y-47015400D01*
X193481300Y-47015400D01*
X193852900Y-47263696D01*
X194323983Y-47357400D01*
X194372217Y-47357400D01*
X194843300Y-47263696D01*
X195242665Y-46996848D01*
X195509513Y-46597483D01*
X195558239Y-46352518D01*
X195579431Y-46320803D01*
X195618100Y-46126400D01*
X195579431Y-45931997D01*
X195558239Y-45900282D01*
X195509513Y-45655317D01*
X195242665Y-45255952D01*
X194843300Y-44989104D01*
X194372217Y-44895400D01*
X194323983Y-44895400D01*
X193852900Y-44989104D01*
X193481300Y-45237400D01*
X188570100Y-45237400D01*
X188229894Y-45305071D01*
X187941482Y-45497782D01*
X187748771Y-45786194D01*
X187681100Y-46126400D01*
X177937834Y-46126400D01*
X180281834Y-43782400D01*
X187681100Y-43782400D01*
X187748771Y-44122606D01*
X187941482Y-44411018D01*
X188229894Y-44603729D01*
X188570100Y-44671400D01*
X193196568Y-44671400D01*
X193219646Y-44707265D01*
X193346966Y-44794259D01*
X193498100Y-44824864D01*
X195198100Y-44824864D01*
X195339290Y-44798297D01*
X195468965Y-44714854D01*
X195555959Y-44587534D01*
X195586564Y-44436400D01*
X195586564Y-42736400D01*
X195559997Y-42595210D01*
X195476554Y-42465535D01*
X195349234Y-42378541D01*
X195237100Y-42355834D01*
X195237100Y-41720400D01*
X195169429Y-41380194D01*
X194976718Y-41091782D01*
X192989091Y-39104155D01*
X192989091Y-38224581D01*
X193212281Y-38001391D01*
X223131855Y-38001391D01*
X226941482Y-41811018D01*
X227229895Y-42003729D01*
X227570100Y-42071400D01*
X227910305Y-42003729D01*
X228198718Y-41811018D01*
X228391429Y-41522605D01*
X228459100Y-41182400D01*
X228391429Y-40842195D01*
X228198718Y-40553782D01*
X224128709Y-36483773D01*
X223840297Y-36291062D01*
X223500091Y-36223391D01*
X192844045Y-36223391D01*
X192503839Y-36291062D01*
X192215427Y-36483773D01*
X191471473Y-37227727D01*
X191278762Y-37516139D01*
X191211091Y-37856345D01*
X191211091Y-39472391D01*
X191278762Y-39812597D01*
X191471473Y-40101009D01*
X193459100Y-42088636D01*
X193459100Y-42355274D01*
X193356910Y-42374503D01*
X193227235Y-42457946D01*
X193140241Y-42585266D01*
X193109636Y-42736400D01*
X193109636Y-42893400D01*
X188570100Y-42893400D01*
X188229894Y-42961071D01*
X187941482Y-43153782D01*
X187748771Y-43442194D01*
X187681100Y-43782400D01*
X180281834Y-43782400D01*
X184418320Y-39645914D01*
X184528441Y-39481107D01*
X184567110Y-39286704D01*
X184567110Y-35657197D01*
X184528441Y-35462794D01*
X184418320Y-35297987D01*
X183379394Y-34259061D01*
X239022858Y-34259061D01*
X239235090Y-34772703D01*
X239627730Y-35166029D01*
X240141000Y-35379157D01*
X240696761Y-35379642D01*
X241210403Y-35167410D01*
X241603729Y-34774770D01*
X241816857Y-34261500D01*
X241817342Y-33705739D01*
X241605110Y-33192097D01*
X241212470Y-32798771D01*
X240699200Y-32585643D01*
X240143439Y-32585158D01*
X239629797Y-32797390D01*
X239236471Y-33190030D01*
X239023343Y-33703300D01*
X239022858Y-34259061D01*
X183379394Y-34259061D01*
X182643523Y-33523190D01*
X182478716Y-33413069D01*
X182284313Y-33374400D01*
X182154442Y-33374400D01*
X182041537Y-33101149D01*
X181653395Y-32712328D01*
X181146003Y-32501641D01*
X180596607Y-32501161D01*
X180088849Y-32710963D01*
X179700028Y-33099105D01*
X179585716Y-33374400D01*
X175654442Y-33374400D01*
X175541537Y-33101149D01*
X175153395Y-32712328D01*
X174646003Y-32501641D01*
X174096607Y-32501161D01*
X173588849Y-32710963D01*
X173200028Y-33099105D01*
X172989341Y-33606497D01*
X172988861Y-34155893D01*
X173198663Y-34663651D01*
X173586805Y-35052472D01*
X174094197Y-35263159D01*
X174643593Y-35263639D01*
X175151351Y-35053837D01*
X175540172Y-34665695D01*
X175654484Y-34390400D01*
X179585758Y-34390400D01*
X179698663Y-34663651D01*
X180086805Y-35052472D01*
X180594197Y-35263159D01*
X181143593Y-35263639D01*
X181651351Y-35053837D01*
X182040172Y-34665695D01*
X182130838Y-34447345D01*
X183551110Y-35867617D01*
X183551110Y-39076284D01*
X169654213Y-52973181D01*
X169462548Y-52686335D01*
X169058771Y-52416540D01*
X168582483Y-52321800D01*
X168533717Y-52321800D01*
X168057429Y-52416540D01*
X167653652Y-52686335D01*
X167383857Y-53090112D01*
X167289117Y-53566400D01*
X167287083Y-53566400D01*
X167192343Y-53090112D01*
X166922548Y-52686335D01*
X166518771Y-52416540D01*
X166042483Y-52321800D01*
X165993717Y-52321800D01*
X165575174Y-52405054D01*
X164196520Y-51026400D01*
X164749117Y-51026400D01*
X164843857Y-51502688D01*
X165113652Y-51906465D01*
X165517429Y-52176260D01*
X165993717Y-52271000D01*
X166042483Y-52271000D01*
X166518771Y-52176260D01*
X166922548Y-51906465D01*
X167171154Y-51534400D01*
X167405046Y-51534400D01*
X167653652Y-51906465D01*
X168057429Y-52176260D01*
X168533717Y-52271000D01*
X168582483Y-52271000D01*
X169058771Y-52176260D01*
X169462548Y-51906465D01*
X169732343Y-51502688D01*
X169827083Y-51026400D01*
X169732343Y-50550112D01*
X169462548Y-50146335D01*
X169058771Y-49876540D01*
X168582483Y-49781800D01*
X168533717Y-49781800D01*
X168057429Y-49876540D01*
X167653652Y-50146335D01*
X167405046Y-50518400D01*
X167171154Y-50518400D01*
X166922548Y-50146335D01*
X166518771Y-49876540D01*
X166042483Y-49781800D01*
X165993717Y-49781800D01*
X165517429Y-49876540D01*
X165113652Y-50146335D01*
X164843857Y-50550112D01*
X164749117Y-51026400D01*
X164196520Y-51026400D01*
X161656520Y-48486400D01*
X164749117Y-48486400D01*
X164843857Y-48962688D01*
X165113652Y-49366465D01*
X165517429Y-49636260D01*
X165993717Y-49731000D01*
X166042483Y-49731000D01*
X166518771Y-49636260D01*
X166909176Y-49375400D01*
X167667024Y-49375400D01*
X168057429Y-49636260D01*
X168533717Y-49731000D01*
X168582483Y-49731000D01*
X169058771Y-49636260D01*
X169449176Y-49375400D01*
X171787496Y-49375400D01*
X171829895Y-49403730D01*
X172170100Y-49471400D01*
X172510306Y-49403730D01*
X172798718Y-49211018D01*
X172991430Y-48922606D01*
X173059100Y-48582400D01*
X172991430Y-48242195D01*
X172798718Y-47953782D01*
X172702718Y-47857782D01*
X172610183Y-47795952D01*
X172414306Y-47665071D01*
X172074100Y-47597400D01*
X169449176Y-47597400D01*
X169058771Y-47336540D01*
X168582483Y-47241800D01*
X168533717Y-47241800D01*
X168057429Y-47336540D01*
X167667024Y-47597400D01*
X166909176Y-47597400D01*
X166518771Y-47336540D01*
X166042483Y-47241800D01*
X165993717Y-47241800D01*
X165517429Y-47336540D01*
X165113652Y-47606335D01*
X164843857Y-48010112D01*
X164749117Y-48486400D01*
X161656520Y-48486400D01*
X159286311Y-46116191D01*
X159286311Y-45946400D01*
X164749117Y-45946400D01*
X164843857Y-46422688D01*
X165113652Y-46826465D01*
X165517429Y-47096260D01*
X165993717Y-47191000D01*
X166042483Y-47191000D01*
X166518771Y-47096260D01*
X166909176Y-46835400D01*
X167667024Y-46835400D01*
X168057429Y-47096260D01*
X168533717Y-47191000D01*
X168582483Y-47191000D01*
X169058771Y-47096260D01*
X169449176Y-46835400D01*
X172006100Y-46835400D01*
X172346306Y-46767729D01*
X172634718Y-46575018D01*
X173798718Y-45411018D01*
X173991430Y-45122605D01*
X174059100Y-44782400D01*
X173991430Y-44442194D01*
X173798718Y-44153782D01*
X173510306Y-43961070D01*
X173170100Y-43893400D01*
X172829895Y-43961070D01*
X172541482Y-44153782D01*
X171637864Y-45057400D01*
X169449176Y-45057400D01*
X169058771Y-44796540D01*
X168582483Y-44701800D01*
X168533717Y-44701800D01*
X168057429Y-44796540D01*
X167667024Y-45057400D01*
X166909176Y-45057400D01*
X166518771Y-44796540D01*
X166042483Y-44701800D01*
X165993717Y-44701800D01*
X165517429Y-44796540D01*
X165113652Y-45066335D01*
X164843857Y-45470112D01*
X164749117Y-45946400D01*
X159286311Y-45946400D01*
X159286311Y-39084609D01*
X163129312Y-35241609D01*
X163129314Y-35241606D01*
X163221143Y-35149777D01*
X163494197Y-35263159D01*
X164043593Y-35263639D01*
X164551351Y-35053837D01*
X164940172Y-34665695D01*
X165054484Y-34390400D01*
X168985758Y-34390400D01*
X169098663Y-34663651D01*
X169486805Y-35052472D01*
X169994197Y-35263159D01*
X170543593Y-35263639D01*
X171051351Y-35053837D01*
X171440172Y-34665695D01*
X171650859Y-34158303D01*
X171651339Y-33608907D01*
X171441537Y-33101149D01*
X171053395Y-32712328D01*
X170546003Y-32501641D01*
X169996607Y-32501161D01*
X169488849Y-32710963D01*
X169100028Y-33099105D01*
X168985716Y-33374400D01*
X165054442Y-33374400D01*
X164941537Y-33101149D01*
X164553395Y-32712328D01*
X164046003Y-32501641D01*
X163496607Y-32501161D01*
X162988849Y-32710963D01*
X162600028Y-33099105D01*
X162389341Y-33606497D01*
X162388861Y-34155893D01*
X162502693Y-34431387D01*
X162410894Y-34523186D01*
X162410891Y-34523188D01*
X158419101Y-38514979D01*
X158308980Y-38679786D01*
X158270311Y-38874189D01*
X157052370Y-38874189D01*
X157052370Y-32364670D01*
X246287830Y-32364670D01*
X246287830Y-111600130D01*
G36*
X227661100Y-91396598D02*
X227699769Y-91591001D01*
X227809890Y-91755808D01*
X228558018Y-92503936D01*
X228529100Y-92503936D01*
X228425430Y-92523443D01*
X228329100Y-92503936D01*
X227879100Y-92503936D01*
X227775430Y-92523443D01*
X227679100Y-92503936D01*
X227229100Y-92503936D01*
X227125430Y-92523443D01*
X227029100Y-92503936D01*
X226579100Y-92503936D01*
X226437910Y-92530503D01*
X226308235Y-92613946D01*
X226221241Y-92741266D01*
X226190636Y-92892400D01*
X226190636Y-94392400D01*
X226217203Y-94533590D01*
X226296100Y-94656200D01*
X226296100Y-96394400D01*
X226334769Y-96588803D01*
X226444890Y-96753610D01*
X226444897Y-96753617D01*
X226444890Y-96753624D01*
X226334769Y-96918431D01*
X226296100Y-97112834D01*
X226296100Y-98403936D01*
X225986707Y-98403936D01*
X225973431Y-98337195D01*
X225863310Y-98172388D01*
X224756099Y-97065177D01*
X224756099Y-94780864D01*
X225079100Y-94780864D01*
X225182770Y-94761357D01*
X225279100Y-94780864D01*
X225729100Y-94780864D01*
X225870290Y-94754297D01*
X225999965Y-94670854D01*
X226086959Y-94543534D01*
X226117564Y-94392400D01*
X226117564Y-92892400D01*
X226092883Y-92761235D01*
X227661100Y-91193018D01*
X227661100Y-91396598D01*
X227661100Y-91396598D01*
G37*
X227661100Y-91396598D02*
X227699769Y-91591001D01*
X227809890Y-91755808D01*
X228558018Y-92503936D01*
X228529100Y-92503936D01*
X228425430Y-92523443D01*
X228329100Y-92503936D01*
X227879100Y-92503936D01*
X227775430Y-92523443D01*
X227679100Y-92503936D01*
X227229100Y-92503936D01*
X227125430Y-92523443D01*
X227029100Y-92503936D01*
X226579100Y-92503936D01*
X226437910Y-92530503D01*
X226308235Y-92613946D01*
X226221241Y-92741266D01*
X226190636Y-92892400D01*
X226190636Y-94392400D01*
X226217203Y-94533590D01*
X226296100Y-94656200D01*
X226296100Y-96394400D01*
X226334769Y-96588803D01*
X226444890Y-96753610D01*
X226444897Y-96753617D01*
X226444890Y-96753624D01*
X226334769Y-96918431D01*
X226296100Y-97112834D01*
X226296100Y-98403936D01*
X225986707Y-98403936D01*
X225973431Y-98337195D01*
X225863310Y-98172388D01*
X224756099Y-97065177D01*
X224756099Y-94780864D01*
X225079100Y-94780864D01*
X225182770Y-94761357D01*
X225279100Y-94780864D01*
X225729100Y-94780864D01*
X225870290Y-94754297D01*
X225999965Y-94670854D01*
X226086959Y-94543534D01*
X226117564Y-94392400D01*
X226117564Y-92892400D01*
X226092883Y-92761235D01*
X227661100Y-91193018D01*
X227661100Y-91396598D01*
G36*
X236471646Y-69552265D02*
X236598966Y-69639259D01*
X236750100Y-69669864D01*
X236868846Y-69669864D01*
X236880769Y-69729803D01*
X236990890Y-69894610D01*
X237696100Y-70599821D01*
X237696100Y-93037416D01*
X237569009Y-93164507D01*
X237606457Y-93074323D01*
X237606743Y-92745918D01*
X237481333Y-92442402D01*
X237249319Y-92209983D01*
X236946023Y-92084043D01*
X236617618Y-92083757D01*
X236314102Y-92209167D01*
X236121533Y-92401400D01*
X232336100Y-92401400D01*
X232173950Y-92433654D01*
X232141696Y-92440069D01*
X231976889Y-92550190D01*
X231595890Y-92931190D01*
X231485769Y-93095997D01*
X231447100Y-93290400D01*
X231447100Y-94433370D01*
X230009267Y-94433370D01*
X230017564Y-94392400D01*
X230017564Y-92892400D01*
X229990997Y-92751210D01*
X229911237Y-92627258D01*
X229873431Y-92437195D01*
X229763310Y-92272388D01*
X228677100Y-91186178D01*
X228677100Y-91167882D01*
X230621457Y-91167882D01*
X230746867Y-91471398D01*
X230978881Y-91703817D01*
X231282177Y-91829757D01*
X231610582Y-91830043D01*
X231914098Y-91704633D01*
X232006973Y-91611920D01*
X232031646Y-91650263D01*
X232158966Y-91737257D01*
X232310100Y-91767862D01*
X233510100Y-91767862D01*
X233651290Y-91741295D01*
X233780965Y-91657852D01*
X233867959Y-91530532D01*
X233898564Y-91379398D01*
X233898564Y-90629398D01*
X233871997Y-90488208D01*
X233788554Y-90358533D01*
X233661234Y-90271539D01*
X233510100Y-90240934D01*
X232310100Y-90240934D01*
X232168910Y-90267501D01*
X232039235Y-90350944D01*
X232007526Y-90397351D01*
X231915319Y-90304983D01*
X231612023Y-90179043D01*
X231283618Y-90178757D01*
X230980102Y-90304167D01*
X230747683Y-90536181D01*
X230621743Y-90839477D01*
X230621457Y-91167882D01*
X228677100Y-91167882D01*
X228677100Y-86939864D01*
X229044100Y-86939864D01*
X229185290Y-86913297D01*
X229314965Y-86829854D01*
X229401959Y-86702534D01*
X229432564Y-86551400D01*
X229432564Y-86334400D01*
X232425100Y-86334400D01*
X232619503Y-86295731D01*
X232784310Y-86185610D01*
X233269311Y-85700610D01*
X233379431Y-85535803D01*
X233418100Y-85341400D01*
X233418100Y-85010569D01*
X233510100Y-85010569D01*
X233651290Y-84984002D01*
X233780965Y-84900559D01*
X233867959Y-84773239D01*
X233898564Y-84622105D01*
X233898564Y-83872105D01*
X233871997Y-83730915D01*
X233788554Y-83601240D01*
X233661234Y-83514246D01*
X233510100Y-83483641D01*
X232310100Y-83483641D01*
X232168910Y-83510208D01*
X232039235Y-83593651D01*
X231952241Y-83720971D01*
X231921636Y-83872105D01*
X231921636Y-84622105D01*
X231948203Y-84763295D01*
X232031646Y-84892970D01*
X232158966Y-84979964D01*
X232310100Y-85010569D01*
X232402100Y-85010569D01*
X232402100Y-85130979D01*
X232214680Y-85318400D01*
X229432564Y-85318400D01*
X229432564Y-85101400D01*
X229405997Y-84960210D01*
X229326237Y-84836258D01*
X229288431Y-84646195D01*
X229178310Y-84481388D01*
X229058111Y-84361189D01*
X228929686Y-84275378D01*
X228971517Y-84233619D01*
X229097457Y-83930323D01*
X229097743Y-83601918D01*
X228972333Y-83298402D01*
X228780100Y-83105833D01*
X228780100Y-81039864D01*
X229044100Y-81039864D01*
X229185290Y-81013297D01*
X229314965Y-80929854D01*
X229401959Y-80802534D01*
X229432564Y-80651400D01*
X229432564Y-80434400D01*
X231921636Y-80434400D01*
X231921636Y-80457400D01*
X231948203Y-80598590D01*
X232031646Y-80728265D01*
X232158966Y-80815259D01*
X232310100Y-80845864D01*
X233510100Y-80845864D01*
X233651290Y-80819297D01*
X233780965Y-80735854D01*
X233867959Y-80608534D01*
X233898564Y-80457400D01*
X233898564Y-79707400D01*
X233871997Y-79566210D01*
X233788554Y-79436535D01*
X233661234Y-79349541D01*
X233510100Y-79318936D01*
X232310100Y-79318936D01*
X232168910Y-79345503D01*
X232055624Y-79418400D01*
X231647101Y-79418400D01*
X231647101Y-69919367D01*
X231952900Y-70123696D01*
X232423983Y-70217400D01*
X232472217Y-70217400D01*
X232943300Y-70123696D01*
X233342665Y-69856848D01*
X233584846Y-69494400D01*
X234534411Y-69494400D01*
X234571646Y-69552265D01*
X234698966Y-69639259D01*
X234850100Y-69669864D01*
X236050100Y-69669864D01*
X236191290Y-69643297D01*
X236320965Y-69559854D01*
X236401080Y-69442602D01*
X236471646Y-69552265D01*
X236471646Y-69552265D01*
G37*
X236471646Y-69552265D02*
X236598966Y-69639259D01*
X236750100Y-69669864D01*
X236868846Y-69669864D01*
X236880769Y-69729803D01*
X236990890Y-69894610D01*
X237696100Y-70599821D01*
X237696100Y-93037416D01*
X237569009Y-93164507D01*
X237606457Y-93074323D01*
X237606743Y-92745918D01*
X237481333Y-92442402D01*
X237249319Y-92209983D01*
X236946023Y-92084043D01*
X236617618Y-92083757D01*
X236314102Y-92209167D01*
X236121533Y-92401400D01*
X232336100Y-92401400D01*
X232173950Y-92433654D01*
X232141696Y-92440069D01*
X231976889Y-92550190D01*
X231595890Y-92931190D01*
X231485769Y-93095997D01*
X231447100Y-93290400D01*
X231447100Y-94433370D01*
X230009267Y-94433370D01*
X230017564Y-94392400D01*
X230017564Y-92892400D01*
X229990997Y-92751210D01*
X229911237Y-92627258D01*
X229873431Y-92437195D01*
X229763310Y-92272388D01*
X228677100Y-91186178D01*
X228677100Y-91167882D01*
X230621457Y-91167882D01*
X230746867Y-91471398D01*
X230978881Y-91703817D01*
X231282177Y-91829757D01*
X231610582Y-91830043D01*
X231914098Y-91704633D01*
X232006973Y-91611920D01*
X232031646Y-91650263D01*
X232158966Y-91737257D01*
X232310100Y-91767862D01*
X233510100Y-91767862D01*
X233651290Y-91741295D01*
X233780965Y-91657852D01*
X233867959Y-91530532D01*
X233898564Y-91379398D01*
X233898564Y-90629398D01*
X233871997Y-90488208D01*
X233788554Y-90358533D01*
X233661234Y-90271539D01*
X233510100Y-90240934D01*
X232310100Y-90240934D01*
X232168910Y-90267501D01*
X232039235Y-90350944D01*
X232007526Y-90397351D01*
X231915319Y-90304983D01*
X231612023Y-90179043D01*
X231283618Y-90178757D01*
X230980102Y-90304167D01*
X230747683Y-90536181D01*
X230621743Y-90839477D01*
X230621457Y-91167882D01*
X228677100Y-91167882D01*
X228677100Y-86939864D01*
X229044100Y-86939864D01*
X229185290Y-86913297D01*
X229314965Y-86829854D01*
X229401959Y-86702534D01*
X229432564Y-86551400D01*
X229432564Y-86334400D01*
X232425100Y-86334400D01*
X232619503Y-86295731D01*
X232784310Y-86185610D01*
X233269311Y-85700610D01*
X233379431Y-85535803D01*
X233418100Y-85341400D01*
X233418100Y-85010569D01*
X233510100Y-85010569D01*
X233651290Y-84984002D01*
X233780965Y-84900559D01*
X233867959Y-84773239D01*
X233898564Y-84622105D01*
X233898564Y-83872105D01*
X233871997Y-83730915D01*
X233788554Y-83601240D01*
X233661234Y-83514246D01*
X233510100Y-83483641D01*
X232310100Y-83483641D01*
X232168910Y-83510208D01*
X232039235Y-83593651D01*
X231952241Y-83720971D01*
X231921636Y-83872105D01*
X231921636Y-84622105D01*
X231948203Y-84763295D01*
X232031646Y-84892970D01*
X232158966Y-84979964D01*
X232310100Y-85010569D01*
X232402100Y-85010569D01*
X232402100Y-85130979D01*
X232214680Y-85318400D01*
X229432564Y-85318400D01*
X229432564Y-85101400D01*
X229405997Y-84960210D01*
X229326237Y-84836258D01*
X229288431Y-84646195D01*
X229178310Y-84481388D01*
X229058111Y-84361189D01*
X228929686Y-84275378D01*
X228971517Y-84233619D01*
X229097457Y-83930323D01*
X229097743Y-83601918D01*
X228972333Y-83298402D01*
X228780100Y-83105833D01*
X228780100Y-81039864D01*
X229044100Y-81039864D01*
X229185290Y-81013297D01*
X229314965Y-80929854D01*
X229401959Y-80802534D01*
X229432564Y-80651400D01*
X229432564Y-80434400D01*
X231921636Y-80434400D01*
X231921636Y-80457400D01*
X231948203Y-80598590D01*
X232031646Y-80728265D01*
X232158966Y-80815259D01*
X232310100Y-80845864D01*
X233510100Y-80845864D01*
X233651290Y-80819297D01*
X233780965Y-80735854D01*
X233867959Y-80608534D01*
X233898564Y-80457400D01*
X233898564Y-79707400D01*
X233871997Y-79566210D01*
X233788554Y-79436535D01*
X233661234Y-79349541D01*
X233510100Y-79318936D01*
X232310100Y-79318936D01*
X232168910Y-79345503D01*
X232055624Y-79418400D01*
X231647101Y-79418400D01*
X231647101Y-69919367D01*
X231952900Y-70123696D01*
X232423983Y-70217400D01*
X232472217Y-70217400D01*
X232943300Y-70123696D01*
X233342665Y-69856848D01*
X233584846Y-69494400D01*
X234534411Y-69494400D01*
X234571646Y-69552265D01*
X234698966Y-69639259D01*
X234850100Y-69669864D01*
X236050100Y-69669864D01*
X236191290Y-69643297D01*
X236320965Y-69559854D01*
X236401080Y-69442602D01*
X236471646Y-69552265D01*
M02*
