M48
;DRILL file {KiCad 4.0.6} date 08/23/17 08:58:05
;FORMAT={-:-/ absolute / inch / decimal}
FMAT,2
INCH,TZ
T1C0.020
T2C0.039
T3C0.040
%
G90
G05
M72
T1
X6.3315Y-2.046
X6.4215Y-1.706
X6.5501Y-4.2231
X6.7784Y-1.9127
X6.8141Y-4.3241
X6.8177Y-1.7631
X6.8471Y-2.6129
X6.9121Y-2.4579
X6.9821Y-2.4079
X7.1111Y-4.3261
X7.1315Y-3.596
X7.1315Y-3.596
X7.2114Y-1.5111
X7.2215Y-3.006
X7.3391Y-1.3201
X7.3621Y-2.8829
X7.424Y-1.7237
X7.424Y-1.816
X7.5341Y-4.3261
X7.613Y-1.5111
X7.6316Y-3.6461
X7.7131Y-1.3141
X7.8261Y-4.3281
X7.8515Y-3.056
X8.0421Y-2.1179
X8.0721Y-2.0179
X8.1521Y-1.9179
X8.1571Y-4.3261
X8.2381Y-1.3201
X8.2421Y-1.8179
X8.5341Y-4.3391
X8.6371Y-3.7479
X8.7171Y-1.3201
X8.7371Y-2.9629
X8.7521Y-3.7379
X8.7871Y-3.2579
X8.8671Y-3.7979
X8.8915Y-1.706
X8.9021Y-2.9679
X8.9171Y-2.9079
X8.9409Y-2.7836
X8.9595Y-1.6214
X8.9871Y-3.2979
X9.0351Y-4.3571
X9.0921Y-4.0279
X9.1021Y-3.9179
X9.1121Y-3.5829
X9.1904Y-3.8172
X9.1911Y-1.3331
X9.2168Y-3.9639
X9.2168Y-4.0089
X9.2321Y-3.7079
X9.2423Y-3.9223
X9.2591Y-4.3521
X9.2921Y-1.9629
X9.3071Y-3.4729
X9.3094Y-3.7398
X9.3221Y-3.6579
X9.4188Y-2.0133
X9.4361Y-4.1441
X9.4391Y-1.5301
X9.4532Y-2.1201
X9.5541Y-4.0931
X9.6361Y-1.7091
X9.6521Y-3.3691
X9.6521Y-3.7391
X9.6561Y-3.0051
X9.6611Y-2.3541
T2
X6.4476Y-1.334
X6.4476Y-1.5111
X6.7035Y-1.334
X6.7035Y-1.5111
X6.865Y-1.334
X6.865Y-1.5111
X7.1209Y-1.334
X7.1209Y-1.5111
X7.3971Y-4.0329
X7.3971Y-4.1329
X7.4971Y-4.0329
X7.4971Y-4.1329
X7.5971Y-4.0329
X7.5971Y-4.1329
X7.6515Y-1.716
X7.6515Y-1.816
X7.6515Y-1.916
X7.6515Y-2.016
X7.6515Y-2.116
X7.6515Y-2.216
X7.6515Y-2.316
X7.6515Y-2.416
X7.6515Y-2.516
X7.6515Y-2.616
X7.6515Y-2.716
X7.6971Y-4.0329
X7.6971Y-4.1329
X7.7515Y-1.716
X7.7515Y-1.816
X7.7515Y-1.916
X7.7515Y-2.016
X7.7515Y-2.116
X7.7515Y-2.216
X7.7515Y-2.316
X7.7515Y-2.416
X7.7515Y-2.516
X7.7515Y-2.616
X7.7515Y-2.716
X7.7971Y-4.0329
X7.7971Y-4.1329
X9.0515Y-1.716
X9.0515Y-1.816
X9.0515Y-1.916
X9.0515Y-2.016
X9.0515Y-2.116
X9.0515Y-2.216
X9.0515Y-2.316
X9.0515Y-2.416
X9.0515Y-2.516
X9.0515Y-2.616
X9.0515Y-2.716
X9.1515Y-1.716
X9.1515Y-1.816
X9.1515Y-1.916
X9.1515Y-2.016
X9.1515Y-2.116
X9.1515Y-2.216
X9.1515Y-2.316
X9.1515Y-2.416
X9.1515Y-2.516
X9.1515Y-2.616
X9.1515Y-2.716
T3
X6.5361Y-1.7089
X6.5361Y-1.8089
X6.5361Y-1.9089
X6.5361Y-2.0089
X6.5361Y-2.1089
X6.5361Y-2.2089
X6.5361Y-2.3089
X6.5361Y-2.4089
X6.5361Y-2.5089
X6.5361Y-2.6089
X6.5361Y-2.7089
X6.5361Y-2.8089
X6.5361Y-2.9089
X6.5361Y-3.0089
X6.5361Y-3.1089
X6.5361Y-3.2089
X6.5361Y-3.3089
X6.5361Y-3.4089
X6.5361Y-3.5089
X6.5361Y-3.6089
X6.5361Y-3.7089
X6.5361Y-3.8089
X6.5361Y-3.9089
X6.6361Y-1.7089
X6.6361Y-1.8089
X6.6361Y-1.9089
X6.6361Y-2.0089
X6.6361Y-2.1089
X6.6361Y-2.2089
X6.6361Y-2.3089
X6.6361Y-2.4089
X6.6361Y-2.5089
X6.6361Y-2.6089
X6.6361Y-2.7089
X6.6361Y-2.8089
X6.6361Y-2.9089
X6.6361Y-3.0089
X6.6361Y-3.1089
X6.6361Y-3.2089
X6.6361Y-3.3089
X6.6361Y-3.4089
X6.6361Y-3.5089
X6.6361Y-3.6089
X6.6361Y-3.7089
X6.6361Y-3.8089
X6.6361Y-3.9089
X8.4361Y-1.7089
X8.4361Y-1.8089
X8.4361Y-1.9089
X8.4361Y-2.0089
X8.4361Y-2.1089
X8.4361Y-2.2089
X8.4361Y-2.3089
X8.4361Y-2.4089
X8.4361Y-2.5089
X8.4361Y-2.6089
X8.4361Y-2.7089
X8.4361Y-2.8089
X8.4361Y-2.9089
X8.4361Y-3.0089
X8.4361Y-3.1089
X8.4361Y-3.2089
X8.4361Y-3.3089
X8.4361Y-3.4089
X8.4361Y-3.5089
X8.4361Y-3.6089
X8.4361Y-3.7089
X8.4361Y-3.8089
X8.4361Y-3.9089
X8.5361Y-1.7089
X8.5361Y-1.8089
X8.5361Y-1.9089
X8.5361Y-2.0089
X8.5361Y-2.1089
X8.5361Y-2.2089
X8.5361Y-2.3089
X8.5361Y-2.4089
X8.5361Y-2.5089
X8.5361Y-2.6089
X8.5361Y-2.7089
X8.5361Y-2.8089
X8.5361Y-2.9089
X8.5361Y-3.0089
X8.5361Y-3.1089
X8.5361Y-3.2089
X8.5361Y-3.3089
X8.5361Y-3.4089
X8.5361Y-3.5089
X8.5361Y-3.6089
X8.5361Y-3.7089
X8.5361Y-3.8089
X8.5361Y-3.9089
T0
M30
